<svg width="357" height="204" viewBox="0 0 357 204" fill="none" xmlns="http://www.w3.org/2000/svg">
<path d="M356.207 194.941H347.733V203.422H356.207V194.941Z" fill="white"/>
<path d="M356.207 101.711H347.733V110.184H356.207V101.711Z" fill="white"/>
<path d="M356.207 93.2378H347.733V101.711H356.207V93.2378Z" fill="white"/>
<path d="M356.207 84.7567H347.733V93.2379H356.207V84.7567Z" fill="white"/>
<path d="M356.207 76.2833H347.733V84.7566H356.207V76.2833Z" fill="white"/>
<path d="M347.733 194.941H339.26V203.422H347.733V194.941Z" fill="white"/>
<path d="M347.733 118.658H339.26V127.139H347.733V118.658Z" fill="white"/>
<path d="M347.733 110.184H339.26V118.658H347.733V110.184Z" fill="white"/>
<path d="M347.733 101.711H339.26V110.184H347.733V101.711Z" fill="white"/>
<path d="M347.733 93.2378H339.26V101.711H347.733V93.2378Z" fill="white"/>
<path d="M347.733 84.7567H339.26V93.2379H347.733V84.7567Z" fill="white"/>
<path d="M347.733 76.2833H339.26V84.7566H347.733V76.2833Z" fill="white"/>
<path d="M347.733 67.8101H339.26V76.2833H347.733V67.8101Z" fill="white"/>
<path d="M347.733 59.3289H339.26V67.8101H347.733V59.3289Z" fill="white"/>
<path d="M339.26 194.941H330.779V203.422H339.26V194.941Z" fill="white"/>
<path d="M339.26 127.139H330.779V135.612H339.26V127.139Z" fill="white"/>
<path d="M339.26 118.658H330.779V127.139H339.26V118.658Z" fill="white"/>
<path d="M339.26 110.184H330.779V118.658H339.26V110.184Z" fill="white"/>
<path d="M339.26 101.711H330.779V110.184H339.26V101.711Z" fill="white"/>
<path d="M339.26 93.2378H330.779V101.711H339.26V93.2378Z" fill="white"/>
<path d="M339.26 84.7567H330.779V93.2379H339.26V84.7567Z" fill="white"/>
<path d="M339.26 76.2833H330.779V84.7566H339.26V76.2833Z" fill="white"/>
<path d="M339.26 67.8101H330.779V76.2833H339.26V67.8101Z" fill="white"/>
<path d="M339.26 59.3289H330.779V67.8101H339.26V59.3289Z" fill="white"/>
<path d="M339.26 50.8556H330.779V59.3289H339.26V50.8556Z" fill="white"/>
<path d="M330.779 194.941H322.306V203.422H330.779V194.941Z" fill="white"/>
<path d="M330.779 186.468H322.306V194.941H330.779V186.468Z" fill="white"/>
<path d="M330.779 135.612H322.306V144.085H330.779V135.612Z" fill="white"/>
<path d="M330.779 127.139H322.306V135.612H330.779V127.139Z" fill="white"/>
<path d="M330.779 118.658H322.306V127.139H330.779V118.658Z" fill="white"/>
<path d="M330.779 110.184H322.306V118.658H330.779V110.184Z" fill="white"/>
<path d="M330.779 101.711H322.306V110.184H330.779V101.711Z" fill="white"/>
<path d="M330.779 93.2378H322.306V101.711H330.779V93.2378Z" fill="white"/>
<path d="M330.779 84.7567H322.306V93.2379H330.779V84.7567Z" fill="white"/>
<path d="M330.779 76.2833H322.306V84.7566H330.779V76.2833Z" fill="white"/>
<path d="M330.779 67.8101H322.306V76.2833H330.779V67.8101Z" fill="white"/>
<path d="M330.779 59.3289H322.306V67.8101H330.779V59.3289Z" fill="white"/>
<path d="M330.779 50.8556H322.306V59.3289H330.779V50.8556Z" fill="white"/>
<path d="M330.779 42.3822H322.306V50.8555H330.779V42.3822Z" fill="white"/>
<path d="M322.306 194.941H313.832V203.422H322.306V194.941Z" fill="white"/>
<path d="M322.306 186.468H313.832V194.941H322.306V186.468Z" fill="white"/>
<path d="M322.306 144.086H313.832V152.567H322.306V144.086Z" fill="white"/>
<path d="M322.306 135.612H313.832V144.085H322.306V135.612Z" fill="white"/>
<path d="M322.306 127.139H313.832V135.612H322.306V127.139Z" fill="white"/>
<path d="M322.306 118.658H313.832V127.139H322.306V118.658Z" fill="white"/>
<path d="M322.306 110.184H313.832V118.658H322.306V110.184Z" fill="white"/>
<path d="M322.306 101.711H313.832V110.184H322.306V101.711Z" fill="white"/>
<path d="M322.306 93.2378H313.832V101.711H322.306V93.2378Z" fill="white"/>
<path d="M322.306 84.7567H313.832V93.2379H322.306V84.7567Z" fill="white"/>
<path d="M322.306 76.2833H313.832V84.7566H322.306V76.2833Z" fill="white"/>
<path d="M322.306 67.8101H313.832V76.2833H322.306V67.8101Z" fill="white"/>
<path d="M322.306 59.3289H313.832V67.8101H322.306V59.3289Z" fill="white"/>
<path d="M322.306 50.8556H313.832V59.3289H322.306V50.8556Z" fill="white"/>
<path d="M322.306 42.3822H313.832V50.8555H322.306V42.3822Z" fill="white"/>
<path d="M322.306 33.9011H313.832V42.3823H322.306V33.9011Z" fill="white"/>
<path d="M313.832 194.941H305.351V203.422H313.832V194.941Z" fill="white"/>
<path d="M313.832 186.468H305.351V194.941H313.832V186.468Z" fill="white"/>
<path d="M313.832 152.567H305.351V161.04H313.832V152.567Z" fill="white"/>
<path d="M313.832 144.086H305.351V152.567H313.832V144.086Z" fill="white"/>
<path d="M313.832 135.612H305.351V144.085H313.832V135.612Z" fill="white"/>
<path d="M313.832 127.139H305.351V135.612H313.832V127.139Z" fill="white"/>
<path d="M313.832 118.658H305.351V127.139H313.832V118.658Z" fill="white"/>
<path d="M313.832 110.184H305.351V118.658H313.832V110.184Z" fill="white"/>
<path d="M313.832 101.711H305.351V110.184H313.832V101.711Z" fill="white"/>
<path d="M313.832 93.2378H305.351V101.711H313.832V93.2378Z" fill="white"/>
<path d="M313.832 84.7567H305.351V93.2379H313.832V84.7567Z" fill="white"/>
<path d="M313.832 76.2833H305.351V84.7566H313.832V76.2833Z" fill="white"/>
<path d="M313.832 67.8101H305.351V76.2833H313.832V67.8101Z" fill="white"/>
<path d="M313.832 59.3289H305.351V67.8101H313.832V59.3289Z" fill="white"/>
<path d="M313.832 50.8556H305.351V59.3289H313.832V50.8556Z" fill="white"/>
<path d="M313.832 42.3822H305.351V50.8555H313.832V42.3822Z" fill="white"/>
<path d="M313.832 33.9011H305.351V42.3823H313.832V33.9011Z" fill="white"/>
<path d="M313.832 25.4277H305.351V33.901H313.832V25.4277Z" fill="white"/>
<path d="M305.351 186.468H296.878V194.941H305.351V186.468Z" fill="white"/>
<path d="M305.351 177.995H296.878V186.468H305.351V177.995Z" fill="white"/>
<path d="M305.351 152.567H296.878V161.04H305.351V152.567Z" fill="white"/>
<path d="M305.351 144.086H296.878V152.567H305.351V144.086Z" fill="white"/>
<path d="M305.351 135.612H296.878V144.085H305.351V135.612Z" fill="white"/>
<path d="M305.351 127.139H296.878V135.612H305.351V127.139Z" fill="white"/>
<path d="M305.351 118.658H296.878V127.139H305.351V118.658Z" fill="white"/>
<path d="M305.351 110.184H296.878V118.658H305.351V110.184Z" fill="white"/>
<path d="M305.351 101.711H296.878V110.184H305.351V101.711Z" fill="white"/>
<path d="M305.351 93.2378H296.878V101.711H305.351V93.2378Z" fill="white"/>
<path d="M305.351 84.7567H296.878V93.2379H305.351V84.7567Z" fill="white"/>
<path d="M305.351 76.2833H296.878V84.7566H305.351V76.2833Z" fill="white"/>
<path d="M305.351 67.8101H296.878V76.2833H305.351V67.8101Z" fill="white"/>
<path d="M305.351 59.3289H296.878V67.8101H305.351V59.3289Z" fill="white"/>
<path d="M305.351 50.8556H296.878V59.3289H305.351V50.8556Z" fill="white"/>
<path d="M305.351 42.3822H296.878V50.8555H305.351V42.3822Z" fill="white"/>
<path d="M305.351 33.9011H296.878V42.3823H305.351V33.9011Z" fill="white"/>
<path d="M305.351 25.4277H296.878V33.901H305.351V25.4277Z" fill="white"/>
<path d="M296.878 186.468H288.405V194.941H296.878V186.468Z" fill="white"/>
<path d="M296.878 177.995H288.405V186.468H296.878V177.995Z" fill="white"/>
<path d="M296.878 169.513H288.405V177.995H296.878V169.513Z" fill="white"/>
<path d="M296.878 161.04H288.405V169.513H296.878V161.04Z" fill="white"/>
<path d="M296.878 152.567H288.405V161.04H296.878V152.567Z" fill="white"/>
<path d="M296.878 144.086H288.405V152.567H296.878V144.086Z" fill="white"/>
<path d="M296.878 135.612H288.405V144.085H296.878V135.612Z" fill="white"/>
<path d="M296.878 127.139H288.405V135.612H296.878V127.139Z" fill="white"/>
<path d="M296.878 118.658H288.405V127.139H296.878V118.658Z" fill="white"/>
<path d="M296.878 110.184H288.405V118.658H296.878V110.184Z" fill="white"/>
<path d="M296.878 101.711H288.405V110.184H296.878V101.711Z" fill="white"/>
<path d="M296.878 93.2378H288.405V101.711H296.878V93.2378Z" fill="white"/>
<path d="M296.878 84.7567H288.405V93.2379H296.878V84.7567Z" fill="white"/>
<path d="M296.878 76.2833H288.405V84.7566H296.878V76.2833Z" fill="white"/>
<path d="M296.878 67.8101H288.405V76.2833H296.878V67.8101Z" fill="white"/>
<path d="M296.878 59.3289H288.405V67.8101H296.878V59.3289Z" fill="white"/>
<path d="M296.878 50.8556H288.405V59.3289H296.878V50.8556Z" fill="white"/>
<path d="M296.878 42.3822H288.405V50.8555H296.878V42.3822Z" fill="white"/>
<path d="M296.878 33.9011H288.405V42.3823H296.878V33.9011Z" fill="white"/>
<path d="M296.878 25.4277H288.405V33.901H296.878V25.4277Z" fill="white"/>
<path d="M296.878 16.9545H288.405V25.4278H296.878V16.9545Z" fill="white"/>
<path d="M288.405 186.468H279.931V194.941H288.405V186.468Z" fill="white"/>
<path d="M288.405 177.995H279.931V186.468H288.405V177.995Z" fill="white"/>
<path d="M288.405 169.513H279.931V177.995H288.405V169.513Z" fill="white"/>
<path d="M288.405 161.04H279.931V169.513H288.405V161.04Z" fill="white"/>
<path d="M288.405 152.567H279.931V161.04H288.405V152.567Z" fill="white"/>
<path d="M288.405 144.086H279.931V152.567H288.405V144.086Z" fill="white"/>
<path d="M288.405 135.612H279.931V144.085H288.405V135.612Z" fill="white"/>
<path d="M288.405 127.139H279.931V135.612H288.405V127.139Z" fill="white"/>
<path d="M288.405 118.658H279.931V127.139H288.405V118.658Z" fill="white"/>
<path d="M288.405 110.184H279.931V118.658H288.405V110.184Z" fill="white"/>
<path d="M288.405 101.711H279.931V110.184H288.405V101.711Z" fill="white"/>
<path d="M288.405 93.2378H279.931V101.711H288.405V93.2378Z" fill="white"/>
<path d="M288.405 84.7567H279.931V93.2379H288.405V84.7567Z" fill="white"/>
<path d="M288.405 76.2833H279.931V84.7566H288.405V76.2833Z" fill="white"/>
<path d="M288.405 67.8101H279.931V76.2833H288.405V67.8101Z" fill="white"/>
<path d="M288.405 59.3289H279.931V67.8101H288.405V59.3289Z" fill="white"/>
<path d="M288.405 50.8556H279.931V59.3289H288.405V50.8556Z" fill="white"/>
<path d="M288.405 42.3822H279.931V50.8555H288.405V42.3822Z" fill="white"/>
<path d="M288.405 33.9011H279.931V42.3823H288.405V33.9011Z" fill="white"/>
<path d="M288.405 25.4277H279.931V33.901H288.405V25.4277Z" fill="white"/>
<path d="M288.405 16.9545H279.931V25.4278H288.405V16.9545Z" fill="white"/>
<path d="M279.931 177.995H271.45V186.468H279.931V177.995Z" fill="white"/>
<path d="M279.931 169.513H271.45V177.995H279.931V169.513Z" fill="white"/>
<path d="M279.931 161.04H271.45V169.513H279.931V161.04Z" fill="white"/>
<path d="M279.931 152.567H271.45V161.04H279.931V152.567Z" fill="white"/>
<path d="M279.931 144.086H271.45V152.567H279.931V144.086Z" fill="white"/>
<path d="M279.931 135.612H271.45V144.085H279.931V135.612Z" fill="white"/>
<path d="M279.931 127.139H271.45V135.612H279.931V127.139Z" fill="white"/>
<path d="M279.931 118.658H271.45V127.139H279.931V118.658Z" fill="white"/>
<path d="M279.931 110.184H271.45V118.658H279.931V110.184Z" fill="white"/>
<path d="M279.931 101.711H271.45V110.184H279.931V101.711Z" fill="white"/>
<path d="M279.931 93.2378H271.45V101.711H279.931V93.2378Z" fill="white"/>
<path d="M279.931 84.7567H271.45V93.2379H279.931V84.7567Z" fill="white"/>
<path d="M279.931 76.2833H271.45V84.7566H279.931V76.2833Z" fill="white"/>
<path d="M279.931 67.8101H271.45V76.2833H279.931V67.8101Z" fill="white"/>
<path d="M279.931 59.3289H271.45V67.8101H279.931V59.3289Z" fill="white"/>
<path d="M279.931 50.8556H271.45V59.3289H279.931V50.8556Z" fill="white"/>
<path d="M279.931 42.3822H271.45V50.8555H279.931V42.3822Z" fill="white"/>
<path d="M279.931 33.9011H271.45V42.3823H279.931V33.9011Z" fill="white"/>
<path d="M279.931 25.4277H271.45V33.901H279.931V25.4277Z" fill="white"/>
<path d="M279.931 16.9545H271.45V25.4278H279.931V16.9545Z" fill="white"/>
<path d="M271.45 169.513H262.977V177.995H271.45V169.513Z" fill="white"/>
<path d="M271.45 161.04H262.977V169.513H271.45V161.04Z" fill="white"/>
<path d="M271.45 152.567H262.977V161.04H271.45V152.567Z" fill="white"/>
<path d="M271.45 144.086H262.977V152.567H271.45V144.086Z" fill="white"/>
<path d="M271.45 135.612H262.977V144.085H271.45V135.612Z" fill="white"/>
<path d="M271.45 127.139H262.977V135.612H271.45V127.139Z" fill="white"/>
<path d="M271.45 118.658H262.977V127.139H271.45V118.658Z" fill="white"/>
<path d="M271.45 110.184H262.977V118.658H271.45V110.184Z" fill="white"/>
<path d="M271.45 101.711H262.977V110.184H271.45V101.711Z" fill="white"/>
<path d="M271.45 93.2378H262.977V101.711H271.45V93.2378Z" fill="white"/>
<path d="M271.45 84.7567H262.977V93.2379H271.45V84.7567Z" fill="white"/>
<path d="M271.45 76.2833H262.977V84.7566H271.45V76.2833Z" fill="white"/>
<path d="M271.45 67.8101H262.977V76.2833H271.45V67.8101Z" fill="white"/>
<path d="M271.45 59.3289H262.977V67.8101H271.45V59.3289Z" fill="white"/>
<path d="M271.45 50.8556H262.977V59.3289H271.45V50.8556Z" fill="white"/>
<path d="M271.45 42.3822H262.977V50.8555H271.45V42.3822Z" fill="white"/>
<path d="M271.45 33.9011H262.977V42.3823H271.45V33.9011Z" fill="white"/>
<path d="M271.45 25.4277H262.977V33.901H271.45V25.4277Z" fill="white"/>
<path d="M271.45 16.9545H262.977V25.4278H271.45V16.9545Z" fill="white"/>
<path d="M271.45 8.48132H262.977V16.9546H271.45V8.48132Z" fill="white"/>
<path d="M262.977 169.513H254.503V177.995H262.977V169.513Z" fill="white"/>
<path d="M262.977 161.04H254.503V169.513H262.977V161.04Z" fill="white"/>
<path d="M262.977 152.567H254.503V161.04H262.977V152.567Z" fill="white"/>
<path d="M262.977 144.086H254.503V152.567H262.977V144.086Z" fill="white"/>
<path d="M262.977 135.612H254.503V144.085H262.977V135.612Z" fill="white"/>
<path d="M262.977 127.139H254.503V135.612H262.977V127.139Z" fill="white"/>
<path d="M262.977 118.658H254.503V127.139H262.977V118.658Z" fill="white"/>
<path d="M262.977 110.184H254.503V118.658H262.977V110.184Z" fill="white"/>
<path d="M262.977 101.711H254.503V110.184H262.977V101.711Z" fill="white"/>
<path d="M262.977 93.2378H254.503V101.711H262.977V93.2378Z" fill="white"/>
<path d="M262.977 84.7567H254.503V93.2379H262.977V84.7567Z" fill="white"/>
<path d="M262.977 76.2833H254.503V84.7566H262.977V76.2833Z" fill="white"/>
<path d="M262.977 67.8101H254.503V76.2833H262.977V67.8101Z" fill="white"/>
<path d="M262.977 59.3289H254.503V67.8101H262.977V59.3289Z" fill="white"/>
<path d="M262.977 50.8556H254.503V59.3289H262.977V50.8556Z" fill="white"/>
<path d="M262.977 42.3822H254.503V50.8555H262.977V42.3822Z" fill="white"/>
<path d="M262.977 33.9011H254.503V42.3823H262.977V33.9011Z" fill="white"/>
<path d="M262.977 25.4277H254.503V33.901H262.977V25.4277Z" fill="white"/>
<path d="M262.977 16.9545H254.503V25.4278H262.977V16.9545Z" fill="white"/>
<path d="M262.977 8.48132H254.503V16.9546H262.977V8.48132Z" fill="white"/>
<path d="M254.503 169.513H246.022V177.995H254.503V169.513Z" fill="white"/>
<path d="M254.503 161.04H246.022V169.513H254.503V161.04Z" fill="white"/>
<path d="M254.503 152.567H246.022V161.04H254.503V152.567Z" fill="white"/>
<path d="M254.503 144.086H246.022V152.567H254.503V144.086Z" fill="white"/>
<path d="M254.503 135.612H246.022V144.085H254.503V135.612Z" fill="white"/>
<path d="M254.503 127.139H246.022V135.612H254.503V127.139Z" fill="white"/>
<path d="M254.503 118.658H246.022V127.139H254.503V118.658Z" fill="white"/>
<path d="M254.503 110.184H246.022V118.658H254.503V110.184Z" fill="white"/>
<path d="M254.503 101.711H246.022V110.184H254.503V101.711Z" fill="white"/>
<path d="M254.503 93.2378H246.022V101.711H254.503V93.2378Z" fill="white"/>
<path d="M254.503 84.7567H246.022V93.2379H254.503V84.7567Z" fill="white"/>
<path d="M254.503 76.2833H246.022V84.7566H254.503V76.2833Z" fill="white"/>
<path d="M254.503 67.8101H246.022V76.2833H254.503V67.8101Z" fill="white"/>
<path d="M254.503 59.3289H246.022V67.8101H254.503V59.3289Z" fill="white"/>
<path d="M254.503 50.8556H246.022V59.3289H254.503V50.8556Z" fill="white"/>
<path d="M254.503 42.3822H246.022V50.8555H254.503V42.3822Z" fill="white"/>
<path d="M254.503 33.9011H246.022V42.3823H254.503V33.9011Z" fill="white"/>
<path d="M254.503 25.4277H246.022V33.901H254.503V25.4277Z" fill="white"/>
<path d="M254.503 16.9545H246.022V25.4278H254.503V16.9545Z" fill="white"/>
<path d="M254.503 8.48132H246.022V16.9546H254.503V8.48132Z" fill="white"/>
<path d="M246.022 177.995H237.549V186.468H246.022V177.995Z" fill="white"/>
<path d="M246.022 169.513H237.549V177.995H246.022V169.513Z" fill="white"/>
<path d="M246.022 161.04H237.549V169.513H246.022V161.04Z" fill="white"/>
<path d="M246.022 152.567H237.549V161.04H246.022V152.567Z" fill="white"/>
<path d="M246.022 144.086H237.549V152.567H246.022V144.086Z" fill="white"/>
<path d="M246.022 135.612H237.549V144.085H246.022V135.612Z" fill="white"/>
<path d="M246.022 127.139H237.549V135.612H246.022V127.139Z" fill="white"/>
<path d="M246.022 118.658H237.549V127.139H246.022V118.658Z" fill="white"/>
<path d="M246.022 110.184H237.549V118.658H246.022V110.184Z" fill="white"/>
<path d="M246.022 101.711H237.549V110.184H246.022V101.711Z" fill="white"/>
<path d="M246.022 93.2378H237.549V101.711H246.022V93.2378Z" fill="white"/>
<path d="M246.022 84.7567H237.549V93.2379H246.022V84.7567Z" fill="white"/>
<path d="M246.022 76.2833H237.549V84.7566H246.022V76.2833Z" fill="white"/>
<path d="M246.022 67.8101H237.549V76.2833H246.022V67.8101Z" fill="white"/>
<path d="M246.022 59.3289H237.549V67.8101H246.022V59.3289Z" fill="white"/>
<path d="M246.022 50.8556H237.549V59.3289H246.022V50.8556Z" fill="white"/>
<path d="M246.022 42.3822H237.549V50.8555H246.022V42.3822Z" fill="white"/>
<path d="M246.022 33.9011H237.549V42.3823H246.022V33.9011Z" fill="white"/>
<path d="M246.022 25.4277H237.549V33.901H246.022V25.4277Z" fill="white"/>
<path d="M246.022 16.9545H237.549V25.4278H246.022V16.9545Z" fill="white"/>
<path d="M246.022 8.48132H237.549V16.9546H246.022V8.48132Z" fill="white"/>
<path d="M237.549 177.995H229.076V186.468H237.549V177.995Z" fill="white"/>
<path d="M237.549 169.513H229.076V177.995H237.549V169.513Z" fill="white"/>
<path d="M237.549 161.04H229.076V169.513H237.549V161.04Z" fill="white"/>
<path d="M237.549 152.567H229.076V161.04H237.549V152.567Z" fill="white"/>
<path d="M237.549 144.086H229.076V152.567H237.549V144.086Z" fill="white"/>
<path d="M237.549 135.612H229.076V144.085H237.549V135.612Z" fill="white"/>
<path d="M237.549 127.139H229.076V135.612H237.549V127.139Z" fill="white"/>
<path d="M237.549 118.658H229.076V127.139H237.549V118.658Z" fill="white"/>
<path d="M237.549 110.184H229.076V118.658H237.549V110.184Z" fill="white"/>
<path d="M237.549 101.711H229.076V110.184H237.549V101.711Z" fill="white"/>
<path d="M237.549 93.2378H229.076V101.711H237.549V93.2378Z" fill="white"/>
<path d="M237.549 84.7567H229.076V93.2379H237.549V84.7567Z" fill="white"/>
<path d="M237.549 76.2833H229.076V84.7566H237.549V76.2833Z" fill="white"/>
<path d="M237.549 67.8101H229.076V76.2833H237.549V67.8101Z" fill="white"/>
<path d="M237.549 59.3289H229.076V67.8101H237.549V59.3289Z" fill="white"/>
<path d="M237.549 50.8556H229.076V59.3289H237.549V50.8556Z" fill="white"/>
<path d="M237.549 42.3822H229.076V50.8555H237.549V42.3822Z" fill="white"/>
<path d="M237.549 33.9011H229.076V42.3823H237.549V33.9011Z" fill="white"/>
<path d="M237.549 25.4277H229.076V33.901H237.549V25.4277Z" fill="white"/>
<path d="M237.549 16.9545H229.076V25.4278H237.549V16.9545Z" fill="white"/>
<path d="M237.549 8.48132H229.076V16.9546H237.549V8.48132Z" fill="white"/>
<path d="M237.549 0H229.076V8.48121H237.549V0Z" fill="white"/>
<path d="M229.076 177.995H220.594V186.468H229.076V177.995Z" fill="white"/>
<path d="M229.076 169.513H220.594V177.995H229.076V169.513Z" fill="white"/>
<path d="M229.076 161.04H220.594V169.513H229.076V161.04Z" fill="white"/>
<path d="M229.076 152.567H220.594V161.04H229.076V152.567Z" fill="white"/>
<path d="M229.076 144.086H220.594V152.567H229.076V144.086Z" fill="white"/>
<path d="M229.076 135.612H220.594V144.085H229.076V135.612Z" fill="white"/>
<path d="M229.076 127.139H220.594V135.612H229.076V127.139Z" fill="white"/>
<path d="M229.076 118.658H220.594V127.139H229.076V118.658Z" fill="white"/>
<path d="M229.076 110.184H220.594V118.658H229.076V110.184Z" fill="white"/>
<path d="M229.076 101.711H220.594V110.184H229.076V101.711Z" fill="white"/>
<path d="M229.076 93.2378H220.594V101.711H229.076V93.2378Z" fill="white"/>
<path d="M229.076 84.7567H220.594V93.2379H229.076V84.7567Z" fill="white"/>
<path d="M229.076 76.2833H220.594V84.7566H229.076V76.2833Z" fill="white"/>
<path d="M229.076 67.8101H220.594V76.2833H229.076V67.8101Z" fill="white"/>
<path d="M229.076 59.3289H220.594V67.8101H229.076V59.3289Z" fill="white"/>
<path d="M229.076 50.8556H220.594V59.3289H229.076V50.8556Z" fill="white"/>
<path d="M229.076 42.3822H220.594V50.8555H229.076V42.3822Z" fill="white"/>
<path d="M229.076 33.9011H220.594V42.3823H229.076V33.9011Z" fill="white"/>
<path d="M229.076 25.4277H220.594V33.901H229.076V25.4277Z" fill="white"/>
<path d="M229.076 16.9545H220.594V25.4278H229.076V16.9545Z" fill="white"/>
<path d="M229.076 8.48132H220.594V16.9546H229.076V8.48132Z" fill="white"/>
<path d="M229.076 0H220.594V8.48121H229.076V0Z" fill="white"/>
<path d="M220.594 177.995H212.121V186.468H220.594V177.995Z" fill="white"/>
<path d="M220.594 169.513H212.121V177.995H220.594V169.513Z" fill="white"/>
<path d="M220.594 161.04H212.121V169.513H220.594V161.04Z" fill="white"/>
<path d="M220.594 152.567H212.121V161.04H220.594V152.567Z" fill="white"/>
<path d="M220.594 144.086H212.121V152.567H220.594V144.086Z" fill="white"/>
<path d="M220.594 135.612H212.121V144.085H220.594V135.612Z" fill="white"/>
<path d="M220.594 127.139H212.121V135.612H220.594V127.139Z" fill="white"/>
<path d="M220.594 118.658H212.121V127.139H220.594V118.658Z" fill="white"/>
<path d="M220.594 110.184H212.121V118.658H220.594V110.184Z" fill="white"/>
<path d="M220.594 101.711H212.121V110.184H220.594V101.711Z" fill="white"/>
<path d="M220.594 93.2378H212.121V101.711H220.594V93.2378Z" fill="white"/>
<path d="M220.594 84.7567H212.121V93.2379H220.594V84.7567Z" fill="white"/>
<path d="M220.594 76.2833H212.121V84.7566H220.594V76.2833Z" fill="white"/>
<path d="M220.594 67.8101H212.121V76.2833H220.594V67.8101Z" fill="white"/>
<path d="M220.594 59.3289H212.121V67.8101H220.594V59.3289Z" fill="white"/>
<path d="M220.594 50.8556H212.121V59.3289H220.594V50.8556Z" fill="white"/>
<path d="M220.594 42.3822H212.121V50.8555H220.594V42.3822Z" fill="white"/>
<path d="M220.594 33.9011H212.121V42.3823H220.594V33.9011Z" fill="white"/>
<path d="M220.594 25.4277H212.121V33.901H220.594V25.4277Z" fill="white"/>
<path d="M220.594 16.9545H212.121V25.4278H220.594V16.9545Z" fill="white"/>
<path d="M220.594 8.48132H212.121V16.9546H220.594V8.48132Z" fill="white"/>
<path d="M220.594 0H212.121V8.48121H220.594V0Z" fill="white"/>
<path d="M212.121 177.995H203.648V186.468H212.121V177.995Z" fill="white"/>
<path d="M212.121 169.513H203.648V177.995H212.121V169.513Z" fill="white"/>
<path d="M212.121 161.04H203.648V169.513H212.121V161.04Z" fill="white"/>
<path d="M212.121 152.567H203.648V161.04H212.121V152.567Z" fill="white"/>
<path d="M212.121 144.086H203.648V152.567H212.121V144.086Z" fill="white"/>
<path d="M212.121 135.612H203.648V144.085H212.121V135.612Z" fill="white"/>
<path d="M212.121 127.139H203.648V135.612H212.121V127.139Z" fill="white"/>
<path d="M212.121 118.658H203.648V127.139H212.121V118.658Z" fill="white"/>
<path d="M212.121 110.184H203.648V118.658H212.121V110.184Z" fill="white"/>
<path d="M212.121 101.711H203.648V110.184H212.121V101.711Z" fill="white"/>
<path d="M212.121 93.2378H203.648V101.711H212.121V93.2378Z" fill="white"/>
<path d="M212.121 84.7567H203.648V93.2379H212.121V84.7567Z" fill="white"/>
<path d="M212.121 76.2833H203.648V84.7566H212.121V76.2833Z" fill="white"/>
<path d="M212.121 67.8101H203.648V76.2833H212.121V67.8101Z" fill="white"/>
<path d="M212.121 59.3289H203.648V67.8101H212.121V59.3289Z" fill="white"/>
<path d="M212.121 50.8556H203.648V59.3289H212.121V50.8556Z" fill="white"/>
<path d="M212.121 42.3822H203.648V50.8555H212.121V42.3822Z" fill="white"/>
<path d="M212.121 33.9011H203.648V42.3823H212.121V33.9011Z" fill="white"/>
<path d="M212.121 25.4277H203.648V33.901H212.121V25.4277Z" fill="white"/>
<path d="M212.121 16.9545H203.648V25.4278H212.121V16.9545Z" fill="white"/>
<path d="M212.121 8.48132H203.648V16.9546H212.121V8.48132Z" fill="white"/>
<path d="M212.121 0H203.648V8.48121H212.121V0Z" fill="white"/>
<path d="M203.648 177.995H195.167V186.468H203.648V177.995Z" fill="white"/>
<path d="M203.648 169.513H195.167V177.995H203.648V169.513Z" fill="white"/>
<path d="M203.648 161.04H195.167V169.513H203.648V161.04Z" fill="white"/>
<path d="M203.648 152.567H195.167V161.04H203.648V152.567Z" fill="white"/>
<path d="M203.648 144.086H195.167V152.567H203.648V144.086Z" fill="white"/>
<path d="M203.648 135.612H195.167V144.085H203.648V135.612Z" fill="white"/>
<path d="M203.648 127.139H195.167V135.612H203.648V127.139Z" fill="white"/>
<path d="M203.648 118.658H195.167V127.139H203.648V118.658Z" fill="white"/>
<path d="M203.648 110.184H195.167V118.658H203.648V110.184Z" fill="white"/>
<path d="M203.648 101.711H195.167V110.184H203.648V101.711Z" fill="white"/>
<path d="M203.648 93.2378H195.167V101.711H203.648V93.2378Z" fill="white"/>
<path d="M203.648 84.7567H195.167V93.2379H203.648V84.7567Z" fill="white"/>
<path d="M203.648 76.2833H195.167V84.7566H203.648V76.2833Z" fill="white"/>
<path d="M203.648 67.8101H195.167V76.2833H203.648V67.8101Z" fill="white"/>
<path d="M203.648 59.3289H195.167V67.8101H203.648V59.3289Z" fill="white"/>
<path d="M203.648 50.8556H195.167V59.3289H203.648V50.8556Z" fill="white"/>
<path d="M203.648 42.3822H195.167V50.8555H203.648V42.3822Z" fill="white"/>
<path d="M203.648 33.9011H195.167V42.3823H203.648V33.9011Z" fill="white"/>
<path d="M203.648 25.4277H195.167V33.901H203.648V25.4277Z" fill="white"/>
<path d="M203.648 16.9545H195.167V25.4278H203.648V16.9545Z" fill="white"/>
<path d="M203.648 8.48132H195.167V16.9546H203.648V8.48132Z" fill="white"/>
<path d="M203.648 0H195.167V8.48121H203.648V0Z" fill="white"/>
<path d="M195.167 177.995H186.693V186.468H195.167V177.995Z" fill="white"/>
<path d="M195.167 169.513H186.693V177.995H195.167V169.513Z" fill="white"/>
<path d="M195.167 161.04H186.693V169.513H195.167V161.04Z" fill="white"/>
<path d="M195.167 152.567H186.693V161.04H195.167V152.567Z" fill="white"/>
<path d="M195.167 144.086H186.693V152.567H195.167V144.086Z" fill="white"/>
<path d="M195.167 135.612H186.693V144.085H195.167V135.612Z" fill="white"/>
<path d="M195.167 127.139H186.693V135.612H195.167V127.139Z" fill="white"/>
<path d="M195.167 118.658H186.693V127.139H195.167V118.658Z" fill="white"/>
<path d="M195.167 110.184H186.693V118.658H195.167V110.184Z" fill="white"/>
<path d="M195.167 101.711H186.693V110.184H195.167V101.711Z" fill="white"/>
<path d="M195.167 93.2378H186.693V101.711H195.167V93.2378Z" fill="white"/>
<path d="M195.167 84.7567H186.693V93.2379H195.167V84.7567Z" fill="white"/>
<path d="M195.167 76.2833H186.693V84.7566H195.167V76.2833Z" fill="white"/>
<path d="M195.167 67.8101H186.693V76.2833H195.167V67.8101Z" fill="white"/>
<path d="M195.167 59.3289H186.693V67.8101H195.167V59.3289Z" fill="white"/>
<path d="M195.167 50.8556H186.693V59.3289H195.167V50.8556Z" fill="white"/>
<path d="M195.167 42.3822H186.693V50.8555H195.167V42.3822Z" fill="white"/>
<path d="M195.167 33.9011H186.693V42.3823H195.167V33.9011Z" fill="white"/>
<path d="M195.167 25.4277H186.693V33.901H195.167V25.4277Z" fill="white"/>
<path d="M195.167 16.9545H186.693V25.4278H195.167V16.9545Z" fill="white"/>
<path d="M195.167 8.48132H186.693V16.9546H195.167V8.48132Z" fill="white"/>
<path d="M195.167 0H186.693V8.48121H195.167V0Z" fill="white"/>
<path d="M186.693 177.995H178.22V186.468H186.693V177.995Z" fill="white"/>
<path d="M186.693 169.513H178.22V177.995H186.693V169.513Z" fill="white"/>
<path d="M186.693 161.04H178.22V169.513H186.693V161.04Z" fill="white"/>
<path d="M186.693 152.567H178.22V161.04H186.693V152.567Z" fill="white"/>
<path d="M186.693 144.086H178.22V152.567H186.693V144.086Z" fill="white"/>
<path d="M186.693 135.612H178.22V144.085H186.693V135.612Z" fill="white"/>
<path d="M186.693 127.139H178.22V135.612H186.693V127.139Z" fill="white"/>
<path d="M186.693 118.658H178.22V127.139H186.693V118.658Z" fill="white"/>
<path d="M186.693 110.184H178.22V118.658H186.693V110.184Z" fill="white"/>
<path d="M186.693 101.711H178.22V110.184H186.693V101.711Z" fill="white"/>
<path d="M186.693 93.2378H178.22V101.711H186.693V93.2378Z" fill="white"/>
<path d="M186.693 84.7567H178.22V93.2379H186.693V84.7567Z" fill="white"/>
<path d="M186.693 76.2833H178.22V84.7566H186.693V76.2833Z" fill="white"/>
<path d="M186.693 67.8101H178.22V76.2833H186.693V67.8101Z" fill="white"/>
<path d="M186.693 59.3289H178.22V67.8101H186.693V59.3289Z" fill="white"/>
<path d="M186.693 50.8556H178.22V59.3289H186.693V50.8556Z" fill="white"/>
<path d="M186.693 42.3822H178.22V50.8555H186.693V42.3822Z" fill="white"/>
<path d="M186.693 33.9011H178.22V42.3823H186.693V33.9011Z" fill="white"/>
<path d="M186.693 25.4277H178.22V33.901H186.693V25.4277Z" fill="white"/>
<path d="M186.693 16.9545H178.22V25.4278H186.693V16.9545Z" fill="white"/>
<path d="M186.693 8.48132H178.22V16.9546H186.693V8.48132Z" fill="white"/>
<path d="M186.693 0H178.22V8.48121H186.693V0Z" fill="white"/>
<path d="M178.22 177.995H169.747V186.468H178.22V177.995Z" fill="white"/>
<path d="M178.22 169.513H169.747V177.995H178.22V169.513Z" fill="white"/>
<path d="M178.22 161.04H169.747V169.513H178.22V161.04Z" fill="white"/>
<path d="M178.22 152.567H169.747V161.04H178.22V152.567Z" fill="white"/>
<path d="M178.22 144.086H169.747V152.567H178.22V144.086Z" fill="white"/>
<path d="M178.22 135.612H169.747V144.085H178.22V135.612Z" fill="white"/>
<path d="M178.22 127.139H169.747V135.612H178.22V127.139Z" fill="white"/>
<path d="M178.22 118.658H169.747V127.139H178.22V118.658Z" fill="white"/>
<path d="M178.22 110.184H169.747V118.658H178.22V110.184Z" fill="white"/>
<path d="M178.22 101.711H169.747V110.184H178.22V101.711Z" fill="white"/>
<path d="M178.22 93.2378H169.747V101.711H178.22V93.2378Z" fill="white"/>
<path d="M178.22 84.7567H169.747V93.2379H178.22V84.7567Z" fill="white"/>
<path d="M178.22 76.2833H169.747V84.7566H178.22V76.2833Z" fill="white"/>
<path d="M178.22 67.8101H169.747V76.2833H178.22V67.8101Z" fill="white"/>
<path d="M178.22 59.3289H169.747V67.8101H178.22V59.3289Z" fill="white"/>
<path d="M178.22 50.8556H169.747V59.3289H178.22V50.8556Z" fill="white"/>
<path d="M178.22 42.3822H169.747V50.8555H178.22V42.3822Z" fill="white"/>
<path d="M178.22 33.9011H169.747V42.3823H178.22V33.9011Z" fill="white"/>
<path d="M178.22 25.4277H169.747V33.901H178.22V25.4277Z" fill="white"/>
<path d="M178.22 16.9545H169.747V25.4278H178.22V16.9545Z" fill="white"/>
<path d="M178.22 8.48132H169.747V16.9546H178.22V8.48132Z" fill="white"/>
<path d="M178.22 0H169.747V8.48121H178.22V0Z" fill="white"/>
<path d="M169.747 177.995H161.266V186.468H169.747V177.995Z" fill="white"/>
<path d="M169.747 169.513H161.266V177.995H169.747V169.513Z" fill="white"/>
<path d="M169.747 161.04H161.266V169.513H169.747V161.04Z" fill="white"/>
<path d="M169.747 152.567H161.266V161.04H169.747V152.567Z" fill="white"/>
<path d="M169.747 144.086H161.266V152.567H169.747V144.086Z" fill="white"/>
<path d="M169.747 135.612H161.266V144.085H169.747V135.612Z" fill="white"/>
<path d="M169.747 127.139H161.266V135.612H169.747V127.139Z" fill="white"/>
<path d="M169.747 118.658H161.266V127.139H169.747V118.658Z" fill="white"/>
<path d="M169.747 110.184H161.266V118.658H169.747V110.184Z" fill="white"/>
<path d="M169.747 101.711H161.266V110.184H169.747V101.711Z" fill="white"/>
<path d="M169.747 93.2378H161.266V101.711H169.747V93.2378Z" fill="white"/>
<path d="M169.747 84.7567H161.266V93.2379H169.747V84.7567Z" fill="white"/>
<path d="M169.747 76.2833H161.266V84.7566H169.747V76.2833Z" fill="white"/>
<path d="M169.747 67.8101H161.266V76.2833H169.747V67.8101Z" fill="white"/>
<path d="M169.747 59.3289H161.266V67.8101H169.747V59.3289Z" fill="white"/>
<path d="M169.747 50.8556H161.266V59.3289H169.747V50.8556Z" fill="white"/>
<path d="M169.747 42.3822H161.266V50.8555H169.747V42.3822Z" fill="white"/>
<path d="M169.747 33.9011H161.266V42.3823H169.747V33.9011Z" fill="white"/>
<path d="M169.747 25.4277H161.266V33.901H169.747V25.4277Z" fill="white"/>
<path d="M169.747 16.9545H161.266V25.4278H169.747V16.9545Z" fill="white"/>
<path d="M169.747 8.48132H161.266V16.9546H169.747V8.48132Z" fill="white"/>
<path d="M169.747 0H161.266V8.48121H169.747V0Z" fill="white"/>
<path d="M161.266 177.995H152.792V186.468H161.266V177.995Z" fill="white"/>
<path d="M161.266 169.513H152.792V177.995H161.266V169.513Z" fill="white"/>
<path d="M161.266 161.04H152.792V169.513H161.266V161.04Z" fill="white"/>
<path d="M161.266 152.567H152.792V161.04H161.266V152.567Z" fill="white"/>
<path d="M161.266 144.086H152.792V152.567H161.266V144.086Z" fill="white"/>
<path d="M161.266 135.612H152.792V144.085H161.266V135.612Z" fill="white"/>
<path d="M161.266 127.139H152.792V135.612H161.266V127.139Z" fill="white"/>
<path d="M161.266 118.658H152.792V127.139H161.266V118.658Z" fill="white"/>
<path d="M161.266 110.184H152.792V118.658H161.266V110.184Z" fill="white"/>
<path d="M161.266 101.711H152.792V110.184H161.266V101.711Z" fill="white"/>
<path d="M161.266 93.2378H152.792V101.711H161.266V93.2378Z" fill="white"/>
<path d="M161.266 84.7567H152.792V93.2379H161.266V84.7567Z" fill="white"/>
<path d="M161.266 76.2833H152.792V84.7566H161.266V76.2833Z" fill="white"/>
<path d="M161.266 67.8101H152.792V76.2833H161.266V67.8101Z" fill="white"/>
<path d="M161.266 59.3289H152.792V67.8101H161.266V59.3289Z" fill="white"/>
<path d="M161.266 50.8556H152.792V59.3289H161.266V50.8556Z" fill="white"/>
<path d="M161.266 42.3822H152.792V50.8555H161.266V42.3822Z" fill="white"/>
<path d="M161.266 33.9011H152.792V42.3823H161.266V33.9011Z" fill="white"/>
<path d="M161.266 25.4277H152.792V33.901H161.266V25.4277Z" fill="white"/>
<path d="M161.266 16.9545H152.792V25.4278H161.266V16.9545Z" fill="white"/>
<path d="M161.266 8.48132H152.792V16.9546H161.266V8.48132Z" fill="white"/>
<path d="M161.266 0H152.792V8.48121H161.266V0Z" fill="white"/>
<path d="M152.792 177.995H144.319V186.468H152.792V177.995Z" fill="white"/>
<path d="M152.792 169.513H144.319V177.995H152.792V169.513Z" fill="white"/>
<path d="M152.792 161.04H144.319V169.513H152.792V161.04Z" fill="white"/>
<path d="M152.792 152.567H144.319V161.04H152.792V152.567Z" fill="white"/>
<path d="M152.792 144.086H144.319V152.567H152.792V144.086Z" fill="white"/>
<path d="M152.792 135.612H144.319V144.085H152.792V135.612Z" fill="white"/>
<path d="M152.792 127.139H144.319V135.612H152.792V127.139Z" fill="white"/>
<path d="M152.792 118.658H144.319V127.139H152.792V118.658Z" fill="white"/>
<path d="M152.792 110.184H144.319V118.658H152.792V110.184Z" fill="white"/>
<path d="M152.792 101.711H144.319V110.184H152.792V101.711Z" fill="white"/>
<path d="M152.792 93.2378H144.319V101.711H152.792V93.2378Z" fill="white"/>
<path d="M152.792 84.7567H144.319V93.2379H152.792V84.7567Z" fill="white"/>
<path d="M152.792 76.2833H144.319V84.7566H152.792V76.2833Z" fill="white"/>
<path d="M152.792 67.8101H144.319V76.2833H152.792V67.8101Z" fill="white"/>
<path d="M152.792 59.3289H144.319V67.8101H152.792V59.3289Z" fill="white"/>
<path d="M152.792 50.8556H144.319V59.3289H152.792V50.8556Z" fill="white"/>
<path d="M152.792 42.3822H144.319V50.8555H152.792V42.3822Z" fill="white"/>
<path d="M152.792 33.9011H144.319V42.3823H152.792V33.9011Z" fill="white"/>
<path d="M152.792 25.4277H144.319V33.901H152.792V25.4277Z" fill="white"/>
<path d="M152.792 16.9545H144.319V25.4278H152.792V16.9545Z" fill="white"/>
<path d="M152.792 8.48132H144.319V16.9546H152.792V8.48132Z" fill="white"/>
<path d="M152.792 0H144.319V8.48121H152.792V0Z" fill="white"/>
<path d="M144.319 177.995H135.838V186.468H144.319V177.995Z" fill="white"/>
<path d="M144.319 169.513H135.838V177.995H144.319V169.513Z" fill="white"/>
<path d="M144.319 161.04H135.838V169.513H144.319V161.04Z" fill="white"/>
<path d="M144.319 152.567H135.838V161.04H144.319V152.567Z" fill="white"/>
<path d="M144.319 144.086H135.838V152.567H144.319V144.086Z" fill="white"/>
<path d="M144.319 135.612H135.838V144.085H144.319V135.612Z" fill="white"/>
<path d="M144.319 127.139H135.838V135.612H144.319V127.139Z" fill="white"/>
<path d="M144.319 118.658H135.838V127.139H144.319V118.658Z" fill="white"/>
<path d="M144.319 110.184H135.838V118.658H144.319V110.184Z" fill="white"/>
<path d="M144.319 101.711H135.838V110.184H144.319V101.711Z" fill="white"/>
<path d="M144.319 93.2378H135.838V101.711H144.319V93.2378Z" fill="white"/>
<path d="M144.319 84.7567H135.838V93.2379H144.319V84.7567Z" fill="white"/>
<path d="M144.319 76.2833H135.838V84.7566H144.319V76.2833Z" fill="white"/>
<path d="M144.319 67.8101H135.838V76.2833H144.319V67.8101Z" fill="white"/>
<path d="M144.319 59.3289H135.838V67.8101H144.319V59.3289Z" fill="white"/>
<path d="M144.319 50.8556H135.838V59.3289H144.319V50.8556Z" fill="white"/>
<path d="M144.319 42.3822H135.838V50.8555H144.319V42.3822Z" fill="white"/>
<path d="M144.319 33.9011H135.838V42.3823H144.319V33.9011Z" fill="white"/>
<path d="M144.319 25.4277H135.838V33.901H144.319V25.4277Z" fill="white"/>
<path d="M144.319 16.9545H135.838V25.4278H144.319V16.9545Z" fill="white"/>
<path d="M144.319 8.48132H135.838V16.9546H144.319V8.48132Z" fill="white"/>
<path d="M144.319 0H135.838V8.48121H144.319V0Z" fill="white"/>
<path d="M135.838 177.995H127.365V186.468H135.838V177.995Z" fill="white"/>
<path d="M135.838 169.513H127.365V177.995H135.838V169.513Z" fill="white"/>
<path d="M135.838 161.04H127.365V169.513H135.838V161.04Z" fill="white"/>
<path d="M135.838 152.567H127.365V161.04H135.838V152.567Z" fill="white"/>
<path d="M135.838 144.086H127.365V152.567H135.838V144.086Z" fill="white"/>
<path d="M135.838 135.612H127.365V144.085H135.838V135.612Z" fill="white"/>
<path d="M135.838 127.139H127.365V135.612H135.838V127.139Z" fill="white"/>
<path d="M135.838 118.658H127.365V127.139H135.838V118.658Z" fill="white"/>
<path d="M135.838 110.184H127.365V118.658H135.838V110.184Z" fill="white"/>
<path d="M135.838 101.711H127.365V110.184H135.838V101.711Z" fill="white"/>
<path d="M135.838 93.2378H127.365V101.711H135.838V93.2378Z" fill="white"/>
<path d="M135.838 84.7567H127.365V93.2379H135.838V84.7567Z" fill="white"/>
<path d="M135.838 76.2833H127.365V84.7566H135.838V76.2833Z" fill="white"/>
<path d="M135.838 67.8101H127.365V76.2833H135.838V67.8101Z" fill="white"/>
<path d="M135.838 59.3289H127.365V67.8101H135.838V59.3289Z" fill="white"/>
<path d="M135.838 50.8556H127.365V59.3289H135.838V50.8556Z" fill="white"/>
<path d="M135.838 42.3822H127.365V50.8555H135.838V42.3822Z" fill="white"/>
<path d="M135.838 33.9011H127.365V42.3823H135.838V33.9011Z" fill="white"/>
<path d="M135.838 25.4277H127.365V33.901H135.838V25.4277Z" fill="white"/>
<path d="M135.838 16.9545H127.365V25.4278H135.838V16.9545Z" fill="white"/>
<path d="M135.838 8.48132H127.365V16.9546H135.838V8.48132Z" fill="white"/>
<path d="M135.838 0H127.365V8.48121H135.838V0Z" fill="white"/>
<path d="M127.365 177.995H118.891V186.468H127.365V177.995Z" fill="white"/>
<path d="M127.365 169.513H118.891V177.995H127.365V169.513Z" fill="white"/>
<path d="M127.365 161.04H118.891V169.513H127.365V161.04Z" fill="white"/>
<path d="M127.365 152.567H118.891V161.04H127.365V152.567Z" fill="white"/>
<path d="M127.365 144.086H118.891V152.567H127.365V144.086Z" fill="white"/>
<path d="M127.365 135.612H118.891V144.085H127.365V135.612Z" fill="white"/>
<path d="M127.365 127.139H118.891V135.612H127.365V127.139Z" fill="white"/>
<path d="M127.365 118.658H118.891V127.139H127.365V118.658Z" fill="white"/>
<path d="M127.365 110.184H118.891V118.658H127.365V110.184Z" fill="white"/>
<path d="M127.365 101.711H118.891V110.184H127.365V101.711Z" fill="white"/>
<path d="M127.365 93.2378H118.891V101.711H127.365V93.2378Z" fill="white"/>
<path d="M127.365 84.7567H118.891V93.2379H127.365V84.7567Z" fill="white"/>
<path d="M127.365 76.2833H118.891V84.7566H127.365V76.2833Z" fill="white"/>
<path d="M127.365 67.8101H118.891V76.2833H127.365V67.8101Z" fill="white"/>
<path d="M127.365 59.3289H118.891V67.8101H127.365V59.3289Z" fill="white"/>
<path d="M127.365 50.8556H118.891V59.3289H127.365V50.8556Z" fill="white"/>
<path d="M127.365 42.3822H118.891V50.8555H127.365V42.3822Z" fill="white"/>
<path d="M127.365 33.9011H118.891V42.3823H127.365V33.9011Z" fill="white"/>
<path d="M127.365 25.4277H118.891V33.901H127.365V25.4277Z" fill="white"/>
<path d="M127.365 16.9545H118.891V25.4278H127.365V16.9545Z" fill="white"/>
<path d="M127.365 8.48132H118.891V16.9546H127.365V8.48132Z" fill="white"/>
<path d="M127.365 0H118.891V8.48121H127.365V0Z" fill="white"/>
<path d="M118.891 169.513H110.41V177.995H118.891V169.513Z" fill="white"/>
<path d="M118.891 161.04H110.41V169.513H118.891V161.04Z" fill="white"/>
<path d="M118.891 152.567H110.41V161.04H118.891V152.567Z" fill="white"/>
<path d="M118.891 144.086H110.41V152.567H118.891V144.086Z" fill="white"/>
<path d="M118.891 135.612H110.41V144.085H118.891V135.612Z" fill="white"/>
<path d="M118.891 127.139H110.41V135.612H118.891V127.139Z" fill="white"/>
<path d="M118.891 118.658H110.41V127.139H118.891V118.658Z" fill="white"/>
<path d="M118.891 110.184H110.41V118.658H118.891V110.184Z" fill="white"/>
<path d="M118.891 101.711H110.41V110.184H118.891V101.711Z" fill="white"/>
<path d="M118.891 93.2378H110.41V101.711H118.891V93.2378Z" fill="white"/>
<path d="M118.891 84.7567H110.41V93.2379H118.891V84.7567Z" fill="white"/>
<path d="M118.891 76.2833H110.41V84.7566H118.891V76.2833Z" fill="white"/>
<path d="M118.891 67.8101H110.41V76.2833H118.891V67.8101Z" fill="white"/>
<path d="M118.891 59.3289H110.41V67.8101H118.891V59.3289Z" fill="white"/>
<path d="M118.891 50.8556H110.41V59.3289H118.891V50.8556Z" fill="white"/>
<path d="M118.891 42.3822H110.41V50.8555H118.891V42.3822Z" fill="white"/>
<path d="M118.891 33.9011H110.41V42.3823H118.891V33.9011Z" fill="white"/>
<path d="M118.891 25.4277H110.41V33.901H118.891V25.4277Z" fill="white"/>
<path d="M118.891 16.9545H110.41V25.4278H118.891V16.9545Z" fill="white"/>
<path d="M118.891 8.48132H110.41V16.9546H118.891V8.48132Z" fill="white"/>
<path d="M110.41 169.513H101.937V177.995H110.41V169.513Z" fill="white"/>
<path d="M110.41 161.04H101.937V169.513H110.41V161.04Z" fill="white"/>
<path d="M110.41 152.567H101.937V161.04H110.41V152.567Z" fill="white"/>
<path d="M110.41 144.086H101.937V152.567H110.41V144.086Z" fill="white"/>
<path d="M110.41 135.612H101.937V144.085H110.41V135.612Z" fill="white"/>
<path d="M110.41 127.139H101.937V135.612H110.41V127.139Z" fill="white"/>
<path d="M110.41 118.658H101.937V127.139H110.41V118.658Z" fill="white"/>
<path d="M110.41 110.184H101.937V118.658H110.41V110.184Z" fill="white"/>
<path d="M110.41 101.711H101.937V110.184H110.41V101.711Z" fill="white"/>
<path d="M110.41 93.2378H101.937V101.711H110.41V93.2378Z" fill="white"/>
<path d="M110.41 84.7567H101.937V93.2379H110.41V84.7567Z" fill="white"/>
<path d="M110.41 76.2833H101.937V84.7566H110.41V76.2833Z" fill="white"/>
<path d="M110.41 67.8101H101.937V76.2833H110.41V67.8101Z" fill="white"/>
<path d="M110.41 59.3289H101.937V67.8101H110.41V59.3289Z" fill="white"/>
<path d="M110.41 50.8556H101.937V59.3289H110.41V50.8556Z" fill="white"/>
<path d="M110.41 42.3822H101.937V50.8555H110.41V42.3822Z" fill="white"/>
<path d="M110.41 33.9011H101.937V42.3823H110.41V33.9011Z" fill="white"/>
<path d="M110.41 25.4277H101.937V33.901H110.41V25.4277Z" fill="white"/>
<path d="M110.41 16.9545H101.937V25.4278H110.41V16.9545Z" fill="white"/>
<path d="M110.41 8.48132H101.937V16.9546H110.41V8.48132Z" fill="white"/>
<path d="M101.937 169.513H93.4634V177.995H101.937V169.513Z" fill="white"/>
<path d="M101.937 161.04H93.4634V169.513H101.937V161.04Z" fill="white"/>
<path d="M101.937 152.567H93.4634V161.04H101.937V152.567Z" fill="white"/>
<path d="M101.937 144.086H93.4634V152.567H101.937V144.086Z" fill="white"/>
<path d="M101.937 135.612H93.4634V144.085H101.937V135.612Z" fill="white"/>
<path d="M101.937 127.139H93.4634V135.612H101.937V127.139Z" fill="white"/>
<path d="M101.937 118.658H93.4634V127.139H101.937V118.658Z" fill="white"/>
<path d="M101.937 110.184H93.4634V118.658H101.937V110.184Z" fill="white"/>
<path d="M101.937 101.711H93.4634V110.184H101.937V101.711Z" fill="white"/>
<path d="M101.937 93.2378H93.4634V101.711H101.937V93.2378Z" fill="white"/>
<path d="M101.937 84.7567H93.4634V93.2379H101.937V84.7567Z" fill="white"/>
<path d="M101.937 76.2833H93.4634V84.7566H101.937V76.2833Z" fill="white"/>
<path d="M101.937 67.8101H93.4634V76.2833H101.937V67.8101Z" fill="white"/>
<path d="M101.937 59.3289H93.4634V67.8101H101.937V59.3289Z" fill="white"/>
<path d="M101.937 50.8556H93.4634V59.3289H101.937V50.8556Z" fill="white"/>
<path d="M101.937 42.3822H93.4634V50.8555H101.937V42.3822Z" fill="white"/>
<path d="M101.937 33.9011H93.4634V42.3823H101.937V33.9011Z" fill="white"/>
<path d="M101.937 25.4277H93.4634V33.901H101.937V25.4277Z" fill="white"/>
<path d="M101.937 16.9545H93.4634V25.4278H101.937V16.9545Z" fill="white"/>
<path d="M101.937 8.48132H93.4634V16.9546H101.937V8.48132Z" fill="white"/>
<path d="M93.4634 169.513H84.9902V177.995H93.4634V169.513Z" fill="white"/>
<path d="M93.4634 161.04H84.9902V169.513H93.4634V161.04Z" fill="white"/>
<path d="M93.4634 152.567H84.9902V161.04H93.4634V152.567Z" fill="white"/>
<path d="M93.4634 144.086H84.9902V152.567H93.4634V144.086Z" fill="white"/>
<path d="M93.4634 135.612H84.9902V144.085H93.4634V135.612Z" fill="white"/>
<path d="M93.4634 127.139H84.9902V135.612H93.4634V127.139Z" fill="white"/>
<path d="M93.4634 118.658H84.9902V127.139H93.4634V118.658Z" fill="white"/>
<path d="M93.4634 110.184H84.9902V118.658H93.4634V110.184Z" fill="white"/>
<path d="M93.4634 101.711H84.9902V110.184H93.4634V101.711Z" fill="white"/>
<path d="M93.4634 93.2378H84.9902V101.711H93.4634V93.2378Z" fill="white"/>
<path d="M93.4634 84.7567H84.9902V93.2379H93.4634V84.7567Z" fill="white"/>
<path d="M93.4634 76.2833H84.9902V84.7566H93.4634V76.2833Z" fill="white"/>
<path d="M93.4634 67.8101H84.9902V76.2833H93.4634V67.8101Z" fill="white"/>
<path d="M93.4634 59.3289H84.9902V67.8101H93.4634V59.3289Z" fill="white"/>
<path d="M93.4634 50.8556H84.9902V59.3289H93.4634V50.8556Z" fill="white"/>
<path d="M93.4634 42.3822H84.9902V50.8555H93.4634V42.3822Z" fill="white"/>
<path d="M93.4634 33.9011H84.9902V42.3823H93.4634V33.9011Z" fill="white"/>
<path d="M93.4634 25.4277H84.9902V33.901H93.4634V25.4277Z" fill="white"/>
<path d="M93.4634 16.9545H84.9902V25.4278H93.4634V16.9545Z" fill="white"/>
<path d="M93.4634 8.48132H84.9902V16.9546H93.4634V8.48132Z" fill="white"/>
<path d="M84.9902 161.04H76.5089V169.513H84.9902V161.04Z" fill="white"/>
<path d="M84.9902 152.567H76.5089V161.04H84.9902V152.567Z" fill="white"/>
<path d="M84.9902 144.086H76.5089V152.567H84.9902V144.086Z" fill="white"/>
<path d="M84.9902 135.612H76.5089V144.085H84.9902V135.612Z" fill="white"/>
<path d="M84.9902 127.139H76.5089V135.612H84.9902V127.139Z" fill="white"/>
<path d="M84.9902 118.658H76.5089V127.139H84.9902V118.658Z" fill="white"/>
<path d="M84.9902 110.184H76.5089V118.658H84.9902V110.184Z" fill="white"/>
<path d="M84.9902 101.711H76.5089V110.184H84.9902V101.711Z" fill="white"/>
<path d="M84.9902 93.2378H76.5089V101.711H84.9902V93.2378Z" fill="white"/>
<path d="M84.9902 84.7567H76.5089V93.2379H84.9902V84.7567Z" fill="white"/>
<path d="M84.9902 76.2833H76.5089V84.7566H84.9902V76.2833Z" fill="white"/>
<path d="M84.9902 67.8101H76.5089V76.2833H84.9902V67.8101Z" fill="white"/>
<path d="M84.9902 59.3289H76.5089V67.8101H84.9902V59.3289Z" fill="white"/>
<path d="M84.9902 50.8556H76.5089V59.3289H84.9902V50.8556Z" fill="white"/>
<path d="M84.9902 42.3822H76.5089V50.8555H84.9902V42.3822Z" fill="white"/>
<path d="M84.9902 33.9011H76.5089V42.3823H84.9902V33.9011Z" fill="white"/>
<path d="M84.9902 25.4277H76.5089V33.901H84.9902V25.4277Z" fill="white"/>
<path d="M84.9902 16.9545H76.5089V25.4278H84.9902V16.9545Z" fill="white"/>
<path d="M76.509 161.04H68.0357V169.513H76.509V161.04Z" fill="white"/>
<path d="M76.509 152.567H68.0357V161.04H76.509V152.567Z" fill="white"/>
<path d="M76.509 144.086H68.0357V152.567H76.509V144.086Z" fill="white"/>
<path d="M76.509 135.612H68.0357V144.085H76.509V135.612Z" fill="white"/>
<path d="M76.509 127.139H68.0357V135.612H76.509V127.139Z" fill="white"/>
<path d="M76.509 118.658H68.0357V127.139H76.509V118.658Z" fill="white"/>
<path d="M76.509 110.184H68.0357V118.658H76.509V110.184Z" fill="white"/>
<path d="M76.509 101.711H68.0357V110.184H76.509V101.711Z" fill="white"/>
<path d="M76.509 93.2378H68.0357V101.711H76.509V93.2378Z" fill="white"/>
<path d="M76.509 84.7567H68.0357V93.2379H76.509V84.7567Z" fill="white"/>
<path d="M76.509 76.2833H68.0357V84.7566H76.509V76.2833Z" fill="white"/>
<path d="M76.509 67.8101H68.0357V76.2833H76.509V67.8101Z" fill="white"/>
<path d="M76.509 59.3289H68.0357V67.8101H76.509V59.3289Z" fill="white"/>
<path d="M76.509 50.8556H68.0357V59.3289H76.509V50.8556Z" fill="white"/>
<path d="M76.509 42.3822H68.0357V50.8555H76.509V42.3822Z" fill="white"/>
<path d="M76.509 33.9011H68.0357V42.3823H76.509V33.9011Z" fill="white"/>
<path d="M76.509 25.4277H68.0357V33.901H76.509V25.4277Z" fill="white"/>
<path d="M76.509 16.9545H68.0357V25.4278H76.509V16.9545Z" fill="white"/>
<path d="M68.0357 161.04H59.5624V169.513H68.0357V161.04Z" fill="white"/>
<path d="M68.0357 152.567H59.5624V161.04H68.0357V152.567Z" fill="white"/>
<path d="M68.0357 144.086H59.5624V152.567H68.0357V144.086Z" fill="white"/>
<path d="M68.0357 135.612H59.5624V144.085H68.0357V135.612Z" fill="white"/>
<path d="M68.0357 127.139H59.5624V135.612H68.0357V127.139Z" fill="white"/>
<path d="M68.0357 118.658H59.5624V127.139H68.0357V118.658Z" fill="white"/>
<path d="M68.0357 110.184H59.5624V118.658H68.0357V110.184Z" fill="white"/>
<path d="M68.0357 101.711H59.5624V110.184H68.0357V101.711Z" fill="white"/>
<path d="M68.0357 93.2378H59.5624V101.711H68.0357V93.2378Z" fill="white"/>
<path d="M68.0357 84.7567H59.5624V93.2379H68.0357V84.7567Z" fill="white"/>
<path d="M68.0357 76.2833H59.5624V84.7566H68.0357V76.2833Z" fill="white"/>
<path d="M68.0357 67.8101H59.5624V76.2833H68.0357V67.8101Z" fill="white"/>
<path d="M68.0357 59.3289H59.5624V67.8101H68.0357V59.3289Z" fill="white"/>
<path d="M68.0357 50.8556H59.5624V59.3289H68.0357V50.8556Z" fill="white"/>
<path d="M68.0357 42.3822H59.5624V50.8555H68.0357V42.3822Z" fill="white"/>
<path d="M68.0357 33.9011H59.5624V42.3823H68.0357V33.9011Z" fill="white"/>
<path d="M68.0357 25.4277H59.5624V33.901H68.0357V25.4277Z" fill="white"/>
<path d="M59.5624 152.567H51.0812V161.04H59.5624V152.567Z" fill="white"/>
<path d="M59.5624 144.086H51.0812V152.567H59.5624V144.086Z" fill="white"/>
<path d="M59.5624 135.612H51.0812V144.085H59.5624V135.612Z" fill="white"/>
<path d="M59.5624 127.139H51.0812V135.612H59.5624V127.139Z" fill="white"/>
<path d="M59.5624 118.658H51.0812V127.139H59.5624V118.658Z" fill="white"/>
<path d="M59.5624 110.184H51.0812V118.658H59.5624V110.184Z" fill="white"/>
<path d="M59.5624 101.711H51.0812V110.184H59.5624V101.711Z" fill="white"/>
<path d="M59.5624 93.2378H51.0812V101.711H59.5624V93.2378Z" fill="white"/>
<path d="M59.5624 84.7567H51.0812V93.2379H59.5624V84.7567Z" fill="white"/>
<path d="M59.5624 76.2833H51.0812V84.7566H59.5624V76.2833Z" fill="white"/>
<path d="M59.5624 67.8101H51.0812V76.2833H59.5624V67.8101Z" fill="white"/>
<path d="M59.5624 59.3289H51.0812V67.8101H59.5624V59.3289Z" fill="white"/>
<path d="M59.5624 50.8556H51.0812V59.3289H59.5624V50.8556Z" fill="white"/>
<path d="M59.5624 42.3822H51.0812V50.8555H59.5624V42.3822Z" fill="white"/>
<path d="M59.5624 33.9011H51.0812V42.3823H59.5624V33.9011Z" fill="white"/>
<path d="M59.5624 25.4277H51.0812V33.901H59.5624V25.4277Z" fill="white"/>
<path d="M51.0812 152.567H42.6079V161.04H51.0812V152.567Z" fill="white"/>
<path d="M51.0812 144.086H42.6079V152.567H51.0812V144.086Z" fill="white"/>
<path d="M51.0812 135.612H42.6079V144.085H51.0812V135.612Z" fill="white"/>
<path d="M51.0812 127.139H42.6079V135.612H51.0812V127.139Z" fill="white"/>
<path d="M51.0812 118.658H42.6079V127.139H51.0812V118.658Z" fill="white"/>
<path d="M51.0812 110.184H42.6079V118.658H51.0812V110.184Z" fill="white"/>
<path d="M51.0812 101.711H42.6079V110.184H51.0812V101.711Z" fill="white"/>
<path d="M51.0812 93.2378H42.6079V101.711H51.0812V93.2378Z" fill="white"/>
<path d="M51.0812 84.7567H42.6079V93.2379H51.0812V84.7567Z" fill="white"/>
<path d="M51.0812 76.2833H42.6079V84.7566H51.0812V76.2833Z" fill="white"/>
<path d="M51.0812 67.8101H42.6079V76.2833H51.0812V67.8101Z" fill="white"/>
<path d="M51.0812 59.3289H42.6079V67.8101H51.0812V59.3289Z" fill="white"/>
<path d="M51.0812 50.8556H42.6079V59.3289H51.0812V50.8556Z" fill="white"/>
<path d="M51.0812 42.3822H42.6079V50.8555H51.0812V42.3822Z" fill="white"/>
<path d="M51.0812 33.9011H42.6079V42.3823H51.0812V33.9011Z" fill="white"/>
<path d="M42.6079 144.086H34.1346V152.567H42.6079V144.086Z" fill="white"/>
<path d="M42.6079 135.612H34.1346V144.085H42.6079V135.612Z" fill="white"/>
<path d="M42.6079 127.139H34.1346V135.612H42.6079V127.139Z" fill="white"/>
<path d="M42.6079 118.658H34.1346V127.139H42.6079V118.658Z" fill="white"/>
<path d="M42.6079 110.184H34.1346V118.658H42.6079V110.184Z" fill="white"/>
<path d="M42.6079 101.711H34.1346V110.184H42.6079V101.711Z" fill="white"/>
<path d="M42.6079 93.2378H34.1346V101.711H42.6079V93.2378Z" fill="white"/>
<path d="M42.6079 84.7567H34.1346V93.2379H42.6079V84.7567Z" fill="white"/>
<path d="M42.6079 76.2833H34.1346V84.7566H42.6079V76.2833Z" fill="white"/>
<path d="M42.6079 67.8101H34.1346V76.2833H42.6079V67.8101Z" fill="white"/>
<path d="M42.6079 59.3289H34.1346V67.8101H42.6079V59.3289Z" fill="white"/>
<path d="M42.6079 50.8556H34.1346V59.3289H42.6079V50.8556Z" fill="white"/>
<path d="M42.6079 42.3822H34.1346V50.8555H42.6079V42.3822Z" fill="white"/>
<path d="M42.6079 33.9011H34.1346V42.3823H42.6079V33.9011Z" fill="white"/>
<path d="M34.1346 144.086H25.6534V152.567H34.1346V144.086Z" fill="white"/>
<path d="M34.1346 135.612H25.6534V144.085H34.1346V135.612Z" fill="white"/>
<path d="M34.1346 127.139H25.6534V135.612H34.1346V127.139Z" fill="white"/>
<path d="M34.1346 118.658H25.6534V127.139H34.1346V118.658Z" fill="white"/>
<path d="M34.1346 110.184H25.6534V118.658H34.1346V110.184Z" fill="white"/>
<path d="M34.1346 101.711H25.6534V110.184H34.1346V101.711Z" fill="white"/>
<path d="M34.1346 93.2378H25.6534V101.711H34.1346V93.2378Z" fill="white"/>
<path d="M34.1346 84.7567H25.6534V93.2379H34.1346V84.7567Z" fill="white"/>
<path d="M34.1346 76.2833H25.6534V84.7566H34.1346V76.2833Z" fill="white"/>
<path d="M34.1346 67.8101H25.6534V76.2833H34.1346V67.8101Z" fill="white"/>
<path d="M34.1346 59.3289H25.6534V67.8101H34.1346V59.3289Z" fill="white"/>
<path d="M34.1346 50.8556H25.6534V59.3289H34.1346V50.8556Z" fill="white"/>
<path d="M34.1346 42.3822H25.6534V50.8555H34.1346V42.3822Z" fill="white"/>
<path d="M25.6534 135.612H17.1801V144.085H25.6534V135.612Z" fill="white"/>
<path d="M25.6534 127.139H17.1801V135.612H25.6534V127.139Z" fill="white"/>
<path d="M25.6534 118.658H17.1801V127.139H25.6534V118.658Z" fill="white"/>
<path d="M25.6534 110.184H17.1801V118.658H25.6534V110.184Z" fill="white"/>
<path d="M25.6534 101.711H17.1801V110.184H25.6534V101.711Z" fill="white"/>
<path d="M25.6534 93.2378H17.1801V101.711H25.6534V93.2378Z" fill="white"/>
<path d="M25.6534 84.7567H17.1801V93.2379H25.6534V84.7567Z" fill="white"/>
<path d="M25.6534 76.2833H17.1801V84.7566H25.6534V76.2833Z" fill="white"/>
<path d="M25.6534 67.8101H17.1801V76.2833H25.6534V67.8101Z" fill="white"/>
<path d="M25.6534 59.3289H17.1801V67.8101H25.6534V59.3289Z" fill="white"/>
<path d="M25.6534 50.8556H17.1801V59.3289H25.6534V50.8556Z" fill="white"/>
<path d="M17.1801 127.139H8.7068V135.612H17.1801V127.139Z" fill="white"/>
<path d="M17.1801 118.658H8.7068V127.139H17.1801V118.658Z" fill="white"/>
<path d="M17.1801 110.184H8.7068V118.658H17.1801V110.184Z" fill="white"/>
<path d="M17.1801 101.711H8.7068V110.184H17.1801V101.711Z" fill="white"/>
<path d="M17.1801 93.2378H8.7068V101.711H17.1801V93.2378Z" fill="white"/>
<path d="M17.1801 84.7567H8.7068V93.2379H17.1801V84.7567Z" fill="white"/>
<path d="M17.1801 76.2833H8.7068V84.7566H17.1801V76.2833Z" fill="white"/>
<path d="M17.1801 67.8101H8.7068V76.2833H17.1801V67.8101Z" fill="white"/>
<path d="M17.1801 59.3289H8.7068V67.8101H17.1801V59.3289Z" fill="white"/>
<path d="M8.7068 110.184H0.225586V118.658H8.7068V110.184Z" fill="white"/>
<path d="M8.7068 101.711H0.225586V110.184H8.7068V101.711Z" fill="white"/>
<path d="M8.7068 93.2378H0.225586V101.711H8.7068V93.2378Z" fill="white"/>
<path d="M8.7068 84.7567H0.225586V93.2379H8.7068V84.7567Z" fill="white"/>
<path d="M8.7068 76.2833H0.225586V84.7566H8.7068V76.2833Z" fill="white"/>
</svg>
