<svg width="70" height="41" viewBox="0 0 70 41" fill="none" xmlns="http://www.w3.org/2000/svg">
<path d="M69.6123 38.9814H67.9553V40.64H69.6123V38.9814Z" fill="white"/>
<path d="M69.6123 20.7504H67.9553V22.4073H69.6123V20.7504Z" fill="white"/>
<path d="M69.6123 19.0934H67.9553V20.7503H69.6123V19.0934Z" fill="white"/>
<path d="M69.6123 17.4348H67.9553V19.0933H69.6123V17.4348Z" fill="white"/>
<path d="M69.6123 15.7778H67.9553V17.4348H69.6123V15.7778Z" fill="white"/>
<path d="M67.9555 38.9814H66.2986V40.64H67.9555V38.9814Z" fill="white"/>
<path d="M67.9555 24.0642H66.2986V25.7227H67.9555V24.0642Z" fill="white"/>
<path d="M67.9555 22.4072H66.2986V24.0642H67.9555V22.4072Z" fill="white"/>
<path d="M67.9555 20.7504H66.2986V22.4073H67.9555V20.7504Z" fill="white"/>
<path d="M67.9555 19.0934H66.2986V20.7503H67.9555V19.0934Z" fill="white"/>
<path d="M67.9555 17.4348H66.2986V19.0933H67.9555V17.4348Z" fill="white"/>
<path d="M67.9555 15.7778H66.2986V17.4348H67.9555V15.7778Z" fill="white"/>
<path d="M67.9555 14.121H66.2986V15.7779H67.9555V14.121Z" fill="white"/>
<path d="M67.9555 12.4624H66.2986V14.1209H67.9555V12.4624Z" fill="white"/>
<path d="M66.2984 38.9814H64.6399V40.64H66.2984V38.9814Z" fill="white"/>
<path d="M66.2984 25.7228H64.6399V27.3797H66.2984V25.7228Z" fill="white"/>
<path d="M66.2984 24.0642H64.6399V25.7227H66.2984V24.0642Z" fill="white"/>
<path d="M66.2984 22.4072H64.6399V24.0642H66.2984V22.4072Z" fill="white"/>
<path d="M66.2984 20.7504H64.6399V22.4073H66.2984V20.7504Z" fill="white"/>
<path d="M66.2984 19.0934H64.6399V20.7503H66.2984V19.0934Z" fill="white"/>
<path d="M66.2984 17.4348H64.6399V19.0933H66.2984V17.4348Z" fill="white"/>
<path d="M66.2984 15.7778H64.6399V17.4348H66.2984V15.7778Z" fill="white"/>
<path d="M66.2984 14.121H64.6399V15.7779H66.2984V14.121Z" fill="white"/>
<path d="M66.2984 12.4624H64.6399V14.1209H66.2984V12.4624Z" fill="white"/>
<path d="M66.2984 10.8054H64.6399V12.4624H66.2984V10.8054Z" fill="white"/>
<path d="M64.6399 38.9814H62.9829V40.64H64.6399V38.9814Z" fill="white"/>
<path d="M64.6399 37.3246H62.9829V38.9815H64.6399V37.3246Z" fill="white"/>
<path d="M64.6399 27.3796H62.9829V29.0366H64.6399V27.3796Z" fill="white"/>
<path d="M64.6399 25.7228H62.9829V27.3797H64.6399V25.7228Z" fill="white"/>
<path d="M64.6399 24.0642H62.9829V25.7227H64.6399V24.0642Z" fill="white"/>
<path d="M64.6399 22.4072H62.9829V24.0642H64.6399V22.4072Z" fill="white"/>
<path d="M64.6399 20.7504H62.9829V22.4073H64.6399V20.7504Z" fill="white"/>
<path d="M64.6399 19.0934H62.9829V20.7503H64.6399V19.0934Z" fill="white"/>
<path d="M64.6399 17.4348H62.9829V19.0933H64.6399V17.4348Z" fill="white"/>
<path d="M64.6399 15.7778H62.9829V17.4348H64.6399V15.7778Z" fill="white"/>
<path d="M64.6399 14.121H62.9829V15.7779H64.6399V14.121Z" fill="white"/>
<path d="M64.6399 12.4624H62.9829V14.1209H64.6399V12.4624Z" fill="white"/>
<path d="M64.6399 10.8054H62.9829V12.4624H64.6399V10.8054Z" fill="white"/>
<path d="M64.6399 9.14844H62.9829V10.8054H64.6399V9.14844Z" fill="white"/>
<path d="M62.9829 38.9814H61.3259V40.64H62.9829V38.9814Z" fill="white"/>
<path d="M62.9829 37.3246H61.3259V38.9815H62.9829V37.3246Z" fill="white"/>
<path d="M62.9829 29.0366H61.3259V30.6951H62.9829V29.0366Z" fill="white"/>
<path d="M62.9829 27.3796H61.3259V29.0366H62.9829V27.3796Z" fill="white"/>
<path d="M62.9829 25.7228H61.3259V27.3797H62.9829V25.7228Z" fill="white"/>
<path d="M62.9829 24.0642H61.3259V25.7227H62.9829V24.0642Z" fill="white"/>
<path d="M62.9829 22.4072H61.3259V24.0642H62.9829V22.4072Z" fill="white"/>
<path d="M62.9829 20.7504H61.3259V22.4073H62.9829V20.7504Z" fill="white"/>
<path d="M62.9829 19.0934H61.3259V20.7503H62.9829V19.0934Z" fill="white"/>
<path d="M62.9829 17.4348H61.3259V19.0933H62.9829V17.4348Z" fill="white"/>
<path d="M62.9829 15.7778H61.3259V17.4348H62.9829V15.7778Z" fill="white"/>
<path d="M62.9829 14.121H61.3259V15.7779H62.9829V14.121Z" fill="white"/>
<path d="M62.9829 12.4624H61.3259V14.1209H62.9829V12.4624Z" fill="white"/>
<path d="M62.9829 10.8054H61.3259V12.4624H62.9829V10.8054Z" fill="white"/>
<path d="M62.9829 9.14844H61.3259V10.8054H62.9829V9.14844Z" fill="white"/>
<path d="M62.9829 7.48999H61.3259V9.1485H62.9829V7.48999Z" fill="white"/>
<path d="M61.326 38.9814H59.6675V40.64H61.326V38.9814Z" fill="white"/>
<path d="M61.326 37.3246H59.6675V38.9815H61.326V37.3246Z" fill="white"/>
<path d="M61.326 30.6952H59.6675V32.3521H61.326V30.6952Z" fill="white"/>
<path d="M61.326 29.0366H59.6675V30.6951H61.326V29.0366Z" fill="white"/>
<path d="M61.326 27.3796H59.6675V29.0366H61.326V27.3796Z" fill="white"/>
<path d="M61.326 25.7228H59.6675V27.3797H61.326V25.7228Z" fill="white"/>
<path d="M61.326 24.0642H59.6675V25.7227H61.326V24.0642Z" fill="white"/>
<path d="M61.326 22.4072H59.6675V24.0642H61.326V22.4072Z" fill="white"/>
<path d="M61.326 20.7504H59.6675V22.4073H61.326V20.7504Z" fill="white"/>
<path d="M61.326 19.0934H59.6675V20.7503H61.326V19.0934Z" fill="white"/>
<path d="M61.326 17.4348H59.6675V19.0933H61.326V17.4348Z" fill="white"/>
<path d="M61.326 15.7778H59.6675V17.4348H61.326V15.7778Z" fill="white"/>
<path d="M61.326 14.121H59.6675V15.7779H61.326V14.121Z" fill="white"/>
<path d="M61.326 12.4624H59.6675V14.1209H61.326V12.4624Z" fill="white"/>
<path d="M61.326 10.8054H59.6675V12.4624H61.326V10.8054Z" fill="white"/>
<path d="M61.326 9.14844H59.6675V10.8054H61.326V9.14844Z" fill="white"/>
<path d="M61.326 7.48999H59.6675V9.1485H61.326V7.48999Z" fill="white"/>
<path d="M61.326 5.83301H59.6675V7.48997H61.326V5.83301Z" fill="white"/>
<path d="M59.6675 37.3246H58.0105V38.9815H59.6675V37.3246Z" fill="white"/>
<path d="M59.6675 35.6676H58.0105V37.3246H59.6675V35.6676Z" fill="white"/>
<path d="M59.6675 30.6952H58.0105V32.3521H59.6675V30.6952Z" fill="white"/>
<path d="M59.6675 29.0366H58.0105V30.6951H59.6675V29.0366Z" fill="white"/>
<path d="M59.6675 27.3796H58.0105V29.0366H59.6675V27.3796Z" fill="white"/>
<path d="M59.6675 25.7228H58.0105V27.3797H59.6675V25.7228Z" fill="white"/>
<path d="M59.6675 24.0642H58.0105V25.7227H59.6675V24.0642Z" fill="white"/>
<path d="M59.6675 22.4072H58.0105V24.0642H59.6675V22.4072Z" fill="white"/>
<path d="M59.6675 20.7504H58.0105V22.4073H59.6675V20.7504Z" fill="white"/>
<path d="M59.6675 19.0934H58.0105V20.7503H59.6675V19.0934Z" fill="white"/>
<path d="M59.6675 17.4348H58.0105V19.0933H59.6675V17.4348Z" fill="white"/>
<path d="M59.6675 15.7778H58.0105V17.4348H59.6675V15.7778Z" fill="white"/>
<path d="M59.6675 14.121H58.0105V15.7779H59.6675V14.121Z" fill="white"/>
<path d="M59.6675 12.4624H58.0105V14.1209H59.6675V12.4624Z" fill="white"/>
<path d="M59.6675 10.8054H58.0105V12.4624H59.6675V10.8054Z" fill="white"/>
<path d="M59.6675 9.14844H58.0105V10.8054H59.6675V9.14844Z" fill="white"/>
<path d="M59.6675 7.48999H58.0105V9.1485H59.6675V7.48999Z" fill="white"/>
<path d="M59.6675 5.83301H58.0105V7.48997H59.6675V5.83301Z" fill="white"/>
<path d="M58.0107 37.3246H56.3538V38.9815H58.0107V37.3246Z" fill="white"/>
<path d="M58.0107 35.6676H56.3538V37.3246H58.0107V35.6676Z" fill="white"/>
<path d="M58.0107 34.009H56.3538V35.6675H58.0107V34.009Z" fill="white"/>
<path d="M58.0107 32.3522H56.3538V34.0091H58.0107V32.3522Z" fill="white"/>
<path d="M58.0107 30.6952H56.3538V32.3521H58.0107V30.6952Z" fill="white"/>
<path d="M58.0107 29.0366H56.3538V30.6951H58.0107V29.0366Z" fill="white"/>
<path d="M58.0107 27.3796H56.3538V29.0366H58.0107V27.3796Z" fill="white"/>
<path d="M58.0107 25.7228H56.3538V27.3797H58.0107V25.7228Z" fill="white"/>
<path d="M58.0107 24.0642H56.3538V25.7227H58.0107V24.0642Z" fill="white"/>
<path d="M58.0107 22.4072H56.3538V24.0642H58.0107V22.4072Z" fill="white"/>
<path d="M58.0107 20.7504H56.3538V22.4073H58.0107V20.7504Z" fill="white"/>
<path d="M58.0107 19.0934H56.3538V20.7503H58.0107V19.0934Z" fill="white"/>
<path d="M58.0107 17.4348H56.3538V19.0933H58.0107V17.4348Z" fill="white"/>
<path d="M58.0107 15.7778H56.3538V17.4348H58.0107V15.7778Z" fill="white"/>
<path d="M58.0107 14.121H56.3538V15.7779H58.0107V14.121Z" fill="white"/>
<path d="M58.0107 12.4624H56.3538V14.1209H58.0107V12.4624Z" fill="white"/>
<path d="M58.0107 10.8054H56.3538V12.4624H58.0107V10.8054Z" fill="white"/>
<path d="M58.0107 9.14844H56.3538V10.8054H58.0107V9.14844Z" fill="white"/>
<path d="M58.0107 7.48999H56.3538V9.1485H58.0107V7.48999Z" fill="white"/>
<path d="M58.0107 5.83301H56.3538V7.48997H58.0107V5.83301Z" fill="white"/>
<path d="M58.0107 4.17603H56.3538V5.83298H58.0107V4.17603Z" fill="white"/>
<path d="M56.3535 37.3246H54.6965V38.9815H56.3535V37.3246Z" fill="white"/>
<path d="M56.3535 35.6676H54.6965V37.3246H56.3535V35.6676Z" fill="white"/>
<path d="M56.3535 34.009H54.6965V35.6675H56.3535V34.009Z" fill="white"/>
<path d="M56.3535 32.3522H54.6965V34.0091H56.3535V32.3522Z" fill="white"/>
<path d="M56.3535 30.6952H54.6965V32.3521H56.3535V30.6952Z" fill="white"/>
<path d="M56.3535 29.0366H54.6965V30.6951H56.3535V29.0366Z" fill="white"/>
<path d="M56.3535 27.3796H54.6965V29.0366H56.3535V27.3796Z" fill="white"/>
<path d="M56.3535 25.7228H54.6965V27.3797H56.3535V25.7228Z" fill="white"/>
<path d="M56.3535 24.0642H54.6965V25.7227H56.3535V24.0642Z" fill="white"/>
<path d="M56.3535 22.4072H54.6965V24.0642H56.3535V22.4072Z" fill="white"/>
<path d="M56.3535 20.7504H54.6965V22.4073H56.3535V20.7504Z" fill="white"/>
<path d="M56.3535 19.0934H54.6965V20.7503H56.3535V19.0934Z" fill="white"/>
<path d="M56.3535 17.4348H54.6965V19.0933H56.3535V17.4348Z" fill="white"/>
<path d="M56.3535 15.7778H54.6965V17.4348H56.3535V15.7778Z" fill="white"/>
<path d="M56.3535 14.121H54.6965V15.7779H56.3535V14.121Z" fill="white"/>
<path d="M56.3535 12.4624H54.6965V14.1209H56.3535V12.4624Z" fill="white"/>
<path d="M56.3535 10.8054H54.6965V12.4624H56.3535V10.8054Z" fill="white"/>
<path d="M56.3535 9.14844H54.6965V10.8054H56.3535V9.14844Z" fill="white"/>
<path d="M56.3535 7.48999H54.6965V9.1485H56.3535V7.48999Z" fill="white"/>
<path d="M56.3535 5.83301H54.6965V7.48997H56.3535V5.83301Z" fill="white"/>
<path d="M56.3535 4.17603H54.6965V5.83298H56.3535V4.17603Z" fill="white"/>
<path d="M54.6966 35.6676H53.0381V37.3246H54.6966V35.6676Z" fill="white"/>
<path d="M54.6966 34.009H53.0381V35.6675H54.6966V34.009Z" fill="white"/>
<path d="M54.6966 32.3522H53.0381V34.0091H54.6966V32.3522Z" fill="white"/>
<path d="M54.6966 30.6952H53.0381V32.3521H54.6966V30.6952Z" fill="white"/>
<path d="M54.6966 29.0366H53.0381V30.6951H54.6966V29.0366Z" fill="white"/>
<path d="M54.6966 27.3796H53.0381V29.0366H54.6966V27.3796Z" fill="white"/>
<path d="M54.6966 25.7228H53.0381V27.3797H54.6966V25.7228Z" fill="white"/>
<path d="M54.6966 24.0642H53.0381V25.7227H54.6966V24.0642Z" fill="white"/>
<path d="M54.6966 22.4072H53.0381V24.0642H54.6966V22.4072Z" fill="white"/>
<path d="M54.6966 20.7504H53.0381V22.4073H54.6966V20.7504Z" fill="white"/>
<path d="M54.6966 19.0934H53.0381V20.7503H54.6966V19.0934Z" fill="white"/>
<path d="M54.6966 17.4348H53.0381V19.0933H54.6966V17.4348Z" fill="white"/>
<path d="M54.6966 15.7778H53.0381V17.4348H54.6966V15.7778Z" fill="white"/>
<path d="M54.6966 14.121H53.0381V15.7779H54.6966V14.121Z" fill="white"/>
<path d="M54.6966 12.4624H53.0381V14.1209H54.6966V12.4624Z" fill="white"/>
<path d="M54.6966 10.8054H53.0381V12.4624H54.6966V10.8054Z" fill="white"/>
<path d="M54.6966 9.14844H53.0381V10.8054H54.6966V9.14844Z" fill="white"/>
<path d="M54.6966 7.48999H53.0381V9.1485H54.6966V7.48999Z" fill="white"/>
<path d="M54.6966 5.83301H53.0381V7.48997H54.6966V5.83301Z" fill="white"/>
<path d="M54.6966 4.17603H53.0381V5.83298H54.6966V4.17603Z" fill="white"/>
<path d="M53.0381 34.009H51.3811V35.6675H53.0381V34.009Z" fill="white"/>
<path d="M53.0381 32.3522H51.3811V34.0091H53.0381V32.3522Z" fill="white"/>
<path d="M53.0381 30.6952H51.3811V32.3521H53.0381V30.6952Z" fill="white"/>
<path d="M53.0381 29.0366H51.3811V30.6951H53.0381V29.0366Z" fill="white"/>
<path d="M53.0381 27.3796H51.3811V29.0366H53.0381V27.3796Z" fill="white"/>
<path d="M53.0381 25.7228H51.3811V27.3797H53.0381V25.7228Z" fill="white"/>
<path d="M53.0381 24.0642H51.3811V25.7227H53.0381V24.0642Z" fill="white"/>
<path d="M53.0381 22.4072H51.3811V24.0642H53.0381V22.4072Z" fill="white"/>
<path d="M53.0381 20.7504H51.3811V22.4073H53.0381V20.7504Z" fill="white"/>
<path d="M53.0381 19.0934H51.3811V20.7503H53.0381V19.0934Z" fill="white"/>
<path d="M53.0381 17.4348H51.3811V19.0933H53.0381V17.4348Z" fill="white"/>
<path d="M53.0381 15.7778H51.3811V17.4348H53.0381V15.7778Z" fill="white"/>
<path d="M53.0381 14.121H51.3811V15.7779H53.0381V14.121Z" fill="white"/>
<path d="M53.0381 12.4624H51.3811V14.1209H53.0381V12.4624Z" fill="white"/>
<path d="M53.0381 10.8054H51.3811V12.4624H53.0381V10.8054Z" fill="white"/>
<path d="M53.0381 9.14844H51.3811V10.8054H53.0381V9.14844Z" fill="white"/>
<path d="M53.0381 7.48999H51.3811V9.1485H53.0381V7.48999Z" fill="white"/>
<path d="M53.0381 5.83301H51.3811V7.48997H53.0381V5.83301Z" fill="white"/>
<path d="M53.0381 4.17603H51.3811V5.83298H53.0381V4.17603Z" fill="white"/>
<path d="M53.0381 2.51917H51.3811V4.17612H53.0381V2.51917Z" fill="white"/>
<path d="M51.3813 34.009H49.7244V35.6675H51.3813V34.009Z" fill="white"/>
<path d="M51.3813 32.3522H49.7244V34.0091H51.3813V32.3522Z" fill="white"/>
<path d="M51.3813 30.6952H49.7244V32.3521H51.3813V30.6952Z" fill="white"/>
<path d="M51.3813 29.0366H49.7244V30.6951H51.3813V29.0366Z" fill="white"/>
<path d="M51.3813 27.3796H49.7244V29.0366H51.3813V27.3796Z" fill="white"/>
<path d="M51.3813 25.7228H49.7244V27.3797H51.3813V25.7228Z" fill="white"/>
<path d="M51.3813 24.0642H49.7244V25.7227H51.3813V24.0642Z" fill="white"/>
<path d="M51.3813 22.4072H49.7244V24.0642H51.3813V22.4072Z" fill="white"/>
<path d="M51.3813 20.7504H49.7244V22.4073H51.3813V20.7504Z" fill="white"/>
<path d="M51.3813 19.0934H49.7244V20.7503H51.3813V19.0934Z" fill="white"/>
<path d="M51.3813 17.4348H49.7244V19.0933H51.3813V17.4348Z" fill="white"/>
<path d="M51.3813 15.7778H49.7244V17.4348H51.3813V15.7778Z" fill="white"/>
<path d="M51.3813 14.121H49.7244V15.7779H51.3813V14.121Z" fill="white"/>
<path d="M51.3813 12.4624H49.7244V14.1209H51.3813V12.4624Z" fill="white"/>
<path d="M51.3813 10.8054H49.7244V12.4624H51.3813V10.8054Z" fill="white"/>
<path d="M51.3813 9.14844H49.7244V10.8054H51.3813V9.14844Z" fill="white"/>
<path d="M51.3813 7.48999H49.7244V9.1485H51.3813V7.48999Z" fill="white"/>
<path d="M51.3813 5.83301H49.7244V7.48997H51.3813V5.83301Z" fill="white"/>
<path d="M51.3813 4.17603H49.7244V5.83298H51.3813V4.17603Z" fill="white"/>
<path d="M51.3813 2.51917H49.7244V4.17612H51.3813V2.51917Z" fill="white"/>
<path d="M49.7242 34.009H48.0657V35.6675H49.7242V34.009Z" fill="white"/>
<path d="M49.7242 32.3522H48.0657V34.0091H49.7242V32.3522Z" fill="white"/>
<path d="M49.7242 30.6952H48.0657V32.3521H49.7242V30.6952Z" fill="white"/>
<path d="M49.7242 29.0366H48.0657V30.6951H49.7242V29.0366Z" fill="white"/>
<path d="M49.7242 27.3796H48.0657V29.0366H49.7242V27.3796Z" fill="white"/>
<path d="M49.7242 25.7228H48.0657V27.3797H49.7242V25.7228Z" fill="white"/>
<path d="M49.7242 24.0642H48.0657V25.7227H49.7242V24.0642Z" fill="white"/>
<path d="M49.7242 22.4072H48.0657V24.0642H49.7242V22.4072Z" fill="white"/>
<path d="M49.7242 20.7504H48.0657V22.4073H49.7242V20.7504Z" fill="white"/>
<path d="M49.7242 19.0934H48.0657V20.7503H49.7242V19.0934Z" fill="white"/>
<path d="M49.7242 17.4348H48.0657V19.0933H49.7242V17.4348Z" fill="white"/>
<path d="M49.7242 15.7778H48.0657V17.4348H49.7242V15.7778Z" fill="white"/>
<path d="M49.7242 14.121H48.0657V15.7779H49.7242V14.121Z" fill="white"/>
<path d="M49.7242 12.4624H48.0657V14.1209H49.7242V12.4624Z" fill="white"/>
<path d="M49.7242 10.8054H48.0657V12.4624H49.7242V10.8054Z" fill="white"/>
<path d="M49.7242 9.14844H48.0657V10.8054H49.7242V9.14844Z" fill="white"/>
<path d="M49.7242 7.48999H48.0657V9.1485H49.7242V7.48999Z" fill="white"/>
<path d="M49.7242 5.83301H48.0657V7.48997H49.7242V5.83301Z" fill="white"/>
<path d="M49.7242 4.17603H48.0657V5.83298H49.7242V4.17603Z" fill="white"/>
<path d="M49.7242 2.51917H48.0657V4.17612H49.7242V2.51917Z" fill="white"/>
<path d="M48.0657 35.6676H46.4087V37.3246H48.0657V35.6676Z" fill="white"/>
<path d="M48.0657 34.009H46.4087V35.6675H48.0657V34.009Z" fill="white"/>
<path d="M48.0657 32.3522H46.4087V34.0091H48.0657V32.3522Z" fill="white"/>
<path d="M48.0657 30.6952H46.4087V32.3521H48.0657V30.6952Z" fill="white"/>
<path d="M48.0657 29.0366H46.4087V30.6951H48.0657V29.0366Z" fill="white"/>
<path d="M48.0657 27.3796H46.4087V29.0366H48.0657V27.3796Z" fill="white"/>
<path d="M48.0657 25.7228H46.4087V27.3797H48.0657V25.7228Z" fill="white"/>
<path d="M48.0657 24.0642H46.4087V25.7227H48.0657V24.0642Z" fill="white"/>
<path d="M48.0657 22.4072H46.4087V24.0642H48.0657V22.4072Z" fill="white"/>
<path d="M48.0657 20.7504H46.4087V22.4073H48.0657V20.7504Z" fill="white"/>
<path d="M48.0657 19.0934H46.4087V20.7503H48.0657V19.0934Z" fill="white"/>
<path d="M48.0657 17.4348H46.4087V19.0933H48.0657V17.4348Z" fill="white"/>
<path d="M48.0657 15.7778H46.4087V17.4348H48.0657V15.7778Z" fill="white"/>
<path d="M48.0657 14.121H46.4087V15.7779H48.0657V14.121Z" fill="white"/>
<path d="M48.0657 12.4624H46.4087V14.1209H48.0657V12.4624Z" fill="white"/>
<path d="M48.0657 10.8054H46.4087V12.4624H48.0657V10.8054Z" fill="white"/>
<path d="M48.0657 9.14844H46.4087V10.8054H48.0657V9.14844Z" fill="white"/>
<path d="M48.0657 7.48999H46.4087V9.1485H48.0657V7.48999Z" fill="white"/>
<path d="M48.0657 5.83301H46.4087V7.48997H48.0657V5.83301Z" fill="white"/>
<path d="M48.0657 4.17603H46.4087V5.83298H48.0657V4.17603Z" fill="white"/>
<path d="M48.0657 2.51917H46.4087V4.17612H48.0657V2.51917Z" fill="white"/>
<path d="M46.4087 35.6676H44.7517V37.3246H46.4087V35.6676Z" fill="white"/>
<path d="M46.4087 34.009H44.7517V35.6675H46.4087V34.009Z" fill="white"/>
<path d="M46.4087 32.3522H44.7517V34.0091H46.4087V32.3522Z" fill="white"/>
<path d="M46.4087 30.6952H44.7517V32.3521H46.4087V30.6952Z" fill="white"/>
<path d="M46.4087 29.0366H44.7517V30.6951H46.4087V29.0366Z" fill="white"/>
<path d="M46.4087 27.3796H44.7517V29.0366H46.4087V27.3796Z" fill="white"/>
<path d="M46.4087 25.7228H44.7517V27.3797H46.4087V25.7228Z" fill="white"/>
<path d="M46.4087 24.0642H44.7517V25.7227H46.4087V24.0642Z" fill="white"/>
<path d="M46.4087 22.4072H44.7517V24.0642H46.4087V22.4072Z" fill="white"/>
<path d="M46.4087 20.7504H44.7517V22.4073H46.4087V20.7504Z" fill="white"/>
<path d="M46.4087 19.0934H44.7517V20.7503H46.4087V19.0934Z" fill="white"/>
<path d="M46.4087 17.4348H44.7517V19.0933H46.4087V17.4348Z" fill="white"/>
<path d="M46.4087 15.7778H44.7517V17.4348H46.4087V15.7778Z" fill="white"/>
<path d="M46.4087 14.121H44.7517V15.7779H46.4087V14.121Z" fill="white"/>
<path d="M46.4087 12.4624H44.7517V14.1209H46.4087V12.4624Z" fill="white"/>
<path d="M46.4087 10.8054H44.7517V12.4624H46.4087V10.8054Z" fill="white"/>
<path d="M46.4087 9.14844H44.7517V10.8054H46.4087V9.14844Z" fill="white"/>
<path d="M46.4087 7.48999H44.7517V9.1485H46.4087V7.48999Z" fill="white"/>
<path d="M46.4087 5.83301H44.7517V7.48997H46.4087V5.83301Z" fill="white"/>
<path d="M46.4087 4.17603H44.7517V5.83298H46.4087V4.17603Z" fill="white"/>
<path d="M46.4087 2.51917H44.7517V4.17612H46.4087V2.51917Z" fill="white"/>
<path d="M46.4087 0.860596H44.7517V2.5191H46.4087V0.860596Z" fill="white"/>
<path d="M44.7518 35.6676H43.0933V37.3246H44.7518V35.6676Z" fill="white"/>
<path d="M44.7518 34.009H43.0933V35.6675H44.7518V34.009Z" fill="white"/>
<path d="M44.7518 32.3522H43.0933V34.0091H44.7518V32.3522Z" fill="white"/>
<path d="M44.7518 30.6952H43.0933V32.3521H44.7518V30.6952Z" fill="white"/>
<path d="M44.7518 29.0366H43.0933V30.6951H44.7518V29.0366Z" fill="white"/>
<path d="M44.7518 27.3796H43.0933V29.0366H44.7518V27.3796Z" fill="white"/>
<path d="M44.7518 25.7228H43.0933V27.3797H44.7518V25.7228Z" fill="white"/>
<path d="M44.7518 24.0642H43.0933V25.7227H44.7518V24.0642Z" fill="white"/>
<path d="M44.7518 22.4072H43.0933V24.0642H44.7518V22.4072Z" fill="white"/>
<path d="M44.7518 20.7504H43.0933V22.4073H44.7518V20.7504Z" fill="white"/>
<path d="M44.7518 19.0934H43.0933V20.7503H44.7518V19.0934Z" fill="white"/>
<path d="M44.7518 17.4348H43.0933V19.0933H44.7518V17.4348Z" fill="white"/>
<path d="M44.7518 15.7778H43.0933V17.4348H44.7518V15.7778Z" fill="white"/>
<path d="M44.7518 14.121H43.0933V15.7779H44.7518V14.121Z" fill="white"/>
<path d="M44.7518 12.4624H43.0933V14.1209H44.7518V12.4624Z" fill="white"/>
<path d="M44.7518 10.8054H43.0933V12.4624H44.7518V10.8054Z" fill="white"/>
<path d="M44.7518 9.14844H43.0933V10.8054H44.7518V9.14844Z" fill="white"/>
<path d="M44.7518 7.48999H43.0933V9.1485H44.7518V7.48999Z" fill="white"/>
<path d="M44.7518 5.83301H43.0933V7.48997H44.7518V5.83301Z" fill="white"/>
<path d="M44.7518 4.17603H43.0933V5.83298H44.7518V4.17603Z" fill="white"/>
<path d="M44.7518 2.51917H43.0933V4.17612H44.7518V2.51917Z" fill="white"/>
<path d="M44.7518 0.860596H43.0933V2.5191H44.7518V0.860596Z" fill="white"/>
<path d="M43.0932 35.6676H41.4363V37.3246H43.0932V35.6676Z" fill="white"/>
<path d="M43.0932 34.009H41.4363V35.6675H43.0932V34.009Z" fill="white"/>
<path d="M43.0932 32.3522H41.4363V34.0091H43.0932V32.3522Z" fill="white"/>
<path d="M43.0932 30.6952H41.4363V32.3521H43.0932V30.6952Z" fill="white"/>
<path d="M43.0932 29.0366H41.4363V30.6951H43.0932V29.0366Z" fill="white"/>
<path d="M43.0932 27.3796H41.4363V29.0366H43.0932V27.3796Z" fill="white"/>
<path d="M43.0932 25.7228H41.4363V27.3797H43.0932V25.7228Z" fill="white"/>
<path d="M43.0932 24.0642H41.4363V25.7227H43.0932V24.0642Z" fill="white"/>
<path d="M43.0932 22.4072H41.4363V24.0642H43.0932V22.4072Z" fill="white"/>
<path d="M43.0932 20.7504H41.4363V22.4073H43.0932V20.7504Z" fill="white"/>
<path d="M43.0932 19.0934H41.4363V20.7503H43.0932V19.0934Z" fill="white"/>
<path d="M43.0932 17.4348H41.4363V19.0933H43.0932V17.4348Z" fill="white"/>
<path d="M43.0932 15.7778H41.4363V17.4348H43.0932V15.7778Z" fill="white"/>
<path d="M43.0932 14.121H41.4363V15.7779H43.0932V14.121Z" fill="white"/>
<path d="M43.0932 12.4624H41.4363V14.1209H43.0932V12.4624Z" fill="white"/>
<path d="M43.0932 10.8054H41.4363V12.4624H43.0932V10.8054Z" fill="white"/>
<path d="M43.0932 9.14844H41.4363V10.8054H43.0932V9.14844Z" fill="white"/>
<path d="M43.0932 7.48999H41.4363V9.1485H43.0932V7.48999Z" fill="white"/>
<path d="M43.0932 5.83301H41.4363V7.48997H43.0932V5.83301Z" fill="white"/>
<path d="M43.0932 4.17603H41.4363V5.83298H43.0932V4.17603Z" fill="white"/>
<path d="M43.0932 2.51917H41.4363V4.17612H43.0932V2.51917Z" fill="white"/>
<path d="M43.0932 0.860596H41.4363V2.5191H43.0932V0.860596Z" fill="white"/>
<path d="M41.4365 35.6676H39.7795V37.3246H41.4365V35.6676Z" fill="white"/>
<path d="M41.4365 34.009H39.7795V35.6675H41.4365V34.009Z" fill="white"/>
<path d="M41.4365 32.3522H39.7795V34.0091H41.4365V32.3522Z" fill="white"/>
<path d="M41.4365 30.6952H39.7795V32.3521H41.4365V30.6952Z" fill="white"/>
<path d="M41.4365 29.0366H39.7795V30.6951H41.4365V29.0366Z" fill="white"/>
<path d="M41.4365 27.3796H39.7795V29.0366H41.4365V27.3796Z" fill="white"/>
<path d="M41.4365 25.7228H39.7795V27.3797H41.4365V25.7228Z" fill="white"/>
<path d="M41.4365 24.0642H39.7795V25.7227H41.4365V24.0642Z" fill="white"/>
<path d="M41.4365 22.4072H39.7795V24.0642H41.4365V22.4072Z" fill="white"/>
<path d="M41.4365 20.7504H39.7795V22.4073H41.4365V20.7504Z" fill="white"/>
<path d="M41.4365 19.0934H39.7795V20.7503H41.4365V19.0934Z" fill="white"/>
<path d="M41.4365 17.4348H39.7795V19.0933H41.4365V17.4348Z" fill="white"/>
<path d="M41.4365 15.7778H39.7795V17.4348H41.4365V15.7778Z" fill="white"/>
<path d="M41.4365 14.121H39.7795V15.7779H41.4365V14.121Z" fill="white"/>
<path d="M41.4365 12.4624H39.7795V14.1209H41.4365V12.4624Z" fill="white"/>
<path d="M41.4365 10.8054H39.7795V12.4624H41.4365V10.8054Z" fill="white"/>
<path d="M41.4365 9.14844H39.7795V10.8054H41.4365V9.14844Z" fill="white"/>
<path d="M41.4365 7.48999H39.7795V9.1485H41.4365V7.48999Z" fill="white"/>
<path d="M41.4365 5.83301H39.7795V7.48997H41.4365V5.83301Z" fill="white"/>
<path d="M41.4365 4.17603H39.7795V5.83298H41.4365V4.17603Z" fill="white"/>
<path d="M41.4365 2.51917H39.7795V4.17612H41.4365V2.51917Z" fill="white"/>
<path d="M41.4365 0.860596H39.7795V2.5191H41.4365V0.860596Z" fill="white"/>
<path d="M39.7794 35.6676H38.1208V37.3246H39.7794V35.6676Z" fill="white"/>
<path d="M39.7794 34.009H38.1208V35.6675H39.7794V34.009Z" fill="white"/>
<path d="M39.7794 32.3522H38.1208V34.0091H39.7794V32.3522Z" fill="white"/>
<path d="M39.7794 30.6952H38.1208V32.3521H39.7794V30.6952Z" fill="white"/>
<path d="M39.7794 29.0366H38.1208V30.6951H39.7794V29.0366Z" fill="white"/>
<path d="M39.7794 27.3796H38.1208V29.0366H39.7794V27.3796Z" fill="white"/>
<path d="M39.7794 25.7228H38.1208V27.3797H39.7794V25.7228Z" fill="white"/>
<path d="M39.7794 24.0642H38.1208V25.7227H39.7794V24.0642Z" fill="white"/>
<path d="M39.7794 22.4072H38.1208V24.0642H39.7794V22.4072Z" fill="white"/>
<path d="M39.7794 20.7504H38.1208V22.4073H39.7794V20.7504Z" fill="white"/>
<path d="M39.7794 19.0934H38.1208V20.7503H39.7794V19.0934Z" fill="white"/>
<path d="M39.7794 17.4348H38.1208V19.0933H39.7794V17.4348Z" fill="white"/>
<path d="M39.7794 15.7778H38.1208V17.4348H39.7794V15.7778Z" fill="white"/>
<path d="M39.7794 14.121H38.1208V15.7779H39.7794V14.121Z" fill="white"/>
<path d="M39.7794 12.4624H38.1208V14.1209H39.7794V12.4624Z" fill="white"/>
<path d="M39.7794 10.8054H38.1208V12.4624H39.7794V10.8054Z" fill="white"/>
<path d="M39.7794 9.14844H38.1208V10.8054H39.7794V9.14844Z" fill="white"/>
<path d="M39.7794 7.48999H38.1208V9.1485H39.7794V7.48999Z" fill="white"/>
<path d="M39.7794 5.83301H38.1208V7.48997H39.7794V5.83301Z" fill="white"/>
<path d="M39.7794 4.17603H38.1208V5.83298H39.7794V4.17603Z" fill="white"/>
<path d="M39.7794 2.51917H38.1208V4.17612H39.7794V2.51917Z" fill="white"/>
<path d="M39.7794 0.860596H38.1208V2.5191H39.7794V0.860596Z" fill="white"/>
<path d="M38.1208 35.6676H36.4639V37.3246H38.1208V35.6676Z" fill="white"/>
<path d="M38.1208 34.009H36.4639V35.6675H38.1208V34.009Z" fill="white"/>
<path d="M38.1208 32.3522H36.4639V34.0091H38.1208V32.3522Z" fill="white"/>
<path d="M38.1208 30.6952H36.4639V32.3521H38.1208V30.6952Z" fill="white"/>
<path d="M38.1208 29.0366H36.4639V30.6951H38.1208V29.0366Z" fill="white"/>
<path d="M38.1208 27.3796H36.4639V29.0366H38.1208V27.3796Z" fill="white"/>
<path d="M38.1208 25.7228H36.4639V27.3797H38.1208V25.7228Z" fill="white"/>
<path d="M38.1208 24.0642H36.4639V25.7227H38.1208V24.0642Z" fill="white"/>
<path d="M38.1208 22.4072H36.4639V24.0642H38.1208V22.4072Z" fill="white"/>
<path d="M38.1208 20.7504H36.4639V22.4073H38.1208V20.7504Z" fill="white"/>
<path d="M38.1208 19.0934H36.4639V20.7503H38.1208V19.0934Z" fill="white"/>
<path d="M38.1208 17.4348H36.4639V19.0933H38.1208V17.4348Z" fill="white"/>
<path d="M38.1208 15.7778H36.4639V17.4348H38.1208V15.7778Z" fill="white"/>
<path d="M38.1208 14.121H36.4639V15.7779H38.1208V14.121Z" fill="white"/>
<path d="M38.1208 12.4624H36.4639V14.1209H38.1208V12.4624Z" fill="white"/>
<path d="M38.1208 10.8054H36.4639V12.4624H38.1208V10.8054Z" fill="white"/>
<path d="M38.1208 9.14844H36.4639V10.8054H38.1208V9.14844Z" fill="white"/>
<path d="M38.1208 7.48999H36.4639V9.1485H38.1208V7.48999Z" fill="white"/>
<path d="M38.1208 5.83301H36.4639V7.48997H38.1208V5.83301Z" fill="white"/>
<path d="M38.1208 4.17603H36.4639V5.83298H38.1208V4.17603Z" fill="white"/>
<path d="M38.1208 2.51917H36.4639V4.17612H38.1208V2.51917Z" fill="white"/>
<path d="M38.1208 0.860596H36.4639V2.5191H38.1208V0.860596Z" fill="white"/>
<path d="M36.4638 35.6676H34.8069V37.3246H36.4638V35.6676Z" fill="white"/>
<path d="M36.4638 34.009H34.8069V35.6675H36.4638V34.009Z" fill="white"/>
<path d="M36.4638 32.3522H34.8069V34.0091H36.4638V32.3522Z" fill="white"/>
<path d="M36.4638 30.6952H34.8069V32.3521H36.4638V30.6952Z" fill="white"/>
<path d="M36.4638 29.0366H34.8069V30.6951H36.4638V29.0366Z" fill="white"/>
<path d="M36.4638 27.3796H34.8069V29.0366H36.4638V27.3796Z" fill="white"/>
<path d="M36.4638 25.7228H34.8069V27.3797H36.4638V25.7228Z" fill="white"/>
<path d="M36.4638 24.0642H34.8069V25.7227H36.4638V24.0642Z" fill="white"/>
<path d="M36.4638 22.4072H34.8069V24.0642H36.4638V22.4072Z" fill="white"/>
<path d="M36.4638 20.7504H34.8069V22.4073H36.4638V20.7504Z" fill="white"/>
<path d="M36.4638 19.0934H34.8069V20.7503H36.4638V19.0934Z" fill="white"/>
<path d="M36.4638 17.4348H34.8069V19.0933H36.4638V17.4348Z" fill="white"/>
<path d="M36.4638 15.7778H34.8069V17.4348H36.4638V15.7778Z" fill="white"/>
<path d="M36.4638 14.121H34.8069V15.7779H36.4638V14.121Z" fill="white"/>
<path d="M36.4638 12.4624H34.8069V14.1209H36.4638V12.4624Z" fill="white"/>
<path d="M36.4638 10.8054H34.8069V12.4624H36.4638V10.8054Z" fill="white"/>
<path d="M36.4638 9.14844H34.8069V10.8054H36.4638V9.14844Z" fill="white"/>
<path d="M36.4638 7.48999H34.8069V9.1485H36.4638V7.48999Z" fill="white"/>
<path d="M36.4638 5.83301H34.8069V7.48997H36.4638V5.83301Z" fill="white"/>
<path d="M36.4638 4.17603H34.8069V5.83298H36.4638V4.17603Z" fill="white"/>
<path d="M36.4638 2.51917H34.8069V4.17612H36.4638V2.51917Z" fill="white"/>
<path d="M36.4638 0.860596H34.8069V2.5191H36.4638V0.860596Z" fill="white"/>
<path d="M34.8071 35.6676H33.1501V37.3246H34.8071V35.6676Z" fill="white"/>
<path d="M34.8071 34.009H33.1501V35.6675H34.8071V34.009Z" fill="white"/>
<path d="M34.8071 32.3522H33.1501V34.0091H34.8071V32.3522Z" fill="white"/>
<path d="M34.8071 30.6952H33.1501V32.3521H34.8071V30.6952Z" fill="white"/>
<path d="M34.8071 29.0366H33.1501V30.6951H34.8071V29.0366Z" fill="white"/>
<path d="M34.8071 27.3796H33.1501V29.0366H34.8071V27.3796Z" fill="white"/>
<path d="M34.8071 25.7228H33.1501V27.3797H34.8071V25.7228Z" fill="white"/>
<path d="M34.8071 24.0642H33.1501V25.7227H34.8071V24.0642Z" fill="white"/>
<path d="M34.8071 22.4072H33.1501V24.0642H34.8071V22.4072Z" fill="white"/>
<path d="M34.8071 20.7504H33.1501V22.4073H34.8071V20.7504Z" fill="white"/>
<path d="M34.8071 19.0934H33.1501V20.7503H34.8071V19.0934Z" fill="white"/>
<path d="M34.8071 17.4348H33.1501V19.0933H34.8071V17.4348Z" fill="white"/>
<path d="M34.8071 15.7778H33.1501V17.4348H34.8071V15.7778Z" fill="white"/>
<path d="M34.8071 14.121H33.1501V15.7779H34.8071V14.121Z" fill="white"/>
<path d="M34.8071 12.4624H33.1501V14.1209H34.8071V12.4624Z" fill="white"/>
<path d="M34.8071 10.8054H33.1501V12.4624H34.8071V10.8054Z" fill="white"/>
<path d="M34.8071 9.14844H33.1501V10.8054H34.8071V9.14844Z" fill="white"/>
<path d="M34.8071 7.48999H33.1501V9.1485H34.8071V7.48999Z" fill="white"/>
<path d="M34.8071 5.83301H33.1501V7.48997H34.8071V5.83301Z" fill="white"/>
<path d="M34.8071 4.17603H33.1501V5.83298H34.8071V4.17603Z" fill="white"/>
<path d="M34.8071 2.51917H33.1501V4.17612H34.8071V2.51917Z" fill="white"/>
<path d="M34.8071 0.860596H33.1501V2.5191H34.8071V0.860596Z" fill="white"/>
<path d="M33.15 35.6676H31.4915V37.3246H33.15V35.6676Z" fill="white"/>
<path d="M33.15 34.009H31.4915V35.6675H33.15V34.009Z" fill="white"/>
<path d="M33.15 32.3522H31.4915V34.0091H33.15V32.3522Z" fill="white"/>
<path d="M33.15 30.6952H31.4915V32.3521H33.15V30.6952Z" fill="white"/>
<path d="M33.15 29.0366H31.4915V30.6951H33.15V29.0366Z" fill="white"/>
<path d="M33.15 27.3796H31.4915V29.0366H33.15V27.3796Z" fill="white"/>
<path d="M33.15 25.7228H31.4915V27.3797H33.15V25.7228Z" fill="white"/>
<path d="M33.15 24.0642H31.4915V25.7227H33.15V24.0642Z" fill="white"/>
<path d="M33.15 22.4072H31.4915V24.0642H33.15V22.4072Z" fill="white"/>
<path d="M33.15 20.7504H31.4915V22.4073H33.15V20.7504Z" fill="white"/>
<path d="M33.15 19.0934H31.4915V20.7503H33.15V19.0934Z" fill="white"/>
<path d="M33.15 17.4348H31.4915V19.0933H33.15V17.4348Z" fill="white"/>
<path d="M33.15 15.7778H31.4915V17.4348H33.15V15.7778Z" fill="white"/>
<path d="M33.15 14.121H31.4915V15.7779H33.15V14.121Z" fill="white"/>
<path d="M33.15 12.4624H31.4915V14.1209H33.15V12.4624Z" fill="white"/>
<path d="M33.15 10.8054H31.4915V12.4624H33.15V10.8054Z" fill="white"/>
<path d="M33.15 9.14844H31.4915V10.8054H33.15V9.14844Z" fill="white"/>
<path d="M33.15 7.48999H31.4915V9.1485H33.15V7.48999Z" fill="white"/>
<path d="M33.15 5.83301H31.4915V7.48997H33.15V5.83301Z" fill="white"/>
<path d="M33.15 4.17603H31.4915V5.83298H33.15V4.17603Z" fill="white"/>
<path d="M33.15 2.51917H31.4915V4.17612H33.15V2.51917Z" fill="white"/>
<path d="M33.15 0.860596H31.4915V2.5191H33.15V0.860596Z" fill="white"/>
<path d="M31.4914 35.6676H29.8345V37.3246H31.4914V35.6676Z" fill="white"/>
<path d="M31.4914 34.009H29.8345V35.6675H31.4914V34.009Z" fill="white"/>
<path d="M31.4914 32.3522H29.8345V34.0091H31.4914V32.3522Z" fill="white"/>
<path d="M31.4914 30.6952H29.8345V32.3521H31.4914V30.6952Z" fill="white"/>
<path d="M31.4914 29.0366H29.8345V30.6951H31.4914V29.0366Z" fill="white"/>
<path d="M31.4914 27.3796H29.8345V29.0366H31.4914V27.3796Z" fill="white"/>
<path d="M31.4914 25.7228H29.8345V27.3797H31.4914V25.7228Z" fill="white"/>
<path d="M31.4914 24.0642H29.8345V25.7227H31.4914V24.0642Z" fill="white"/>
<path d="M31.4914 22.4072H29.8345V24.0642H31.4914V22.4072Z" fill="white"/>
<path d="M31.4914 20.7504H29.8345V22.4073H31.4914V20.7504Z" fill="white"/>
<path d="M31.4914 19.0934H29.8345V20.7503H31.4914V19.0934Z" fill="white"/>
<path d="M31.4914 17.4348H29.8345V19.0933H31.4914V17.4348Z" fill="white"/>
<path d="M31.4914 15.7778H29.8345V17.4348H31.4914V15.7778Z" fill="white"/>
<path d="M31.4914 14.121H29.8345V15.7779H31.4914V14.121Z" fill="white"/>
<path d="M31.4914 12.4624H29.8345V14.1209H31.4914V12.4624Z" fill="white"/>
<path d="M31.4914 10.8054H29.8345V12.4624H31.4914V10.8054Z" fill="white"/>
<path d="M31.4914 9.14844H29.8345V10.8054H31.4914V9.14844Z" fill="white"/>
<path d="M31.4914 7.48999H29.8345V9.1485H31.4914V7.48999Z" fill="white"/>
<path d="M31.4914 5.83301H29.8345V7.48997H31.4914V5.83301Z" fill="white"/>
<path d="M31.4914 4.17603H29.8345V5.83298H31.4914V4.17603Z" fill="white"/>
<path d="M31.4914 2.51917H29.8345V4.17612H31.4914V2.51917Z" fill="white"/>
<path d="M31.4914 0.860596H29.8345V2.5191H31.4914V0.860596Z" fill="white"/>
<path d="M29.8344 35.6676H28.1775V37.3246H29.8344V35.6676Z" fill="white"/>
<path d="M29.8344 34.009H28.1775V35.6675H29.8344V34.009Z" fill="white"/>
<path d="M29.8344 32.3522H28.1775V34.0091H29.8344V32.3522Z" fill="white"/>
<path d="M29.8344 30.6952H28.1775V32.3521H29.8344V30.6952Z" fill="white"/>
<path d="M29.8344 29.0366H28.1775V30.6951H29.8344V29.0366Z" fill="white"/>
<path d="M29.8344 27.3796H28.1775V29.0366H29.8344V27.3796Z" fill="white"/>
<path d="M29.8344 25.7228H28.1775V27.3797H29.8344V25.7228Z" fill="white"/>
<path d="M29.8344 24.0642H28.1775V25.7227H29.8344V24.0642Z" fill="white"/>
<path d="M29.8344 22.4072H28.1775V24.0642H29.8344V22.4072Z" fill="white"/>
<path d="M29.8344 20.7504H28.1775V22.4073H29.8344V20.7504Z" fill="white"/>
<path d="M29.8344 19.0934H28.1775V20.7503H29.8344V19.0934Z" fill="white"/>
<path d="M29.8344 17.4348H28.1775V19.0933H29.8344V17.4348Z" fill="white"/>
<path d="M29.8344 15.7778H28.1775V17.4348H29.8344V15.7778Z" fill="white"/>
<path d="M29.8344 14.121H28.1775V15.7779H29.8344V14.121Z" fill="white"/>
<path d="M29.8344 12.4624H28.1775V14.1209H29.8344V12.4624Z" fill="white"/>
<path d="M29.8344 10.8054H28.1775V12.4624H29.8344V10.8054Z" fill="white"/>
<path d="M29.8344 9.14844H28.1775V10.8054H29.8344V9.14844Z" fill="white"/>
<path d="M29.8344 7.48999H28.1775V9.1485H29.8344V7.48999Z" fill="white"/>
<path d="M29.8344 5.83301H28.1775V7.48997H29.8344V5.83301Z" fill="white"/>
<path d="M29.8344 4.17603H28.1775V5.83298H29.8344V4.17603Z" fill="white"/>
<path d="M29.8344 2.51917H28.1775V4.17612H29.8344V2.51917Z" fill="white"/>
<path d="M29.8344 0.860596H28.1775V2.5191H29.8344V0.860596Z" fill="white"/>
<path d="M28.1776 35.6676H26.519V37.3246H28.1776V35.6676Z" fill="white"/>
<path d="M28.1776 34.009H26.519V35.6675H28.1776V34.009Z" fill="white"/>
<path d="M28.1776 32.3522H26.519V34.0091H28.1776V32.3522Z" fill="white"/>
<path d="M28.1776 30.6952H26.519V32.3521H28.1776V30.6952Z" fill="white"/>
<path d="M28.1776 29.0366H26.519V30.6951H28.1776V29.0366Z" fill="white"/>
<path d="M28.1776 27.3796H26.519V29.0366H28.1776V27.3796Z" fill="white"/>
<path d="M28.1776 25.7228H26.519V27.3797H28.1776V25.7228Z" fill="white"/>
<path d="M28.1776 24.0642H26.519V25.7227H28.1776V24.0642Z" fill="white"/>
<path d="M28.1776 22.4072H26.519V24.0642H28.1776V22.4072Z" fill="white"/>
<path d="M28.1776 20.7504H26.519V22.4073H28.1776V20.7504Z" fill="white"/>
<path d="M28.1776 19.0934H26.519V20.7503H28.1776V19.0934Z" fill="white"/>
<path d="M28.1776 17.4348H26.519V19.0933H28.1776V17.4348Z" fill="white"/>
<path d="M28.1776 15.7778H26.519V17.4348H28.1776V15.7778Z" fill="white"/>
<path d="M28.1776 14.121H26.519V15.7779H28.1776V14.121Z" fill="white"/>
<path d="M28.1776 12.4624H26.519V14.1209H28.1776V12.4624Z" fill="white"/>
<path d="M28.1776 10.8054H26.519V12.4624H28.1776V10.8054Z" fill="white"/>
<path d="M28.1776 9.14844H26.519V10.8054H28.1776V9.14844Z" fill="white"/>
<path d="M28.1776 7.48999H26.519V9.1485H28.1776V7.48999Z" fill="white"/>
<path d="M28.1776 5.83301H26.519V7.48997H28.1776V5.83301Z" fill="white"/>
<path d="M28.1776 4.17603H26.519V5.83298H28.1776V4.17603Z" fill="white"/>
<path d="M28.1776 2.51917H26.519V4.17612H28.1776V2.51917Z" fill="white"/>
<path d="M28.1776 0.860596H26.519V2.5191H28.1776V0.860596Z" fill="white"/>
<path d="M26.519 35.6676H24.8621V37.3246H26.519V35.6676Z" fill="white"/>
<path d="M26.519 34.009H24.8621V35.6675H26.519V34.009Z" fill="white"/>
<path d="M26.519 32.3522H24.8621V34.0091H26.519V32.3522Z" fill="white"/>
<path d="M26.519 30.6952H24.8621V32.3521H26.519V30.6952Z" fill="white"/>
<path d="M26.519 29.0366H24.8621V30.6951H26.519V29.0366Z" fill="white"/>
<path d="M26.519 27.3796H24.8621V29.0366H26.519V27.3796Z" fill="white"/>
<path d="M26.519 25.7228H24.8621V27.3797H26.519V25.7228Z" fill="white"/>
<path d="M26.519 24.0642H24.8621V25.7227H26.519V24.0642Z" fill="white"/>
<path d="M26.519 22.4072H24.8621V24.0642H26.519V22.4072Z" fill="white"/>
<path d="M26.519 20.7504H24.8621V22.4073H26.519V20.7504Z" fill="white"/>
<path d="M26.519 19.0934H24.8621V20.7503H26.519V19.0934Z" fill="white"/>
<path d="M26.519 17.4348H24.8621V19.0933H26.519V17.4348Z" fill="white"/>
<path d="M26.519 15.7778H24.8621V17.4348H26.519V15.7778Z" fill="white"/>
<path d="M26.519 14.121H24.8621V15.7779H26.519V14.121Z" fill="white"/>
<path d="M26.519 12.4624H24.8621V14.1209H26.519V12.4624Z" fill="white"/>
<path d="M26.519 10.8054H24.8621V12.4624H26.519V10.8054Z" fill="white"/>
<path d="M26.519 9.14844H24.8621V10.8054H26.519V9.14844Z" fill="white"/>
<path d="M26.519 7.48999H24.8621V9.1485H26.519V7.48999Z" fill="white"/>
<path d="M26.519 5.83301H24.8621V7.48997H26.519V5.83301Z" fill="white"/>
<path d="M26.519 4.17603H24.8621V5.83298H26.519V4.17603Z" fill="white"/>
<path d="M26.519 2.51917H24.8621V4.17612H26.519V2.51917Z" fill="white"/>
<path d="M26.519 0.860596H24.8621V2.5191H26.519V0.860596Z" fill="white"/>
<path d="M24.862 35.6676H23.2051V37.3246H24.862V35.6676Z" fill="white"/>
<path d="M24.862 34.009H23.2051V35.6675H24.862V34.009Z" fill="white"/>
<path d="M24.862 32.3522H23.2051V34.0091H24.862V32.3522Z" fill="white"/>
<path d="M24.862 30.6952H23.2051V32.3521H24.862V30.6952Z" fill="white"/>
<path d="M24.862 29.0366H23.2051V30.6951H24.862V29.0366Z" fill="white"/>
<path d="M24.862 27.3796H23.2051V29.0366H24.862V27.3796Z" fill="white"/>
<path d="M24.862 25.7228H23.2051V27.3797H24.862V25.7228Z" fill="white"/>
<path d="M24.862 24.0642H23.2051V25.7227H24.862V24.0642Z" fill="white"/>
<path d="M24.862 22.4072H23.2051V24.0642H24.862V22.4072Z" fill="white"/>
<path d="M24.862 20.7504H23.2051V22.4073H24.862V20.7504Z" fill="white"/>
<path d="M24.862 19.0934H23.2051V20.7503H24.862V19.0934Z" fill="white"/>
<path d="M24.862 17.4348H23.2051V19.0933H24.862V17.4348Z" fill="white"/>
<path d="M24.862 15.7778H23.2051V17.4348H24.862V15.7778Z" fill="white"/>
<path d="M24.862 14.121H23.2051V15.7779H24.862V14.121Z" fill="white"/>
<path d="M24.862 12.4624H23.2051V14.1209H24.862V12.4624Z" fill="white"/>
<path d="M24.862 10.8054H23.2051V12.4624H24.862V10.8054Z" fill="white"/>
<path d="M24.862 9.14844H23.2051V10.8054H24.862V9.14844Z" fill="white"/>
<path d="M24.862 7.48999H23.2051V9.1485H24.862V7.48999Z" fill="white"/>
<path d="M24.862 5.83301H23.2051V7.48997H24.862V5.83301Z" fill="white"/>
<path d="M24.862 4.17603H23.2051V5.83298H24.862V4.17603Z" fill="white"/>
<path d="M24.862 2.51917H23.2051V4.17612H24.862V2.51917Z" fill="white"/>
<path d="M24.862 0.860596H23.2051V2.5191H24.862V0.860596Z" fill="white"/>
<path d="M23.2051 34.009H21.5466V35.6675H23.2051V34.009Z" fill="white"/>
<path d="M23.2051 32.3522H21.5466V34.0091H23.2051V32.3522Z" fill="white"/>
<path d="M23.2051 30.6952H21.5466V32.3521H23.2051V30.6952Z" fill="white"/>
<path d="M23.2051 29.0366H21.5466V30.6951H23.2051V29.0366Z" fill="white"/>
<path d="M23.2051 27.3796H21.5466V29.0366H23.2051V27.3796Z" fill="white"/>
<path d="M23.2051 25.7228H21.5466V27.3797H23.2051V25.7228Z" fill="white"/>
<path d="M23.2051 24.0642H21.5466V25.7227H23.2051V24.0642Z" fill="white"/>
<path d="M23.2051 22.4072H21.5466V24.0642H23.2051V22.4072Z" fill="white"/>
<path d="M23.2051 20.7504H21.5466V22.4073H23.2051V20.7504Z" fill="white"/>
<path d="M23.2051 19.0934H21.5466V20.7503H23.2051V19.0934Z" fill="white"/>
<path d="M23.2051 17.4348H21.5466V19.0933H23.2051V17.4348Z" fill="white"/>
<path d="M23.2051 15.7778H21.5466V17.4348H23.2051V15.7778Z" fill="white"/>
<path d="M23.2051 14.121H21.5466V15.7779H23.2051V14.121Z" fill="white"/>
<path d="M23.2051 12.4624H21.5466V14.1209H23.2051V12.4624Z" fill="white"/>
<path d="M23.2051 10.8054H21.5466V12.4624H23.2051V10.8054Z" fill="white"/>
<path d="M23.2051 9.14844H21.5466V10.8054H23.2051V9.14844Z" fill="white"/>
<path d="M23.2051 7.48999H21.5466V9.1485H23.2051V7.48999Z" fill="white"/>
<path d="M23.2051 5.83301H21.5466V7.48997H23.2051V5.83301Z" fill="white"/>
<path d="M23.2051 4.17603H21.5466V5.83298H23.2051V4.17603Z" fill="white"/>
<path d="M23.2051 2.51917H21.5466V4.17612H23.2051V2.51917Z" fill="white"/>
<path d="M21.5466 34.009H19.8896V35.6675H21.5466V34.009Z" fill="white"/>
<path d="M21.5466 32.3522H19.8896V34.0091H21.5466V32.3522Z" fill="white"/>
<path d="M21.5466 30.6952H19.8896V32.3521H21.5466V30.6952Z" fill="white"/>
<path d="M21.5466 29.0366H19.8896V30.6951H21.5466V29.0366Z" fill="white"/>
<path d="M21.5466 27.3796H19.8896V29.0366H21.5466V27.3796Z" fill="white"/>
<path d="M21.5466 25.7228H19.8896V27.3797H21.5466V25.7228Z" fill="white"/>
<path d="M21.5466 24.0642H19.8896V25.7227H21.5466V24.0642Z" fill="white"/>
<path d="M21.5466 22.4072H19.8896V24.0642H21.5466V22.4072Z" fill="white"/>
<path d="M21.5466 20.7504H19.8896V22.4073H21.5466V20.7504Z" fill="white"/>
<path d="M21.5466 19.0934H19.8896V20.7503H21.5466V19.0934Z" fill="white"/>
<path d="M21.5466 17.4348H19.8896V19.0933H21.5466V17.4348Z" fill="white"/>
<path d="M21.5466 15.7778H19.8896V17.4348H21.5466V15.7778Z" fill="white"/>
<path d="M21.5466 14.121H19.8896V15.7779H21.5466V14.121Z" fill="white"/>
<path d="M21.5466 12.4624H19.8896V14.1209H21.5466V12.4624Z" fill="white"/>
<path d="M21.5466 10.8054H19.8896V12.4624H21.5466V10.8054Z" fill="white"/>
<path d="M21.5466 9.14844H19.8896V10.8054H21.5466V9.14844Z" fill="white"/>
<path d="M21.5466 7.48999H19.8896V9.1485H21.5466V7.48999Z" fill="white"/>
<path d="M21.5466 5.83301H19.8896V7.48997H21.5466V5.83301Z" fill="white"/>
<path d="M21.5466 4.17603H19.8896V5.83298H21.5466V4.17603Z" fill="white"/>
<path d="M21.5466 2.51917H19.8896V4.17612H21.5466V2.51917Z" fill="white"/>
<path d="M19.8896 34.009H18.2327V35.6675H19.8896V34.009Z" fill="white"/>
<path d="M19.8896 32.3522H18.2327V34.0091H19.8896V32.3522Z" fill="white"/>
<path d="M19.8896 30.6952H18.2327V32.3521H19.8896V30.6952Z" fill="white"/>
<path d="M19.8896 29.0366H18.2327V30.6951H19.8896V29.0366Z" fill="white"/>
<path d="M19.8896 27.3796H18.2327V29.0366H19.8896V27.3796Z" fill="white"/>
<path d="M19.8896 25.7228H18.2327V27.3797H19.8896V25.7228Z" fill="white"/>
<path d="M19.8896 24.0642H18.2327V25.7227H19.8896V24.0642Z" fill="white"/>
<path d="M19.8896 22.4072H18.2327V24.0642H19.8896V22.4072Z" fill="white"/>
<path d="M19.8896 20.7504H18.2327V22.4073H19.8896V20.7504Z" fill="white"/>
<path d="M19.8896 19.0934H18.2327V20.7503H19.8896V19.0934Z" fill="white"/>
<path d="M19.8896 17.4348H18.2327V19.0933H19.8896V17.4348Z" fill="white"/>
<path d="M19.8896 15.7778H18.2327V17.4348H19.8896V15.7778Z" fill="white"/>
<path d="M19.8896 14.121H18.2327V15.7779H19.8896V14.121Z" fill="white"/>
<path d="M19.8896 12.4624H18.2327V14.1209H19.8896V12.4624Z" fill="white"/>
<path d="M19.8896 10.8054H18.2327V12.4624H19.8896V10.8054Z" fill="white"/>
<path d="M19.8896 9.14844H18.2327V10.8054H19.8896V9.14844Z" fill="white"/>
<path d="M19.8896 7.48999H18.2327V9.1485H19.8896V7.48999Z" fill="white"/>
<path d="M19.8896 5.83301H18.2327V7.48997H19.8896V5.83301Z" fill="white"/>
<path d="M19.8896 4.17603H18.2327V5.83298H19.8896V4.17603Z" fill="white"/>
<path d="M19.8896 2.51917H18.2327V4.17612H19.8896V2.51917Z" fill="white"/>
<path d="M18.2326 34.009H16.5757V35.6675H18.2326V34.009Z" fill="white"/>
<path d="M18.2326 32.3522H16.5757V34.0091H18.2326V32.3522Z" fill="white"/>
<path d="M18.2326 30.6952H16.5757V32.3521H18.2326V30.6952Z" fill="white"/>
<path d="M18.2326 29.0366H16.5757V30.6951H18.2326V29.0366Z" fill="white"/>
<path d="M18.2326 27.3796H16.5757V29.0366H18.2326V27.3796Z" fill="white"/>
<path d="M18.2326 25.7228H16.5757V27.3797H18.2326V25.7228Z" fill="white"/>
<path d="M18.2326 24.0642H16.5757V25.7227H18.2326V24.0642Z" fill="white"/>
<path d="M18.2326 22.4072H16.5757V24.0642H18.2326V22.4072Z" fill="white"/>
<path d="M18.2326 20.7504H16.5757V22.4073H18.2326V20.7504Z" fill="white"/>
<path d="M18.2326 19.0934H16.5757V20.7503H18.2326V19.0934Z" fill="white"/>
<path d="M18.2326 17.4348H16.5757V19.0933H18.2326V17.4348Z" fill="white"/>
<path d="M18.2326 15.7778H16.5757V17.4348H18.2326V15.7778Z" fill="white"/>
<path d="M18.2326 14.121H16.5757V15.7779H18.2326V14.121Z" fill="white"/>
<path d="M18.2326 12.4624H16.5757V14.1209H18.2326V12.4624Z" fill="white"/>
<path d="M18.2326 10.8054H16.5757V12.4624H18.2326V10.8054Z" fill="white"/>
<path d="M18.2326 9.14844H16.5757V10.8054H18.2326V9.14844Z" fill="white"/>
<path d="M18.2326 7.48999H16.5757V9.1485H18.2326V7.48999Z" fill="white"/>
<path d="M18.2326 5.83301H16.5757V7.48997H18.2326V5.83301Z" fill="white"/>
<path d="M18.2326 4.17603H16.5757V5.83298H18.2326V4.17603Z" fill="white"/>
<path d="M18.2326 2.51917H16.5757V4.17612H18.2326V2.51917Z" fill="white"/>
<path d="M16.5757 32.3522H14.9172V34.0091H16.5757V32.3522Z" fill="white"/>
<path d="M16.5757 30.6952H14.9172V32.3521H16.5757V30.6952Z" fill="white"/>
<path d="M16.5757 29.0366H14.9172V30.6951H16.5757V29.0366Z" fill="white"/>
<path d="M16.5757 27.3796H14.9172V29.0366H16.5757V27.3796Z" fill="white"/>
<path d="M16.5757 25.7228H14.9172V27.3797H16.5757V25.7228Z" fill="white"/>
<path d="M16.5757 24.0642H14.9172V25.7227H16.5757V24.0642Z" fill="white"/>
<path d="M16.5757 22.4072H14.9172V24.0642H16.5757V22.4072Z" fill="white"/>
<path d="M16.5757 20.7504H14.9172V22.4073H16.5757V20.7504Z" fill="white"/>
<path d="M16.5757 19.0934H14.9172V20.7503H16.5757V19.0934Z" fill="white"/>
<path d="M16.5757 17.4348H14.9172V19.0933H16.5757V17.4348Z" fill="white"/>
<path d="M16.5757 15.7778H14.9172V17.4348H16.5757V15.7778Z" fill="white"/>
<path d="M16.5757 14.121H14.9172V15.7779H16.5757V14.121Z" fill="white"/>
<path d="M16.5757 12.4624H14.9172V14.1209H16.5757V12.4624Z" fill="white"/>
<path d="M16.5757 10.8054H14.9172V12.4624H16.5757V10.8054Z" fill="white"/>
<path d="M16.5757 9.14844H14.9172V10.8054H16.5757V9.14844Z" fill="white"/>
<path d="M16.5757 7.48999H14.9172V9.1485H16.5757V7.48999Z" fill="white"/>
<path d="M16.5757 5.83301H14.9172V7.48997H16.5757V5.83301Z" fill="white"/>
<path d="M16.5757 4.17603H14.9172V5.83298H16.5757V4.17603Z" fill="white"/>
<path d="M14.9172 32.3522H13.2603V34.0091H14.9172V32.3522Z" fill="white"/>
<path d="M14.9172 30.6952H13.2603V32.3521H14.9172V30.6952Z" fill="white"/>
<path d="M14.9172 29.0366H13.2603V30.6951H14.9172V29.0366Z" fill="white"/>
<path d="M14.9172 27.3796H13.2603V29.0366H14.9172V27.3796Z" fill="white"/>
<path d="M14.9172 25.7228H13.2603V27.3797H14.9172V25.7228Z" fill="white"/>
<path d="M14.9172 24.0642H13.2603V25.7227H14.9172V24.0642Z" fill="white"/>
<path d="M14.9172 22.4072H13.2603V24.0642H14.9172V22.4072Z" fill="white"/>
<path d="M14.9172 20.7504H13.2603V22.4073H14.9172V20.7504Z" fill="white"/>
<path d="M14.9172 19.0934H13.2603V20.7503H14.9172V19.0934Z" fill="white"/>
<path d="M14.9172 17.4348H13.2603V19.0933H14.9172V17.4348Z" fill="white"/>
<path d="M14.9172 15.7778H13.2603V17.4348H14.9172V15.7778Z" fill="white"/>
<path d="M14.9172 14.121H13.2603V15.7779H14.9172V14.121Z" fill="white"/>
<path d="M14.9172 12.4624H13.2603V14.1209H14.9172V12.4624Z" fill="white"/>
<path d="M14.9172 10.8054H13.2603V12.4624H14.9172V10.8054Z" fill="white"/>
<path d="M14.9172 9.14844H13.2603V10.8054H14.9172V9.14844Z" fill="white"/>
<path d="M14.9172 7.48999H13.2603V9.1485H14.9172V7.48999Z" fill="white"/>
<path d="M14.9172 5.83301H13.2603V7.48997H14.9172V5.83301Z" fill="white"/>
<path d="M14.9172 4.17603H13.2603V5.83298H14.9172V4.17603Z" fill="white"/>
<path d="M13.2602 32.3522H11.6033V34.0091H13.2602V32.3522Z" fill="white"/>
<path d="M13.2602 30.6952H11.6033V32.3521H13.2602V30.6952Z" fill="white"/>
<path d="M13.2602 29.0366H11.6033V30.6951H13.2602V29.0366Z" fill="white"/>
<path d="M13.2602 27.3796H11.6033V29.0366H13.2602V27.3796Z" fill="white"/>
<path d="M13.2602 25.7228H11.6033V27.3797H13.2602V25.7228Z" fill="white"/>
<path d="M13.2602 24.0642H11.6033V25.7227H13.2602V24.0642Z" fill="white"/>
<path d="M13.2602 22.4072H11.6033V24.0642H13.2602V22.4072Z" fill="white"/>
<path d="M13.2602 20.7504H11.6033V22.4073H13.2602V20.7504Z" fill="white"/>
<path d="M13.2602 19.0934H11.6033V20.7503H13.2602V19.0934Z" fill="white"/>
<path d="M13.2602 17.4348H11.6033V19.0933H13.2602V17.4348Z" fill="white"/>
<path d="M13.2602 15.7778H11.6033V17.4348H13.2602V15.7778Z" fill="white"/>
<path d="M13.2602 14.121H11.6033V15.7779H13.2602V14.121Z" fill="white"/>
<path d="M13.2602 12.4624H11.6033V14.1209H13.2602V12.4624Z" fill="white"/>
<path d="M13.2602 10.8054H11.6033V12.4624H13.2602V10.8054Z" fill="white"/>
<path d="M13.2602 9.14844H11.6033V10.8054H13.2602V9.14844Z" fill="white"/>
<path d="M13.2602 7.48999H11.6033V9.1485H13.2602V7.48999Z" fill="white"/>
<path d="M13.2602 5.83301H11.6033V7.48997H13.2602V5.83301Z" fill="white"/>
<path d="M11.6033 30.6952H9.94482V32.3521H11.6033V30.6952Z" fill="white"/>
<path d="M11.6033 29.0366H9.94482V30.6951H11.6033V29.0366Z" fill="white"/>
<path d="M11.6033 27.3796H9.94482V29.0366H11.6033V27.3796Z" fill="white"/>
<path d="M11.6033 25.7228H9.94482V27.3797H11.6033V25.7228Z" fill="white"/>
<path d="M11.6033 24.0642H9.94482V25.7227H11.6033V24.0642Z" fill="white"/>
<path d="M11.6033 22.4072H9.94482V24.0642H11.6033V22.4072Z" fill="white"/>
<path d="M11.6033 20.7504H9.94482V22.4073H11.6033V20.7504Z" fill="white"/>
<path d="M11.6033 19.0934H9.94482V20.7503H11.6033V19.0934Z" fill="white"/>
<path d="M11.6033 17.4348H9.94482V19.0933H11.6033V17.4348Z" fill="white"/>
<path d="M11.6033 15.7778H9.94482V17.4348H11.6033V15.7778Z" fill="white"/>
<path d="M11.6033 14.121H9.94482V15.7779H11.6033V14.121Z" fill="white"/>
<path d="M11.6033 12.4624H9.94482V14.1209H11.6033V12.4624Z" fill="white"/>
<path d="M11.6033 10.8054H9.94482V12.4624H11.6033V10.8054Z" fill="white"/>
<path d="M11.6033 9.14844H9.94482V10.8054H11.6033V9.14844Z" fill="white"/>
<path d="M11.6033 7.48999H9.94482V9.1485H11.6033V7.48999Z" fill="white"/>
<path d="M11.6033 5.83301H9.94482V7.48997H11.6033V5.83301Z" fill="white"/>
<path d="M9.9448 30.6952H8.28784V32.3521H9.9448V30.6952Z" fill="white"/>
<path d="M9.9448 29.0366H8.28784V30.6951H9.9448V29.0366Z" fill="white"/>
<path d="M9.9448 27.3796H8.28784V29.0366H9.9448V27.3796Z" fill="white"/>
<path d="M9.9448 25.7228H8.28784V27.3797H9.9448V25.7228Z" fill="white"/>
<path d="M9.9448 24.0642H8.28784V25.7227H9.9448V24.0642Z" fill="white"/>
<path d="M9.9448 22.4072H8.28784V24.0642H9.9448V22.4072Z" fill="white"/>
<path d="M9.9448 20.7504H8.28784V22.4073H9.9448V20.7504Z" fill="white"/>
<path d="M9.9448 19.0934H8.28784V20.7503H9.9448V19.0934Z" fill="white"/>
<path d="M9.9448 17.4348H8.28784V19.0933H9.9448V17.4348Z" fill="white"/>
<path d="M9.9448 15.7778H8.28784V17.4348H9.9448V15.7778Z" fill="white"/>
<path d="M9.9448 14.121H8.28784V15.7779H9.9448V14.121Z" fill="white"/>
<path d="M9.9448 12.4624H8.28784V14.1209H9.9448V12.4624Z" fill="white"/>
<path d="M9.9448 10.8054H8.28784V12.4624H9.9448V10.8054Z" fill="white"/>
<path d="M9.9448 9.14844H8.28784V10.8054H9.9448V9.14844Z" fill="white"/>
<path d="M9.9448 7.48999H8.28784V9.1485H9.9448V7.48999Z" fill="white"/>
<path d="M8.28782 29.0366H6.63086V30.6951H8.28782V29.0366Z" fill="white"/>
<path d="M8.28782 27.3796H6.63086V29.0366H8.28782V27.3796Z" fill="white"/>
<path d="M8.28782 25.7228H6.63086V27.3797H8.28782V25.7228Z" fill="white"/>
<path d="M8.28782 24.0642H6.63086V25.7227H8.28782V24.0642Z" fill="white"/>
<path d="M8.28782 22.4072H6.63086V24.0642H8.28782V22.4072Z" fill="white"/>
<path d="M8.28782 20.7504H6.63086V22.4073H8.28782V20.7504Z" fill="white"/>
<path d="M8.28782 19.0934H6.63086V20.7503H8.28782V19.0934Z" fill="white"/>
<path d="M8.28782 17.4348H6.63086V19.0933H8.28782V17.4348Z" fill="white"/>
<path d="M8.28782 15.7778H6.63086V17.4348H8.28782V15.7778Z" fill="white"/>
<path d="M8.28782 14.121H6.63086V15.7779H8.28782V14.121Z" fill="white"/>
<path d="M8.28782 12.4624H6.63086V14.1209H8.28782V12.4624Z" fill="white"/>
<path d="M8.28782 10.8054H6.63086V12.4624H8.28782V10.8054Z" fill="white"/>
<path d="M8.28782 9.14844H6.63086V10.8054H8.28782V9.14844Z" fill="white"/>
<path d="M8.28782 7.48999H6.63086V9.1485H8.28782V7.48999Z" fill="white"/>
<path d="M6.63092 29.0366H4.97241V30.6951H6.63092V29.0366Z" fill="white"/>
<path d="M6.63092 27.3796H4.97241V29.0366H6.63092V27.3796Z" fill="white"/>
<path d="M6.63092 25.7228H4.97241V27.3797H6.63092V25.7228Z" fill="white"/>
<path d="M6.63092 24.0642H4.97241V25.7227H6.63092V24.0642Z" fill="white"/>
<path d="M6.63092 22.4072H4.97241V24.0642H6.63092V22.4072Z" fill="white"/>
<path d="M6.63092 20.7504H4.97241V22.4073H6.63092V20.7504Z" fill="white"/>
<path d="M6.63092 19.0934H4.97241V20.7503H6.63092V19.0934Z" fill="white"/>
<path d="M6.63092 17.4348H4.97241V19.0933H6.63092V17.4348Z" fill="white"/>
<path d="M6.63092 15.7778H4.97241V17.4348H6.63092V15.7778Z" fill="white"/>
<path d="M6.63092 14.121H4.97241V15.7779H6.63092V14.121Z" fill="white"/>
<path d="M6.63092 12.4624H4.97241V14.1209H6.63092V12.4624Z" fill="white"/>
<path d="M6.63092 10.8054H4.97241V12.4624H6.63092V10.8054Z" fill="white"/>
<path d="M6.63092 9.14844H4.97241V10.8054H6.63092V9.14844Z" fill="white"/>
<path d="M4.97239 27.3796H3.31543V29.0366H4.97239V27.3796Z" fill="white"/>
<path d="M4.97239 25.7228H3.31543V27.3797H4.97239V25.7228Z" fill="white"/>
<path d="M4.97239 24.0642H3.31543V25.7227H4.97239V24.0642Z" fill="white"/>
<path d="M4.97239 22.4072H3.31543V24.0642H4.97239V22.4072Z" fill="white"/>
<path d="M4.97239 20.7504H3.31543V22.4073H4.97239V20.7504Z" fill="white"/>
<path d="M4.97239 19.0934H3.31543V20.7503H4.97239V19.0934Z" fill="white"/>
<path d="M4.97239 17.4348H3.31543V19.0933H4.97239V17.4348Z" fill="white"/>
<path d="M4.97239 15.7778H3.31543V17.4348H4.97239V15.7778Z" fill="white"/>
<path d="M4.97239 14.121H3.31543V15.7779H4.97239V14.121Z" fill="white"/>
<path d="M4.97239 12.4624H3.31543V14.1209H4.97239V12.4624Z" fill="white"/>
<path d="M4.97239 10.8054H3.31543V12.4624H4.97239V10.8054Z" fill="white"/>
<path d="M3.31541 25.7228H1.65845V27.3797H3.31541V25.7228Z" fill="white"/>
<path d="M3.31541 24.0642H1.65845V25.7227H3.31541V24.0642Z" fill="white"/>
<path d="M3.31541 22.4072H1.65845V24.0642H3.31541V22.4072Z" fill="white"/>
<path d="M3.31541 20.7504H1.65845V22.4073H3.31541V20.7504Z" fill="white"/>
<path d="M3.31541 19.0934H1.65845V20.7503H3.31541V19.0934Z" fill="white"/>
<path d="M3.31541 17.4348H1.65845V19.0933H3.31541V17.4348Z" fill="white"/>
<path d="M3.31541 15.7778H1.65845V17.4348H3.31541V15.7778Z" fill="white"/>
<path d="M3.31541 14.121H1.65845V15.7779H3.31541V14.121Z" fill="white"/>
<path d="M3.31541 12.4624H1.65845V14.1209H3.31541V12.4624Z" fill="white"/>
<path d="M1.65851 22.4072H0V24.0642H1.65851V22.4072Z" fill="white"/>
<path d="M1.65851 20.7504H0V22.4073H1.65851V20.7504Z" fill="white"/>
<path d="M1.65851 19.0934H0V20.7503H1.65851V19.0934Z" fill="white"/>
<path d="M1.65851 17.4348H0V19.0933H1.65851V17.4348Z" fill="white"/>
<path d="M1.65851 15.7778H0V17.4348H1.65851V15.7778Z" fill="white"/>
</svg>
