<svg width="105" height="16" viewBox="0 0 105 16" fill="none" xmlns="http://www.w3.org/2000/svg">
<path d="M0 0.446512H14.673V5.66645H10.5155V16H4.22388V5.66645H0V0.446512Z" fill="#3C0C00"/>
<path d="M16.8624 16V0.446512H23.0987V6.01728H26.7144V0.446512H32.9286V16H26.7144V10.5355H23.0987V16H16.8624Z" fill="#3C0C00"/>
<path d="M35.7482 0.446512H49.0944V5.0392H41.9624V6.67641H49.0944V10.2804H41.9624V11.992H49.0944V16H35.7482V0.446512Z" fill="#3C0C00"/>
<path d="M59.8199 16V0.446512H73.2435V5.44319H66.0562V7.20797H73.2435V11.5349H66.0562V16H59.8199Z" fill="#3C0C00"/>
<path d="M75.7203 16V12.2472L78.3409 10.3548C79.8889 9.24208 80.8877 8.50144 81.3374 8.13289C82.0377 7.56589 82.4763 7.12292 82.6532 6.80399C82.8375 6.48505 82.9297 6.13422 82.9297 5.7515C82.9297 5.3546 82.8375 5.0711 82.6532 4.901C82.4689 4.72381 82.1409 4.63522 81.6691 4.63522C81.1605 4.63522 80.8177 4.73798 80.6408 4.94352C80.4713 5.14197 80.3865 5.49989 80.3865 6.01728V7.15482H75.4107C75.396 6.62326 75.3886 6.26534 75.3886 6.08106C75.3886 5.11717 75.4734 4.28439 75.6429 3.58272C75.8198 2.87398 76.0778 2.31052 76.4169 1.89236C76.756 1.4742 77.202 1.10919 77.7548 0.797342C78.1013 0.60598 78.5473 0.446512 79.0928 0.318937C80.0068 0.106312 81.0499 0 82.222 0C83.313 0 84.3155 0.0885936 85.2296 0.265781C86.151 0.43588 86.8771 0.698117 87.4079 1.05249C87.9386 1.39978 88.333 1.80377 88.591 2.26445C88.9301 2.86689 89.0996 3.69258 89.0996 4.74153C89.0996 5.65581 88.9817 6.41063 88.7458 7.00598C88.5099 7.60133 88.1192 8.1825 87.5737 8.7495C87.0356 9.3165 86.2616 9.92602 85.2517 10.5781C84.5293 11.0388 83.6078 11.5349 82.4874 12.0664L88.6463 11.7369V16H75.7203Z" fill="#3C0C00"/>
<path d="M91.6539 0.446512H105V5.0392H97.868V6.67641H105V10.2804H97.868V11.992H105V16H91.6539V0.446512Z" fill="#3C0C00"/>
</svg>
