<svg width="362" height="204" viewBox="0 0 362 204" fill="none" xmlns="http://www.w3.org/2000/svg">
<path d="M361.207 194.941H352.733V203.422H361.207V194.941Z" fill="white"/>
<path d="M361.207 101.711H352.733V110.184H361.207V101.711Z" fill="white"/>
<path d="M361.207 93.2378H352.733V101.711H361.207V93.2378Z" fill="white"/>
<path d="M361.207 84.7567H352.733V93.2379H361.207V84.7567Z" fill="white"/>
<path d="M361.207 76.2833H352.733V84.7566H361.207V76.2833Z" fill="white"/>
<path d="M352.733 194.941H344.26V203.422H352.733V194.941Z" fill="white"/>
<path d="M352.733 118.658H344.26V127.139H352.733V118.658Z" fill="white"/>
<path d="M352.733 110.184H344.26V118.658H352.733V110.184Z" fill="white"/>
<path d="M352.733 101.711H344.26V110.184H352.733V101.711Z" fill="white"/>
<path d="M352.733 93.2378H344.26V101.711H352.733V93.2378Z" fill="white"/>
<path d="M352.733 84.7567H344.26V93.2379H352.733V84.7567Z" fill="white"/>
<path d="M352.733 76.2833H344.26V84.7566H352.733V76.2833Z" fill="white"/>
<path d="M352.733 67.8101H344.26V76.2833H352.733V67.8101Z" fill="white"/>
<path d="M352.733 59.3289H344.26V67.8101H352.733V59.3289Z" fill="white"/>
<path d="M344.26 194.941H335.779V203.422H344.26V194.941Z" fill="white"/>
<path d="M344.26 127.139H335.779V135.612H344.26V127.139Z" fill="white"/>
<path d="M344.26 118.658H335.779V127.139H344.26V118.658Z" fill="white"/>
<path d="M344.26 110.184H335.779V118.658H344.26V110.184Z" fill="white"/>
<path d="M344.26 101.711H335.779V110.184H344.26V101.711Z" fill="white"/>
<path d="M344.26 93.2378H335.779V101.711H344.26V93.2378Z" fill="white"/>
<path d="M344.26 84.7567H335.779V93.2379H344.26V84.7567Z" fill="white"/>
<path d="M344.26 76.2833H335.779V84.7566H344.26V76.2833Z" fill="white"/>
<path d="M344.26 67.8101H335.779V76.2833H344.26V67.8101Z" fill="white"/>
<path d="M344.26 59.3289H335.779V67.8101H344.26V59.3289Z" fill="white"/>
<path d="M344.26 50.8556H335.779V59.3289H344.26V50.8556Z" fill="white"/>
<path d="M335.779 194.941H327.306V203.422H335.779V194.941Z" fill="white"/>
<path d="M335.779 186.468H327.306V194.941H335.779V186.468Z" fill="white"/>
<path d="M335.779 135.612H327.306V144.085H335.779V135.612Z" fill="white"/>
<path d="M335.779 127.139H327.306V135.612H335.779V127.139Z" fill="white"/>
<path d="M335.779 118.658H327.306V127.139H335.779V118.658Z" fill="white"/>
<path d="M335.779 110.184H327.306V118.658H335.779V110.184Z" fill="white"/>
<path d="M335.779 101.711H327.306V110.184H335.779V101.711Z" fill="white"/>
<path d="M335.779 93.2378H327.306V101.711H335.779V93.2378Z" fill="white"/>
<path d="M335.779 84.7567H327.306V93.2379H335.779V84.7567Z" fill="white"/>
<path d="M335.779 76.2833H327.306V84.7566H335.779V76.2833Z" fill="white"/>
<path d="M335.779 67.8101H327.306V76.2833H335.779V67.8101Z" fill="white"/>
<path d="M335.779 59.3289H327.306V67.8101H335.779V59.3289Z" fill="white"/>
<path d="M335.779 50.8556H327.306V59.3289H335.779V50.8556Z" fill="white"/>
<path d="M335.779 42.3822H327.306V50.8555H335.779V42.3822Z" fill="white"/>
<path d="M327.306 194.941H318.832V203.422H327.306V194.941Z" fill="white"/>
<path d="M327.306 186.468H318.832V194.941H327.306V186.468Z" fill="white"/>
<path d="M327.306 144.086H318.832V152.567H327.306V144.086Z" fill="white"/>
<path d="M327.306 135.612H318.832V144.085H327.306V135.612Z" fill="white"/>
<path d="M327.306 127.139H318.832V135.612H327.306V127.139Z" fill="white"/>
<path d="M327.306 118.658H318.832V127.139H327.306V118.658Z" fill="white"/>
<path d="M327.306 110.184H318.832V118.658H327.306V110.184Z" fill="white"/>
<path d="M327.306 101.711H318.832V110.184H327.306V101.711Z" fill="white"/>
<path d="M327.306 93.2378H318.832V101.711H327.306V93.2378Z" fill="white"/>
<path d="M327.306 84.7567H318.832V93.2379H327.306V84.7567Z" fill="white"/>
<path d="M327.306 76.2833H318.832V84.7566H327.306V76.2833Z" fill="white"/>
<path d="M327.306 67.8101H318.832V76.2833H327.306V67.8101Z" fill="white"/>
<path d="M327.306 59.3289H318.832V67.8101H327.306V59.3289Z" fill="white"/>
<path d="M327.306 50.8556H318.832V59.3289H327.306V50.8556Z" fill="white"/>
<path d="M327.306 42.3822H318.832V50.8555H327.306V42.3822Z" fill="white"/>
<path d="M327.306 33.9011H318.832V42.3823H327.306V33.9011Z" fill="white"/>
<path d="M318.832 194.941H310.351V203.422H318.832V194.941Z" fill="white"/>
<path d="M318.832 186.468H310.351V194.941H318.832V186.468Z" fill="white"/>
<path d="M318.832 152.567H310.351V161.04H318.832V152.567Z" fill="white"/>
<path d="M318.832 144.086H310.351V152.567H318.832V144.086Z" fill="white"/>
<path d="M318.832 135.612H310.351V144.085H318.832V135.612Z" fill="white"/>
<path d="M318.832 127.139H310.351V135.612H318.832V127.139Z" fill="white"/>
<path d="M318.832 118.658H310.351V127.139H318.832V118.658Z" fill="white"/>
<path d="M318.832 110.184H310.351V118.658H318.832V110.184Z" fill="white"/>
<path d="M318.832 101.711H310.351V110.184H318.832V101.711Z" fill="white"/>
<path d="M318.832 93.2378H310.351V101.711H318.832V93.2378Z" fill="white"/>
<path d="M318.832 84.7567H310.351V93.2379H318.832V84.7567Z" fill="white"/>
<path d="M318.832 76.2833H310.351V84.7566H318.832V76.2833Z" fill="white"/>
<path d="M318.832 67.8101H310.351V76.2833H318.832V67.8101Z" fill="white"/>
<path d="M318.832 59.3289H310.351V67.8101H318.832V59.3289Z" fill="white"/>
<path d="M318.832 50.8556H310.351V59.3289H318.832V50.8556Z" fill="white"/>
<path d="M318.832 42.3822H310.351V50.8555H318.832V42.3822Z" fill="white"/>
<path d="M318.832 33.9011H310.351V42.3823H318.832V33.9011Z" fill="white"/>
<path d="M318.832 25.4277H310.351V33.901H318.832V25.4277Z" fill="white"/>
<path d="M310.351 186.468H301.878V194.941H310.351V186.468Z" fill="white"/>
<path d="M310.351 177.995H301.878V186.468H310.351V177.995Z" fill="white"/>
<path d="M310.351 152.567H301.878V161.04H310.351V152.567Z" fill="white"/>
<path d="M310.351 144.086H301.878V152.567H310.351V144.086Z" fill="white"/>
<path d="M310.351 135.612H301.878V144.085H310.351V135.612Z" fill="white"/>
<path d="M310.351 127.139H301.878V135.612H310.351V127.139Z" fill="white"/>
<path d="M310.351 118.658H301.878V127.139H310.351V118.658Z" fill="white"/>
<path d="M310.351 110.184H301.878V118.658H310.351V110.184Z" fill="white"/>
<path d="M310.351 101.711H301.878V110.184H310.351V101.711Z" fill="white"/>
<path d="M310.351 93.2378H301.878V101.711H310.351V93.2378Z" fill="white"/>
<path d="M310.351 84.7567H301.878V93.2379H310.351V84.7567Z" fill="white"/>
<path d="M310.351 76.2833H301.878V84.7566H310.351V76.2833Z" fill="white"/>
<path d="M310.351 67.8101H301.878V76.2833H310.351V67.8101Z" fill="white"/>
<path d="M310.351 59.3289H301.878V67.8101H310.351V59.3289Z" fill="white"/>
<path d="M310.351 50.8556H301.878V59.3289H310.351V50.8556Z" fill="white"/>
<path d="M310.351 42.3822H301.878V50.8555H310.351V42.3822Z" fill="white"/>
<path d="M310.351 33.9011H301.878V42.3823H310.351V33.9011Z" fill="white"/>
<path d="M310.351 25.4277H301.878V33.901H310.351V25.4277Z" fill="white"/>
<path d="M301.878 186.468H293.405V194.941H301.878V186.468Z" fill="white"/>
<path d="M301.878 177.995H293.405V186.468H301.878V177.995Z" fill="white"/>
<path d="M301.878 169.513H293.405V177.995H301.878V169.513Z" fill="white"/>
<path d="M301.878 161.04H293.405V169.513H301.878V161.04Z" fill="white"/>
<path d="M301.878 152.567H293.405V161.04H301.878V152.567Z" fill="white"/>
<path d="M301.878 144.086H293.405V152.567H301.878V144.086Z" fill="white"/>
<path d="M301.878 135.612H293.405V144.085H301.878V135.612Z" fill="white"/>
<path d="M301.878 127.139H293.405V135.612H301.878V127.139Z" fill="white"/>
<path d="M301.878 118.658H293.405V127.139H301.878V118.658Z" fill="white"/>
<path d="M301.878 110.184H293.405V118.658H301.878V110.184Z" fill="white"/>
<path d="M301.878 101.711H293.405V110.184H301.878V101.711Z" fill="white"/>
<path d="M301.878 93.2378H293.405V101.711H301.878V93.2378Z" fill="white"/>
<path d="M301.878 84.7567H293.405V93.2379H301.878V84.7567Z" fill="white"/>
<path d="M301.878 76.2833H293.405V84.7566H301.878V76.2833Z" fill="white"/>
<path d="M301.878 67.8101H293.405V76.2833H301.878V67.8101Z" fill="white"/>
<path d="M301.878 59.3289H293.405V67.8101H301.878V59.3289Z" fill="white"/>
<path d="M301.878 50.8556H293.405V59.3289H301.878V50.8556Z" fill="white"/>
<path d="M301.878 42.3822H293.405V50.8555H301.878V42.3822Z" fill="white"/>
<path d="M301.878 33.9011H293.405V42.3823H301.878V33.9011Z" fill="white"/>
<path d="M301.878 25.4277H293.405V33.901H301.878V25.4277Z" fill="white"/>
<path d="M301.878 16.9545H293.405V25.4278H301.878V16.9545Z" fill="white"/>
<path d="M293.405 186.468H284.931V194.941H293.405V186.468Z" fill="white"/>
<path d="M293.405 177.995H284.931V186.468H293.405V177.995Z" fill="white"/>
<path d="M293.405 169.513H284.931V177.995H293.405V169.513Z" fill="white"/>
<path d="M293.405 161.04H284.931V169.513H293.405V161.04Z" fill="white"/>
<path d="M293.405 152.567H284.931V161.04H293.405V152.567Z" fill="white"/>
<path d="M293.405 144.086H284.931V152.567H293.405V144.086Z" fill="white"/>
<path d="M293.405 135.612H284.931V144.085H293.405V135.612Z" fill="white"/>
<path d="M293.405 127.139H284.931V135.612H293.405V127.139Z" fill="white"/>
<path d="M293.405 118.658H284.931V127.139H293.405V118.658Z" fill="white"/>
<path d="M293.405 110.184H284.931V118.658H293.405V110.184Z" fill="white"/>
<path d="M293.405 101.711H284.931V110.184H293.405V101.711Z" fill="white"/>
<path d="M293.405 93.2378H284.931V101.711H293.405V93.2378Z" fill="white"/>
<path d="M293.405 84.7567H284.931V93.2379H293.405V84.7567Z" fill="white"/>
<path d="M293.405 76.2833H284.931V84.7566H293.405V76.2833Z" fill="white"/>
<path d="M293.405 67.8101H284.931V76.2833H293.405V67.8101Z" fill="white"/>
<path d="M293.405 59.3289H284.931V67.8101H293.405V59.3289Z" fill="white"/>
<path d="M293.405 50.8556H284.931V59.3289H293.405V50.8556Z" fill="white"/>
<path d="M293.405 42.3822H284.931V50.8555H293.405V42.3822Z" fill="white"/>
<path d="M293.405 33.9011H284.931V42.3823H293.405V33.9011Z" fill="white"/>
<path d="M293.405 25.4277H284.931V33.901H293.405V25.4277Z" fill="white"/>
<path d="M293.405 16.9545H284.931V25.4278H293.405V16.9545Z" fill="white"/>
<path d="M284.931 177.995H276.45V186.468H284.931V177.995Z" fill="white"/>
<path d="M284.931 169.513H276.45V177.995H284.931V169.513Z" fill="white"/>
<path d="M284.931 161.04H276.45V169.513H284.931V161.04Z" fill="white"/>
<path d="M284.931 152.567H276.45V161.04H284.931V152.567Z" fill="white"/>
<path d="M284.931 144.086H276.45V152.567H284.931V144.086Z" fill="white"/>
<path d="M284.931 135.612H276.45V144.085H284.931V135.612Z" fill="white"/>
<path d="M284.931 127.139H276.45V135.612H284.931V127.139Z" fill="white"/>
<path d="M284.931 118.658H276.45V127.139H284.931V118.658Z" fill="white"/>
<path d="M284.931 110.184H276.45V118.658H284.931V110.184Z" fill="white"/>
<path d="M284.931 101.711H276.45V110.184H284.931V101.711Z" fill="white"/>
<path d="M284.931 93.2378H276.45V101.711H284.931V93.2378Z" fill="white"/>
<path d="M284.931 84.7567H276.45V93.2379H284.931V84.7567Z" fill="white"/>
<path d="M284.931 76.2833H276.45V84.7566H284.931V76.2833Z" fill="white"/>
<path d="M284.931 67.8101H276.45V76.2833H284.931V67.8101Z" fill="white"/>
<path d="M284.931 59.3289H276.45V67.8101H284.931V59.3289Z" fill="white"/>
<path d="M284.931 50.8556H276.45V59.3289H284.931V50.8556Z" fill="white"/>
<path d="M284.931 42.3822H276.45V50.8555H284.931V42.3822Z" fill="white"/>
<path d="M284.931 33.9011H276.45V42.3823H284.931V33.9011Z" fill="white"/>
<path d="M284.931 25.4277H276.45V33.901H284.931V25.4277Z" fill="white"/>
<path d="M284.931 16.9545H276.45V25.4278H284.931V16.9545Z" fill="white"/>
<path d="M276.45 169.513H267.977V177.995H276.45V169.513Z" fill="white"/>
<path d="M276.45 161.04H267.977V169.513H276.45V161.04Z" fill="white"/>
<path d="M276.45 152.567H267.977V161.04H276.45V152.567Z" fill="white"/>
<path d="M276.45 144.086H267.977V152.567H276.45V144.086Z" fill="white"/>
<path d="M276.45 135.612H267.977V144.085H276.45V135.612Z" fill="white"/>
<path d="M276.45 127.139H267.977V135.612H276.45V127.139Z" fill="white"/>
<path d="M276.45 118.658H267.977V127.139H276.45V118.658Z" fill="white"/>
<path d="M276.45 110.184H267.977V118.658H276.45V110.184Z" fill="white"/>
<path d="M276.45 101.711H267.977V110.184H276.45V101.711Z" fill="white"/>
<path d="M276.45 93.2378H267.977V101.711H276.45V93.2378Z" fill="white"/>
<path d="M276.45 84.7567H267.977V93.2379H276.45V84.7567Z" fill="white"/>
<path d="M276.45 76.2833H267.977V84.7566H276.45V76.2833Z" fill="white"/>
<path d="M276.45 67.8101H267.977V76.2833H276.45V67.8101Z" fill="white"/>
<path d="M276.45 59.3289H267.977V67.8101H276.45V59.3289Z" fill="white"/>
<path d="M276.45 50.8556H267.977V59.3289H276.45V50.8556Z" fill="white"/>
<path d="M276.45 42.3822H267.977V50.8555H276.45V42.3822Z" fill="white"/>
<path d="M276.45 33.9011H267.977V42.3823H276.45V33.9011Z" fill="white"/>
<path d="M276.45 25.4277H267.977V33.901H276.45V25.4277Z" fill="white"/>
<path d="M276.45 16.9545H267.977V25.4278H276.45V16.9545Z" fill="white"/>
<path d="M276.45 8.48132H267.977V16.9546H276.45V8.48132Z" fill="white"/>
<path d="M267.977 169.513H259.503V177.995H267.977V169.513Z" fill="white"/>
<path d="M267.977 161.04H259.503V169.513H267.977V161.04Z" fill="white"/>
<path d="M267.977 152.567H259.503V161.04H267.977V152.567Z" fill="white"/>
<path d="M267.977 144.086H259.503V152.567H267.977V144.086Z" fill="white"/>
<path d="M267.977 135.612H259.503V144.085H267.977V135.612Z" fill="white"/>
<path d="M267.977 127.139H259.503V135.612H267.977V127.139Z" fill="white"/>
<path d="M267.977 118.658H259.503V127.139H267.977V118.658Z" fill="white"/>
<path d="M267.977 110.184H259.503V118.658H267.977V110.184Z" fill="white"/>
<path d="M267.977 101.711H259.503V110.184H267.977V101.711Z" fill="white"/>
<path d="M267.977 93.2378H259.503V101.711H267.977V93.2378Z" fill="white"/>
<path d="M267.977 84.7567H259.503V93.2379H267.977V84.7567Z" fill="white"/>
<path d="M267.977 76.2833H259.503V84.7566H267.977V76.2833Z" fill="white"/>
<path d="M267.977 67.8101H259.503V76.2833H267.977V67.8101Z" fill="white"/>
<path d="M267.977 59.3289H259.503V67.8101H267.977V59.3289Z" fill="white"/>
<path d="M267.977 50.8556H259.503V59.3289H267.977V50.8556Z" fill="white"/>
<path d="M267.977 42.3822H259.503V50.8555H267.977V42.3822Z" fill="white"/>
<path d="M267.977 33.9011H259.503V42.3823H267.977V33.9011Z" fill="white"/>
<path d="M267.977 25.4277H259.503V33.901H267.977V25.4277Z" fill="white"/>
<path d="M267.977 16.9545H259.503V25.4278H267.977V16.9545Z" fill="white"/>
<path d="M267.977 8.48132H259.503V16.9546H267.977V8.48132Z" fill="white"/>
<path d="M259.503 169.513H251.022V177.995H259.503V169.513Z" fill="white"/>
<path d="M259.503 161.04H251.022V169.513H259.503V161.04Z" fill="white"/>
<path d="M259.503 152.567H251.022V161.04H259.503V152.567Z" fill="white"/>
<path d="M259.503 144.086H251.022V152.567H259.503V144.086Z" fill="white"/>
<path d="M259.503 135.612H251.022V144.085H259.503V135.612Z" fill="white"/>
<path d="M259.503 127.139H251.022V135.612H259.503V127.139Z" fill="white"/>
<path d="M259.503 118.658H251.022V127.139H259.503V118.658Z" fill="white"/>
<path d="M259.503 110.184H251.022V118.658H259.503V110.184Z" fill="white"/>
<path d="M259.503 101.711H251.022V110.184H259.503V101.711Z" fill="white"/>
<path d="M259.503 93.2378H251.022V101.711H259.503V93.2378Z" fill="white"/>
<path d="M259.503 84.7567H251.022V93.2379H259.503V84.7567Z" fill="white"/>
<path d="M259.503 76.2833H251.022V84.7566H259.503V76.2833Z" fill="white"/>
<path d="M259.503 67.8101H251.022V76.2833H259.503V67.8101Z" fill="white"/>
<path d="M259.503 59.3289H251.022V67.8101H259.503V59.3289Z" fill="white"/>
<path d="M259.503 50.8556H251.022V59.3289H259.503V50.8556Z" fill="white"/>
<path d="M259.503 42.3822H251.022V50.8555H259.503V42.3822Z" fill="white"/>
<path d="M259.503 33.9011H251.022V42.3823H259.503V33.9011Z" fill="white"/>
<path d="M259.503 25.4277H251.022V33.901H259.503V25.4277Z" fill="white"/>
<path d="M259.503 16.9545H251.022V25.4278H259.503V16.9545Z" fill="white"/>
<path d="M259.503 8.48132H251.022V16.9546H259.503V8.48132Z" fill="white"/>
<path d="M251.022 177.995H242.549V186.468H251.022V177.995Z" fill="white"/>
<path d="M251.022 169.513H242.549V177.995H251.022V169.513Z" fill="white"/>
<path d="M251.022 161.04H242.549V169.513H251.022V161.04Z" fill="white"/>
<path d="M251.022 152.567H242.549V161.04H251.022V152.567Z" fill="white"/>
<path d="M251.022 144.086H242.549V152.567H251.022V144.086Z" fill="white"/>
<path d="M251.022 135.612H242.549V144.085H251.022V135.612Z" fill="white"/>
<path d="M251.022 127.139H242.549V135.612H251.022V127.139Z" fill="white"/>
<path d="M251.022 118.658H242.549V127.139H251.022V118.658Z" fill="white"/>
<path d="M251.022 110.184H242.549V118.658H251.022V110.184Z" fill="white"/>
<path d="M251.022 101.711H242.549V110.184H251.022V101.711Z" fill="white"/>
<path d="M251.022 93.2378H242.549V101.711H251.022V93.2378Z" fill="white"/>
<path d="M251.022 84.7567H242.549V93.2379H251.022V84.7567Z" fill="white"/>
<path d="M251.022 76.2833H242.549V84.7566H251.022V76.2833Z" fill="white"/>
<path d="M251.022 67.8101H242.549V76.2833H251.022V67.8101Z" fill="white"/>
<path d="M251.022 59.3289H242.549V67.8101H251.022V59.3289Z" fill="white"/>
<path d="M251.022 50.8556H242.549V59.3289H251.022V50.8556Z" fill="white"/>
<path d="M251.022 42.3822H242.549V50.8555H251.022V42.3822Z" fill="white"/>
<path d="M251.022 33.9011H242.549V42.3823H251.022V33.9011Z" fill="white"/>
<path d="M251.022 25.4277H242.549V33.901H251.022V25.4277Z" fill="white"/>
<path d="M251.022 16.9545H242.549V25.4278H251.022V16.9545Z" fill="white"/>
<path d="M251.022 8.48132H242.549V16.9546H251.022V8.48132Z" fill="white"/>
<path d="M242.549 177.995H234.076V186.468H242.549V177.995Z" fill="white"/>
<path d="M242.549 169.513H234.076V177.995H242.549V169.513Z" fill="white"/>
<path d="M242.549 161.04H234.076V169.513H242.549V161.04Z" fill="white"/>
<path d="M242.549 152.567H234.076V161.04H242.549V152.567Z" fill="white"/>
<path d="M242.549 144.086H234.076V152.567H242.549V144.086Z" fill="white"/>
<path d="M242.549 135.612H234.076V144.085H242.549V135.612Z" fill="white"/>
<path d="M242.549 127.139H234.076V135.612H242.549V127.139Z" fill="white"/>
<path d="M242.549 118.658H234.076V127.139H242.549V118.658Z" fill="white"/>
<path d="M242.549 110.184H234.076V118.658H242.549V110.184Z" fill="white"/>
<path d="M242.549 101.711H234.076V110.184H242.549V101.711Z" fill="white"/>
<path d="M242.549 93.2378H234.076V101.711H242.549V93.2378Z" fill="white"/>
<path d="M242.549 84.7567H234.076V93.2379H242.549V84.7567Z" fill="white"/>
<path d="M242.549 76.2833H234.076V84.7566H242.549V76.2833Z" fill="white"/>
<path d="M242.549 67.8101H234.076V76.2833H242.549V67.8101Z" fill="white"/>
<path d="M242.549 59.3289H234.076V67.8101H242.549V59.3289Z" fill="white"/>
<path d="M242.549 50.8556H234.076V59.3289H242.549V50.8556Z" fill="white"/>
<path d="M242.549 42.3822H234.076V50.8555H242.549V42.3822Z" fill="white"/>
<path d="M242.549 33.9011H234.076V42.3823H242.549V33.9011Z" fill="white"/>
<path d="M242.549 25.4277H234.076V33.901H242.549V25.4277Z" fill="white"/>
<path d="M242.549 16.9545H234.076V25.4278H242.549V16.9545Z" fill="white"/>
<path d="M242.549 8.48132H234.076V16.9546H242.549V8.48132Z" fill="white"/>
<path d="M242.549 0H234.076V8.48121H242.549V0Z" fill="white"/>
<path d="M234.076 177.995H225.594V186.468H234.076V177.995Z" fill="white"/>
<path d="M234.076 169.513H225.594V177.995H234.076V169.513Z" fill="white"/>
<path d="M234.076 161.04H225.594V169.513H234.076V161.04Z" fill="white"/>
<path d="M234.076 152.567H225.594V161.04H234.076V152.567Z" fill="white"/>
<path d="M234.076 144.086H225.594V152.567H234.076V144.086Z" fill="white"/>
<path d="M234.076 135.612H225.594V144.085H234.076V135.612Z" fill="white"/>
<path d="M234.076 127.139H225.594V135.612H234.076V127.139Z" fill="white"/>
<path d="M234.076 118.658H225.594V127.139H234.076V118.658Z" fill="white"/>
<path d="M234.076 110.184H225.594V118.658H234.076V110.184Z" fill="white"/>
<path d="M234.076 101.711H225.594V110.184H234.076V101.711Z" fill="white"/>
<path d="M234.076 93.2378H225.594V101.711H234.076V93.2378Z" fill="white"/>
<path d="M234.076 84.7567H225.594V93.2379H234.076V84.7567Z" fill="white"/>
<path d="M234.076 76.2833H225.594V84.7566H234.076V76.2833Z" fill="white"/>
<path d="M234.076 67.8101H225.594V76.2833H234.076V67.8101Z" fill="white"/>
<path d="M234.076 59.3289H225.594V67.8101H234.076V59.3289Z" fill="white"/>
<path d="M234.076 50.8556H225.594V59.3289H234.076V50.8556Z" fill="white"/>
<path d="M234.076 42.3822H225.594V50.8555H234.076V42.3822Z" fill="white"/>
<path d="M234.076 33.9011H225.594V42.3823H234.076V33.9011Z" fill="white"/>
<path d="M234.076 25.4277H225.594V33.901H234.076V25.4277Z" fill="white"/>
<path d="M234.076 16.9545H225.594V25.4278H234.076V16.9545Z" fill="white"/>
<path d="M234.076 8.48132H225.594V16.9546H234.076V8.48132Z" fill="white"/>
<path d="M234.076 0H225.594V8.48121H234.076V0Z" fill="white"/>
<path d="M225.594 177.995H217.121V186.468H225.594V177.995Z" fill="white"/>
<path d="M225.594 169.513H217.121V177.995H225.594V169.513Z" fill="white"/>
<path d="M225.594 161.04H217.121V169.513H225.594V161.04Z" fill="white"/>
<path d="M225.594 152.567H217.121V161.04H225.594V152.567Z" fill="white"/>
<path d="M225.594 144.086H217.121V152.567H225.594V144.086Z" fill="white"/>
<path d="M225.594 135.612H217.121V144.085H225.594V135.612Z" fill="white"/>
<path d="M225.594 127.139H217.121V135.612H225.594V127.139Z" fill="white"/>
<path d="M225.594 118.658H217.121V127.139H225.594V118.658Z" fill="white"/>
<path d="M225.594 110.184H217.121V118.658H225.594V110.184Z" fill="white"/>
<path d="M225.594 101.711H217.121V110.184H225.594V101.711Z" fill="white"/>
<path d="M225.594 93.2378H217.121V101.711H225.594V93.2378Z" fill="white"/>
<path d="M225.594 84.7567H217.121V93.2379H225.594V84.7567Z" fill="white"/>
<path d="M225.594 76.2833H217.121V84.7566H225.594V76.2833Z" fill="white"/>
<path d="M225.594 67.8101H217.121V76.2833H225.594V67.8101Z" fill="white"/>
<path d="M225.594 59.3289H217.121V67.8101H225.594V59.3289Z" fill="white"/>
<path d="M225.594 50.8556H217.121V59.3289H225.594V50.8556Z" fill="white"/>
<path d="M225.594 42.3822H217.121V50.8555H225.594V42.3822Z" fill="white"/>
<path d="M225.594 33.9011H217.121V42.3823H225.594V33.9011Z" fill="white"/>
<path d="M225.594 25.4277H217.121V33.901H225.594V25.4277Z" fill="white"/>
<path d="M225.594 16.9545H217.121V25.4278H225.594V16.9545Z" fill="white"/>
<path d="M225.594 8.48132H217.121V16.9546H225.594V8.48132Z" fill="white"/>
<path d="M225.594 0H217.121V8.48121H225.594V0Z" fill="white"/>
<path d="M217.121 177.995H208.648V186.468H217.121V177.995Z" fill="white"/>
<path d="M217.121 169.513H208.648V177.995H217.121V169.513Z" fill="white"/>
<path d="M217.121 161.04H208.648V169.513H217.121V161.04Z" fill="white"/>
<path d="M217.121 152.567H208.648V161.04H217.121V152.567Z" fill="white"/>
<path d="M217.121 144.086H208.648V152.567H217.121V144.086Z" fill="white"/>
<path d="M217.121 135.612H208.648V144.085H217.121V135.612Z" fill="white"/>
<path d="M217.121 127.139H208.648V135.612H217.121V127.139Z" fill="white"/>
<path d="M217.121 118.658H208.648V127.139H217.121V118.658Z" fill="white"/>
<path d="M217.121 110.184H208.648V118.658H217.121V110.184Z" fill="white"/>
<path d="M217.121 101.711H208.648V110.184H217.121V101.711Z" fill="white"/>
<path d="M217.121 93.2378H208.648V101.711H217.121V93.2378Z" fill="white"/>
<path d="M217.121 84.7567H208.648V93.2379H217.121V84.7567Z" fill="white"/>
<path d="M217.121 76.2833H208.648V84.7566H217.121V76.2833Z" fill="white"/>
<path d="M217.121 67.8101H208.648V76.2833H217.121V67.8101Z" fill="white"/>
<path d="M217.121 59.3289H208.648V67.8101H217.121V59.3289Z" fill="white"/>
<path d="M217.121 50.8556H208.648V59.3289H217.121V50.8556Z" fill="white"/>
<path d="M217.121 42.3822H208.648V50.8555H217.121V42.3822Z" fill="white"/>
<path d="M217.121 33.9011H208.648V42.3823H217.121V33.9011Z" fill="white"/>
<path d="M217.121 25.4277H208.648V33.901H217.121V25.4277Z" fill="white"/>
<path d="M217.121 16.9545H208.648V25.4278H217.121V16.9545Z" fill="white"/>
<path d="M217.121 8.48132H208.648V16.9546H217.121V8.48132Z" fill="white"/>
<path d="M217.121 0H208.648V8.48121H217.121V0Z" fill="white"/>
<path d="M208.648 177.995H200.167V186.468H208.648V177.995Z" fill="white"/>
<path d="M208.648 169.513H200.167V177.995H208.648V169.513Z" fill="white"/>
<path d="M208.648 161.04H200.167V169.513H208.648V161.04Z" fill="white"/>
<path d="M208.648 152.567H200.167V161.04H208.648V152.567Z" fill="white"/>
<path d="M208.648 144.086H200.167V152.567H208.648V144.086Z" fill="white"/>
<path d="M208.648 135.612H200.167V144.085H208.648V135.612Z" fill="white"/>
<path d="M208.648 127.139H200.167V135.612H208.648V127.139Z" fill="white"/>
<path d="M208.648 118.658H200.167V127.139H208.648V118.658Z" fill="white"/>
<path d="M208.648 110.184H200.167V118.658H208.648V110.184Z" fill="white"/>
<path d="M208.648 101.711H200.167V110.184H208.648V101.711Z" fill="white"/>
<path d="M208.648 93.2378H200.167V101.711H208.648V93.2378Z" fill="white"/>
<path d="M208.648 84.7567H200.167V93.2379H208.648V84.7567Z" fill="white"/>
<path d="M208.648 76.2833H200.167V84.7566H208.648V76.2833Z" fill="white"/>
<path d="M208.648 67.8101H200.167V76.2833H208.648V67.8101Z" fill="white"/>
<path d="M208.648 59.3289H200.167V67.8101H208.648V59.3289Z" fill="white"/>
<path d="M208.648 50.8556H200.167V59.3289H208.648V50.8556Z" fill="white"/>
<path d="M208.648 42.3822H200.167V50.8555H208.648V42.3822Z" fill="white"/>
<path d="M208.648 33.9011H200.167V42.3823H208.648V33.9011Z" fill="white"/>
<path d="M208.648 25.4277H200.167V33.901H208.648V25.4277Z" fill="white"/>
<path d="M208.648 16.9545H200.167V25.4278H208.648V16.9545Z" fill="white"/>
<path d="M208.648 8.48132H200.167V16.9546H208.648V8.48132Z" fill="white"/>
<path d="M208.648 0H200.167V8.48121H208.648V0Z" fill="white"/>
<path d="M200.167 177.995H191.693V186.468H200.167V177.995Z" fill="white"/>
<path d="M200.167 169.513H191.693V177.995H200.167V169.513Z" fill="white"/>
<path d="M200.167 161.04H191.693V169.513H200.167V161.04Z" fill="white"/>
<path d="M200.167 152.567H191.693V161.04H200.167V152.567Z" fill="white"/>
<path d="M200.167 144.086H191.693V152.567H200.167V144.086Z" fill="white"/>
<path d="M200.167 135.612H191.693V144.085H200.167V135.612Z" fill="white"/>
<path d="M200.167 127.139H191.693V135.612H200.167V127.139Z" fill="white"/>
<path d="M200.167 118.658H191.693V127.139H200.167V118.658Z" fill="white"/>
<path d="M200.167 110.184H191.693V118.658H200.167V110.184Z" fill="white"/>
<path d="M200.167 101.711H191.693V110.184H200.167V101.711Z" fill="white"/>
<path d="M200.167 93.2378H191.693V101.711H200.167V93.2378Z" fill="white"/>
<path d="M200.167 84.7567H191.693V93.2379H200.167V84.7567Z" fill="white"/>
<path d="M200.167 76.2833H191.693V84.7566H200.167V76.2833Z" fill="white"/>
<path d="M200.167 67.8101H191.693V76.2833H200.167V67.8101Z" fill="white"/>
<path d="M200.167 59.3289H191.693V67.8101H200.167V59.3289Z" fill="white"/>
<path d="M200.167 50.8556H191.693V59.3289H200.167V50.8556Z" fill="white"/>
<path d="M200.167 42.3822H191.693V50.8555H200.167V42.3822Z" fill="white"/>
<path d="M200.167 33.9011H191.693V42.3823H200.167V33.9011Z" fill="white"/>
<path d="M200.167 25.4277H191.693V33.901H200.167V25.4277Z" fill="white"/>
<path d="M200.167 16.9545H191.693V25.4278H200.167V16.9545Z" fill="white"/>
<path d="M200.167 8.48132H191.693V16.9546H200.167V8.48132Z" fill="white"/>
<path d="M200.167 0H191.693V8.48121H200.167V0Z" fill="white"/>
<path d="M191.693 177.995H183.22V186.468H191.693V177.995Z" fill="white"/>
<path d="M191.693 169.513H183.22V177.995H191.693V169.513Z" fill="white"/>
<path d="M191.693 161.04H183.22V169.513H191.693V161.04Z" fill="white"/>
<path d="M191.693 152.567H183.22V161.04H191.693V152.567Z" fill="white"/>
<path d="M191.693 144.086H183.22V152.567H191.693V144.086Z" fill="white"/>
<path d="M191.693 135.612H183.22V144.085H191.693V135.612Z" fill="white"/>
<path d="M191.693 127.139H183.22V135.612H191.693V127.139Z" fill="white"/>
<path d="M191.693 118.658H183.22V127.139H191.693V118.658Z" fill="white"/>
<path d="M191.693 110.184H183.22V118.658H191.693V110.184Z" fill="white"/>
<path d="M191.693 101.711H183.22V110.184H191.693V101.711Z" fill="white"/>
<path d="M191.693 93.2378H183.22V101.711H191.693V93.2378Z" fill="white"/>
<path d="M191.693 84.7567H183.22V93.2379H191.693V84.7567Z" fill="white"/>
<path d="M191.693 76.2833H183.22V84.7566H191.693V76.2833Z" fill="white"/>
<path d="M191.693 67.8101H183.22V76.2833H191.693V67.8101Z" fill="white"/>
<path d="M191.693 59.3289H183.22V67.8101H191.693V59.3289Z" fill="white"/>
<path d="M191.693 50.8556H183.22V59.3289H191.693V50.8556Z" fill="white"/>
<path d="M191.693 42.3822H183.22V50.8555H191.693V42.3822Z" fill="white"/>
<path d="M191.693 33.9011H183.22V42.3823H191.693V33.9011Z" fill="white"/>
<path d="M191.693 25.4277H183.22V33.901H191.693V25.4277Z" fill="white"/>
<path d="M191.693 16.9545H183.22V25.4278H191.693V16.9545Z" fill="white"/>
<path d="M191.693 8.48132H183.22V16.9546H191.693V8.48132Z" fill="white"/>
<path d="M191.693 0H183.22V8.48121H191.693V0Z" fill="white"/>
<path d="M183.22 177.995H174.747V186.468H183.22V177.995Z" fill="white"/>
<path d="M183.22 169.513H174.747V177.995H183.22V169.513Z" fill="white"/>
<path d="M183.22 161.04H174.747V169.513H183.22V161.04Z" fill="white"/>
<path d="M183.22 152.567H174.747V161.04H183.22V152.567Z" fill="white"/>
<path d="M183.22 144.086H174.747V152.567H183.22V144.086Z" fill="white"/>
<path d="M183.22 135.612H174.747V144.085H183.22V135.612Z" fill="white"/>
<path d="M183.22 127.139H174.747V135.612H183.22V127.139Z" fill="white"/>
<path d="M183.22 118.658H174.747V127.139H183.22V118.658Z" fill="white"/>
<path d="M183.22 110.184H174.747V118.658H183.22V110.184Z" fill="white"/>
<path d="M183.22 101.711H174.747V110.184H183.22V101.711Z" fill="white"/>
<path d="M183.22 93.2378H174.747V101.711H183.22V93.2378Z" fill="white"/>
<path d="M183.22 84.7567H174.747V93.2379H183.22V84.7567Z" fill="white"/>
<path d="M183.22 76.2833H174.747V84.7566H183.22V76.2833Z" fill="white"/>
<path d="M183.22 67.8101H174.747V76.2833H183.22V67.8101Z" fill="white"/>
<path d="M183.22 59.3289H174.747V67.8101H183.22V59.3289Z" fill="white"/>
<path d="M183.22 50.8556H174.747V59.3289H183.22V50.8556Z" fill="white"/>
<path d="M183.22 42.3822H174.747V50.8555H183.22V42.3822Z" fill="white"/>
<path d="M183.22 33.9011H174.747V42.3823H183.22V33.9011Z" fill="white"/>
<path d="M183.22 25.4277H174.747V33.901H183.22V25.4277Z" fill="white"/>
<path d="M183.22 16.9545H174.747V25.4278H183.22V16.9545Z" fill="white"/>
<path d="M183.22 8.48132H174.747V16.9546H183.22V8.48132Z" fill="white"/>
<path d="M183.22 0H174.747V8.48121H183.22V0Z" fill="white"/>
<path d="M174.747 177.995H166.266V186.468H174.747V177.995Z" fill="white"/>
<path d="M174.747 169.513H166.266V177.995H174.747V169.513Z" fill="white"/>
<path d="M174.747 161.04H166.266V169.513H174.747V161.04Z" fill="white"/>
<path d="M174.747 152.567H166.266V161.04H174.747V152.567Z" fill="white"/>
<path d="M174.747 144.086H166.266V152.567H174.747V144.086Z" fill="white"/>
<path d="M174.747 135.612H166.266V144.085H174.747V135.612Z" fill="white"/>
<path d="M174.747 127.139H166.266V135.612H174.747V127.139Z" fill="white"/>
<path d="M174.747 118.658H166.266V127.139H174.747V118.658Z" fill="white"/>
<path d="M174.747 110.184H166.266V118.658H174.747V110.184Z" fill="white"/>
<path d="M174.747 101.711H166.266V110.184H174.747V101.711Z" fill="white"/>
<path d="M174.747 93.2378H166.266V101.711H174.747V93.2378Z" fill="white"/>
<path d="M174.747 84.7567H166.266V93.2379H174.747V84.7567Z" fill="white"/>
<path d="M174.747 76.2833H166.266V84.7566H174.747V76.2833Z" fill="white"/>
<path d="M174.747 67.8101H166.266V76.2833H174.747V67.8101Z" fill="white"/>
<path d="M174.747 59.3289H166.266V67.8101H174.747V59.3289Z" fill="white"/>
<path d="M174.747 50.8556H166.266V59.3289H174.747V50.8556Z" fill="white"/>
<path d="M174.747 42.3822H166.266V50.8555H174.747V42.3822Z" fill="white"/>
<path d="M174.747 33.9011H166.266V42.3823H174.747V33.9011Z" fill="white"/>
<path d="M174.747 25.4277H166.266V33.901H174.747V25.4277Z" fill="white"/>
<path d="M174.747 16.9545H166.266V25.4278H174.747V16.9545Z" fill="white"/>
<path d="M174.747 8.48132H166.266V16.9546H174.747V8.48132Z" fill="white"/>
<path d="M174.747 0H166.266V8.48121H174.747V0Z" fill="white"/>
<path d="M166.266 177.995H157.792V186.468H166.266V177.995Z" fill="white"/>
<path d="M166.266 169.513H157.792V177.995H166.266V169.513Z" fill="white"/>
<path d="M166.266 161.04H157.792V169.513H166.266V161.04Z" fill="white"/>
<path d="M166.266 152.567H157.792V161.04H166.266V152.567Z" fill="white"/>
<path d="M166.266 144.086H157.792V152.567H166.266V144.086Z" fill="white"/>
<path d="M166.266 135.612H157.792V144.085H166.266V135.612Z" fill="white"/>
<path d="M166.266 127.139H157.792V135.612H166.266V127.139Z" fill="white"/>
<path d="M166.266 118.658H157.792V127.139H166.266V118.658Z" fill="white"/>
<path d="M166.266 110.184H157.792V118.658H166.266V110.184Z" fill="white"/>
<path d="M166.266 101.711H157.792V110.184H166.266V101.711Z" fill="white"/>
<path d="M166.266 93.2378H157.792V101.711H166.266V93.2378Z" fill="white"/>
<path d="M166.266 84.7567H157.792V93.2379H166.266V84.7567Z" fill="white"/>
<path d="M166.266 76.2833H157.792V84.7566H166.266V76.2833Z" fill="white"/>
<path d="M166.266 67.8101H157.792V76.2833H166.266V67.8101Z" fill="white"/>
<path d="M166.266 59.3289H157.792V67.8101H166.266V59.3289Z" fill="white"/>
<path d="M166.266 50.8556H157.792V59.3289H166.266V50.8556Z" fill="white"/>
<path d="M166.266 42.3822H157.792V50.8555H166.266V42.3822Z" fill="white"/>
<path d="M166.266 33.9011H157.792V42.3823H166.266V33.9011Z" fill="white"/>
<path d="M166.266 25.4277H157.792V33.901H166.266V25.4277Z" fill="white"/>
<path d="M166.266 16.9545H157.792V25.4278H166.266V16.9545Z" fill="white"/>
<path d="M166.266 8.48132H157.792V16.9546H166.266V8.48132Z" fill="white"/>
<path d="M166.266 0H157.792V8.48121H166.266V0Z" fill="white"/>
<path d="M157.792 177.995H149.319V186.468H157.792V177.995Z" fill="white"/>
<path d="M157.792 169.513H149.319V177.995H157.792V169.513Z" fill="white"/>
<path d="M157.792 161.04H149.319V169.513H157.792V161.04Z" fill="white"/>
<path d="M157.792 152.567H149.319V161.04H157.792V152.567Z" fill="white"/>
<path d="M157.792 144.086H149.319V152.567H157.792V144.086Z" fill="white"/>
<path d="M157.792 135.612H149.319V144.085H157.792V135.612Z" fill="white"/>
<path d="M157.792 127.139H149.319V135.612H157.792V127.139Z" fill="white"/>
<path d="M157.792 118.658H149.319V127.139H157.792V118.658Z" fill="white"/>
<path d="M157.792 110.184H149.319V118.658H157.792V110.184Z" fill="white"/>
<path d="M157.792 101.711H149.319V110.184H157.792V101.711Z" fill="white"/>
<path d="M157.792 93.2378H149.319V101.711H157.792V93.2378Z" fill="white"/>
<path d="M157.792 84.7567H149.319V93.2379H157.792V84.7567Z" fill="white"/>
<path d="M157.792 76.2833H149.319V84.7566H157.792V76.2833Z" fill="white"/>
<path d="M157.792 67.8101H149.319V76.2833H157.792V67.8101Z" fill="white"/>
<path d="M157.792 59.3289H149.319V67.8101H157.792V59.3289Z" fill="white"/>
<path d="M157.792 50.8556H149.319V59.3289H157.792V50.8556Z" fill="white"/>
<path d="M157.792 42.3822H149.319V50.8555H157.792V42.3822Z" fill="white"/>
<path d="M157.792 33.9011H149.319V42.3823H157.792V33.9011Z" fill="white"/>
<path d="M157.792 25.4277H149.319V33.901H157.792V25.4277Z" fill="white"/>
<path d="M157.792 16.9545H149.319V25.4278H157.792V16.9545Z" fill="white"/>
<path d="M157.792 8.48132H149.319V16.9546H157.792V8.48132Z" fill="white"/>
<path d="M157.792 0H149.319V8.48121H157.792V0Z" fill="white"/>
<path d="M149.319 177.995H140.838V186.468H149.319V177.995Z" fill="white"/>
<path d="M149.319 169.513H140.838V177.995H149.319V169.513Z" fill="white"/>
<path d="M149.319 161.04H140.838V169.513H149.319V161.04Z" fill="white"/>
<path d="M149.319 152.567H140.838V161.04H149.319V152.567Z" fill="white"/>
<path d="M149.319 144.086H140.838V152.567H149.319V144.086Z" fill="white"/>
<path d="M149.319 135.612H140.838V144.085H149.319V135.612Z" fill="white"/>
<path d="M149.319 127.139H140.838V135.612H149.319V127.139Z" fill="white"/>
<path d="M149.319 118.658H140.838V127.139H149.319V118.658Z" fill="white"/>
<path d="M149.319 110.184H140.838V118.658H149.319V110.184Z" fill="white"/>
<path d="M149.319 101.711H140.838V110.184H149.319V101.711Z" fill="white"/>
<path d="M149.319 93.2378H140.838V101.711H149.319V93.2378Z" fill="white"/>
<path d="M149.319 84.7567H140.838V93.2379H149.319V84.7567Z" fill="white"/>
<path d="M149.319 76.2833H140.838V84.7566H149.319V76.2833Z" fill="white"/>
<path d="M149.319 67.8101H140.838V76.2833H149.319V67.8101Z" fill="white"/>
<path d="M149.319 59.3289H140.838V67.8101H149.319V59.3289Z" fill="white"/>
<path d="M149.319 50.8556H140.838V59.3289H149.319V50.8556Z" fill="white"/>
<path d="M149.319 42.3822H140.838V50.8555H149.319V42.3822Z" fill="white"/>
<path d="M149.319 33.9011H140.838V42.3823H149.319V33.9011Z" fill="white"/>
<path d="M149.319 25.4277H140.838V33.901H149.319V25.4277Z" fill="white"/>
<path d="M149.319 16.9545H140.838V25.4278H149.319V16.9545Z" fill="white"/>
<path d="M149.319 8.48132H140.838V16.9546H149.319V8.48132Z" fill="white"/>
<path d="M149.319 0H140.838V8.48121H149.319V0Z" fill="white"/>
<path d="M140.838 177.995H132.365V186.468H140.838V177.995Z" fill="white"/>
<path d="M140.838 169.513H132.365V177.995H140.838V169.513Z" fill="white"/>
<path d="M140.838 161.04H132.365V169.513H140.838V161.04Z" fill="white"/>
<path d="M140.838 152.567H132.365V161.04H140.838V152.567Z" fill="white"/>
<path d="M140.838 144.086H132.365V152.567H140.838V144.086Z" fill="white"/>
<path d="M140.838 135.612H132.365V144.085H140.838V135.612Z" fill="white"/>
<path d="M140.838 127.139H132.365V135.612H140.838V127.139Z" fill="white"/>
<path d="M140.838 118.658H132.365V127.139H140.838V118.658Z" fill="white"/>
<path d="M140.838 110.184H132.365V118.658H140.838V110.184Z" fill="white"/>
<path d="M140.838 101.711H132.365V110.184H140.838V101.711Z" fill="white"/>
<path d="M140.838 93.2378H132.365V101.711H140.838V93.2378Z" fill="white"/>
<path d="M140.838 84.7567H132.365V93.2379H140.838V84.7567Z" fill="white"/>
<path d="M140.838 76.2833H132.365V84.7566H140.838V76.2833Z" fill="white"/>
<path d="M140.838 67.8101H132.365V76.2833H140.838V67.8101Z" fill="white"/>
<path d="M140.838 59.3289H132.365V67.8101H140.838V59.3289Z" fill="white"/>
<path d="M140.838 50.8556H132.365V59.3289H140.838V50.8556Z" fill="white"/>
<path d="M140.838 42.3822H132.365V50.8555H140.838V42.3822Z" fill="white"/>
<path d="M140.838 33.9011H132.365V42.3823H140.838V33.9011Z" fill="white"/>
<path d="M140.838 25.4277H132.365V33.901H140.838V25.4277Z" fill="white"/>
<path d="M140.838 16.9545H132.365V25.4278H140.838V16.9545Z" fill="white"/>
<path d="M140.838 8.48132H132.365V16.9546H140.838V8.48132Z" fill="white"/>
<path d="M140.838 0H132.365V8.48121H140.838V0Z" fill="white"/>
<path d="M132.365 177.995H123.891V186.468H132.365V177.995Z" fill="white"/>
<path d="M132.365 169.513H123.891V177.995H132.365V169.513Z" fill="white"/>
<path d="M132.365 161.04H123.891V169.513H132.365V161.04Z" fill="white"/>
<path d="M132.365 152.567H123.891V161.04H132.365V152.567Z" fill="white"/>
<path d="M132.365 144.086H123.891V152.567H132.365V144.086Z" fill="white"/>
<path d="M132.365 135.612H123.891V144.085H132.365V135.612Z" fill="white"/>
<path d="M132.365 127.139H123.891V135.612H132.365V127.139Z" fill="white"/>
<path d="M132.365 118.658H123.891V127.139H132.365V118.658Z" fill="white"/>
<path d="M132.365 110.184H123.891V118.658H132.365V110.184Z" fill="white"/>
<path d="M132.365 101.711H123.891V110.184H132.365V101.711Z" fill="white"/>
<path d="M132.365 93.2378H123.891V101.711H132.365V93.2378Z" fill="white"/>
<path d="M132.365 84.7567H123.891V93.2379H132.365V84.7567Z" fill="white"/>
<path d="M132.365 76.2833H123.891V84.7566H132.365V76.2833Z" fill="white"/>
<path d="M132.365 67.8101H123.891V76.2833H132.365V67.8101Z" fill="white"/>
<path d="M132.365 59.3289H123.891V67.8101H132.365V59.3289Z" fill="white"/>
<path d="M132.365 50.8556H123.891V59.3289H132.365V50.8556Z" fill="white"/>
<path d="M132.365 42.3822H123.891V50.8555H132.365V42.3822Z" fill="white"/>
<path d="M132.365 33.9011H123.891V42.3823H132.365V33.9011Z" fill="white"/>
<path d="M132.365 25.4277H123.891V33.901H132.365V25.4277Z" fill="white"/>
<path d="M132.365 16.9545H123.891V25.4278H132.365V16.9545Z" fill="white"/>
<path d="M132.365 8.48132H123.891V16.9546H132.365V8.48132Z" fill="white"/>
<path d="M132.365 0H123.891V8.48121H132.365V0Z" fill="white"/>
<path d="M123.891 169.513H115.41V177.995H123.891V169.513Z" fill="white"/>
<path d="M123.891 161.04H115.41V169.513H123.891V161.04Z" fill="white"/>
<path d="M123.891 152.567H115.41V161.04H123.891V152.567Z" fill="white"/>
<path d="M123.891 144.086H115.41V152.567H123.891V144.086Z" fill="white"/>
<path d="M123.891 135.612H115.41V144.085H123.891V135.612Z" fill="white"/>
<path d="M123.891 127.139H115.41V135.612H123.891V127.139Z" fill="white"/>
<path d="M123.891 118.658H115.41V127.139H123.891V118.658Z" fill="white"/>
<path d="M123.891 110.184H115.41V118.658H123.891V110.184Z" fill="white"/>
<path d="M123.891 101.711H115.41V110.184H123.891V101.711Z" fill="white"/>
<path d="M123.891 93.2378H115.41V101.711H123.891V93.2378Z" fill="white"/>
<path d="M123.891 84.7567H115.41V93.2379H123.891V84.7567Z" fill="white"/>
<path d="M123.891 76.2833H115.41V84.7566H123.891V76.2833Z" fill="white"/>
<path d="M123.891 67.8101H115.41V76.2833H123.891V67.8101Z" fill="white"/>
<path d="M123.891 59.3289H115.41V67.8101H123.891V59.3289Z" fill="white"/>
<path d="M123.891 50.8556H115.41V59.3289H123.891V50.8556Z" fill="white"/>
<path d="M123.891 42.3822H115.41V50.8555H123.891V42.3822Z" fill="white"/>
<path d="M123.891 33.9011H115.41V42.3823H123.891V33.9011Z" fill="white"/>
<path d="M123.891 25.4277H115.41V33.901H123.891V25.4277Z" fill="white"/>
<path d="M123.891 16.9545H115.41V25.4278H123.891V16.9545Z" fill="white"/>
<path d="M123.891 8.48132H115.41V16.9546H123.891V8.48132Z" fill="white"/>
<path d="M115.41 169.513H106.937V177.995H115.41V169.513Z" fill="white"/>
<path d="M115.41 161.04H106.937V169.513H115.41V161.04Z" fill="white"/>
<path d="M115.41 152.567H106.937V161.04H115.41V152.567Z" fill="white"/>
<path d="M115.41 144.086H106.937V152.567H115.41V144.086Z" fill="white"/>
<path d="M115.41 135.612H106.937V144.085H115.41V135.612Z" fill="white"/>
<path d="M115.41 127.139H106.937V135.612H115.41V127.139Z" fill="white"/>
<path d="M115.41 118.658H106.937V127.139H115.41V118.658Z" fill="white"/>
<path d="M115.41 110.184H106.937V118.658H115.41V110.184Z" fill="white"/>
<path d="M115.41 101.711H106.937V110.184H115.41V101.711Z" fill="white"/>
<path d="M115.41 93.2378H106.937V101.711H115.41V93.2378Z" fill="white"/>
<path d="M115.41 84.7567H106.937V93.2379H115.41V84.7567Z" fill="white"/>
<path d="M115.41 76.2833H106.937V84.7566H115.41V76.2833Z" fill="white"/>
<path d="M115.41 67.8101H106.937V76.2833H115.41V67.8101Z" fill="white"/>
<path d="M115.41 59.3289H106.937V67.8101H115.41V59.3289Z" fill="white"/>
<path d="M115.41 50.8556H106.937V59.3289H115.41V50.8556Z" fill="white"/>
<path d="M115.41 42.3822H106.937V50.8555H115.41V42.3822Z" fill="white"/>
<path d="M115.41 33.9011H106.937V42.3823H115.41V33.9011Z" fill="white"/>
<path d="M115.41 25.4277H106.937V33.901H115.41V25.4277Z" fill="white"/>
<path d="M115.41 16.9545H106.937V25.4278H115.41V16.9545Z" fill="white"/>
<path d="M115.41 8.48132H106.937V16.9546H115.41V8.48132Z" fill="white"/>
<path d="M106.937 169.513H98.4634V177.995H106.937V169.513Z" fill="white"/>
<path d="M106.937 161.04H98.4634V169.513H106.937V161.04Z" fill="white"/>
<path d="M106.937 152.567H98.4634V161.04H106.937V152.567Z" fill="white"/>
<path d="M106.937 144.086H98.4634V152.567H106.937V144.086Z" fill="white"/>
<path d="M106.937 135.612H98.4634V144.085H106.937V135.612Z" fill="white"/>
<path d="M106.937 127.139H98.4634V135.612H106.937V127.139Z" fill="white"/>
<path d="M106.937 118.658H98.4634V127.139H106.937V118.658Z" fill="white"/>
<path d="M106.937 110.184H98.4634V118.658H106.937V110.184Z" fill="white"/>
<path d="M106.937 101.711H98.4634V110.184H106.937V101.711Z" fill="white"/>
<path d="M106.937 93.2378H98.4634V101.711H106.937V93.2378Z" fill="white"/>
<path d="M106.937 84.7567H98.4634V93.2379H106.937V84.7567Z" fill="white"/>
<path d="M106.937 76.2833H98.4634V84.7566H106.937V76.2833Z" fill="white"/>
<path d="M106.937 67.8101H98.4634V76.2833H106.937V67.8101Z" fill="white"/>
<path d="M106.937 59.3289H98.4634V67.8101H106.937V59.3289Z" fill="white"/>
<path d="M106.937 50.8556H98.4634V59.3289H106.937V50.8556Z" fill="white"/>
<path d="M106.937 42.3822H98.4634V50.8555H106.937V42.3822Z" fill="white"/>
<path d="M106.937 33.9011H98.4634V42.3823H106.937V33.9011Z" fill="white"/>
<path d="M106.937 25.4277H98.4634V33.901H106.937V25.4277Z" fill="white"/>
<path d="M106.937 16.9545H98.4634V25.4278H106.937V16.9545Z" fill="white"/>
<path d="M106.937 8.48132H98.4634V16.9546H106.937V8.48132Z" fill="white"/>
<path d="M98.4634 169.513H89.9902V177.995H98.4634V169.513Z" fill="white"/>
<path d="M98.4634 161.04H89.9902V169.513H98.4634V161.04Z" fill="white"/>
<path d="M98.4634 152.567H89.9902V161.04H98.4634V152.567Z" fill="white"/>
<path d="M98.4634 144.086H89.9902V152.567H98.4634V144.086Z" fill="white"/>
<path d="M98.4634 135.612H89.9902V144.085H98.4634V135.612Z" fill="white"/>
<path d="M98.4634 127.139H89.9902V135.612H98.4634V127.139Z" fill="white"/>
<path d="M98.4634 118.658H89.9902V127.139H98.4634V118.658Z" fill="white"/>
<path d="M98.4634 110.184H89.9902V118.658H98.4634V110.184Z" fill="white"/>
<path d="M98.4634 101.711H89.9902V110.184H98.4634V101.711Z" fill="white"/>
<path d="M98.4634 93.2378H89.9902V101.711H98.4634V93.2378Z" fill="white"/>
<path d="M98.4634 84.7567H89.9902V93.2379H98.4634V84.7567Z" fill="white"/>
<path d="M98.4634 76.2833H89.9902V84.7566H98.4634V76.2833Z" fill="white"/>
<path d="M98.4634 67.8101H89.9902V76.2833H98.4634V67.8101Z" fill="white"/>
<path d="M98.4634 59.3289H89.9902V67.8101H98.4634V59.3289Z" fill="white"/>
<path d="M98.4634 50.8556H89.9902V59.3289H98.4634V50.8556Z" fill="white"/>
<path d="M98.4634 42.3822H89.9902V50.8555H98.4634V42.3822Z" fill="white"/>
<path d="M98.4634 33.9011H89.9902V42.3823H98.4634V33.9011Z" fill="white"/>
<path d="M98.4634 25.4277H89.9902V33.901H98.4634V25.4277Z" fill="white"/>
<path d="M98.4634 16.9545H89.9902V25.4278H98.4634V16.9545Z" fill="white"/>
<path d="M98.4634 8.48132H89.9902V16.9546H98.4634V8.48132Z" fill="white"/>
<path d="M89.9902 161.04H81.5089V169.513H89.9902V161.04Z" fill="white"/>
<path d="M89.9902 152.567H81.5089V161.04H89.9902V152.567Z" fill="white"/>
<path d="M89.9902 144.086H81.5089V152.567H89.9902V144.086Z" fill="white"/>
<path d="M89.9902 135.612H81.5089V144.085H89.9902V135.612Z" fill="white"/>
<path d="M89.9902 127.139H81.5089V135.612H89.9902V127.139Z" fill="white"/>
<path d="M89.9902 118.658H81.5089V127.139H89.9902V118.658Z" fill="white"/>
<path d="M89.9902 110.184H81.5089V118.658H89.9902V110.184Z" fill="white"/>
<path d="M89.9902 101.711H81.5089V110.184H89.9902V101.711Z" fill="white"/>
<path d="M89.9902 93.2378H81.5089V101.711H89.9902V93.2378Z" fill="white"/>
<path d="M89.9902 84.7567H81.5089V93.2379H89.9902V84.7567Z" fill="white"/>
<path d="M89.9902 76.2833H81.5089V84.7566H89.9902V76.2833Z" fill="white"/>
<path d="M89.9902 67.8101H81.5089V76.2833H89.9902V67.8101Z" fill="white"/>
<path d="M89.9902 59.3289H81.5089V67.8101H89.9902V59.3289Z" fill="white"/>
<path d="M89.9902 50.8556H81.5089V59.3289H89.9902V50.8556Z" fill="white"/>
<path d="M89.9902 42.3822H81.5089V50.8555H89.9902V42.3822Z" fill="white"/>
<path d="M89.9902 33.9011H81.5089V42.3823H89.9902V33.9011Z" fill="white"/>
<path d="M89.9902 25.4277H81.5089V33.901H89.9902V25.4277Z" fill="white"/>
<path d="M89.9902 16.9545H81.5089V25.4278H89.9902V16.9545Z" fill="white"/>
<path d="M81.509 161.04H73.0357V169.513H81.509V161.04Z" fill="white"/>
<path d="M81.509 152.567H73.0357V161.04H81.509V152.567Z" fill="white"/>
<path d="M81.509 144.086H73.0357V152.567H81.509V144.086Z" fill="white"/>
<path d="M81.509 135.612H73.0357V144.085H81.509V135.612Z" fill="white"/>
<path d="M81.509 127.139H73.0357V135.612H81.509V127.139Z" fill="white"/>
<path d="M81.509 118.658H73.0357V127.139H81.509V118.658Z" fill="white"/>
<path d="M81.509 110.184H73.0357V118.658H81.509V110.184Z" fill="white"/>
<path d="M81.509 101.711H73.0357V110.184H81.509V101.711Z" fill="white"/>
<path d="M81.509 93.2378H73.0357V101.711H81.509V93.2378Z" fill="white"/>
<path d="M81.509 84.7567H73.0357V93.2379H81.509V84.7567Z" fill="white"/>
<path d="M81.509 76.2833H73.0357V84.7566H81.509V76.2833Z" fill="white"/>
<path d="M81.509 67.8101H73.0357V76.2833H81.509V67.8101Z" fill="white"/>
<path d="M81.509 59.3289H73.0357V67.8101H81.509V59.3289Z" fill="white"/>
<path d="M81.509 50.8556H73.0357V59.3289H81.509V50.8556Z" fill="white"/>
<path d="M81.509 42.3822H73.0357V50.8555H81.509V42.3822Z" fill="white"/>
<path d="M81.509 33.9011H73.0357V42.3823H81.509V33.9011Z" fill="white"/>
<path d="M81.509 25.4277H73.0357V33.901H81.509V25.4277Z" fill="white"/>
<path d="M81.509 16.9545H73.0357V25.4278H81.509V16.9545Z" fill="white"/>
<path d="M73.0357 161.04H64.5624V169.513H73.0357V161.04Z" fill="white"/>
<path d="M73.0357 152.567H64.5624V161.04H73.0357V152.567Z" fill="white"/>
<path d="M73.0357 144.086H64.5624V152.567H73.0357V144.086Z" fill="white"/>
<path d="M73.0357 135.612H64.5624V144.085H73.0357V135.612Z" fill="white"/>
<path d="M73.0357 127.139H64.5624V135.612H73.0357V127.139Z" fill="white"/>
<path d="M73.0357 118.658H64.5624V127.139H73.0357V118.658Z" fill="white"/>
<path d="M73.0357 110.184H64.5624V118.658H73.0357V110.184Z" fill="white"/>
<path d="M73.0357 101.711H64.5624V110.184H73.0357V101.711Z" fill="white"/>
<path d="M73.0357 93.2378H64.5624V101.711H73.0357V93.2378Z" fill="white"/>
<path d="M73.0357 84.7567H64.5624V93.2379H73.0357V84.7567Z" fill="white"/>
<path d="M73.0357 76.2833H64.5624V84.7566H73.0357V76.2833Z" fill="white"/>
<path d="M73.0357 67.8101H64.5624V76.2833H73.0357V67.8101Z" fill="white"/>
<path d="M73.0357 59.3289H64.5624V67.8101H73.0357V59.3289Z" fill="white"/>
<path d="M73.0357 50.8556H64.5624V59.3289H73.0357V50.8556Z" fill="white"/>
<path d="M73.0357 42.3822H64.5624V50.8555H73.0357V42.3822Z" fill="white"/>
<path d="M73.0357 33.9011H64.5624V42.3823H73.0357V33.9011Z" fill="white"/>
<path d="M73.0357 25.4277H64.5624V33.901H73.0357V25.4277Z" fill="white"/>
<path d="M64.5624 152.567H56.0812V161.04H64.5624V152.567Z" fill="white"/>
<path d="M64.5624 144.086H56.0812V152.567H64.5624V144.086Z" fill="white"/>
<path d="M64.5624 135.612H56.0812V144.085H64.5624V135.612Z" fill="white"/>
<path d="M64.5624 127.139H56.0812V135.612H64.5624V127.139Z" fill="white"/>
<path d="M64.5624 118.658H56.0812V127.139H64.5624V118.658Z" fill="white"/>
<path d="M64.5624 110.184H56.0812V118.658H64.5624V110.184Z" fill="white"/>
<path d="M64.5624 101.711H56.0812V110.184H64.5624V101.711Z" fill="white"/>
<path d="M64.5624 93.2378H56.0812V101.711H64.5624V93.2378Z" fill="white"/>
<path d="M64.5624 84.7567H56.0812V93.2379H64.5624V84.7567Z" fill="white"/>
<path d="M64.5624 76.2833H56.0812V84.7566H64.5624V76.2833Z" fill="white"/>
<path d="M64.5624 67.8101H56.0812V76.2833H64.5624V67.8101Z" fill="white"/>
<path d="M64.5624 59.3289H56.0812V67.8101H64.5624V59.3289Z" fill="white"/>
<path d="M64.5624 50.8556H56.0812V59.3289H64.5624V50.8556Z" fill="white"/>
<path d="M64.5624 42.3822H56.0812V50.8555H64.5624V42.3822Z" fill="white"/>
<path d="M64.5624 33.9011H56.0812V42.3823H64.5624V33.9011Z" fill="white"/>
<path d="M64.5624 25.4277H56.0812V33.901H64.5624V25.4277Z" fill="white"/>
<path d="M56.0812 152.567H47.6079V161.04H56.0812V152.567Z" fill="white"/>
<path d="M56.0812 144.086H47.6079V152.567H56.0812V144.086Z" fill="white"/>
<path d="M56.0812 135.612H47.6079V144.085H56.0812V135.612Z" fill="white"/>
<path d="M56.0812 127.139H47.6079V135.612H56.0812V127.139Z" fill="white"/>
<path d="M56.0812 118.658H47.6079V127.139H56.0812V118.658Z" fill="white"/>
<path d="M56.0812 110.184H47.6079V118.658H56.0812V110.184Z" fill="white"/>
<path d="M56.0812 101.711H47.6079V110.184H56.0812V101.711Z" fill="white"/>
<path d="M56.0812 93.2378H47.6079V101.711H56.0812V93.2378Z" fill="white"/>
<path d="M56.0812 84.7567H47.6079V93.2379H56.0812V84.7567Z" fill="white"/>
<path d="M56.0812 76.2833H47.6079V84.7566H56.0812V76.2833Z" fill="white"/>
<path d="M56.0812 67.8101H47.6079V76.2833H56.0812V67.8101Z" fill="white"/>
<path d="M56.0812 59.3289H47.6079V67.8101H56.0812V59.3289Z" fill="white"/>
<path d="M56.0812 50.8556H47.6079V59.3289H56.0812V50.8556Z" fill="white"/>
<path d="M56.0812 42.3822H47.6079V50.8555H56.0812V42.3822Z" fill="white"/>
<path d="M56.0812 33.9011H47.6079V42.3823H56.0812V33.9011Z" fill="white"/>
<path d="M47.6079 144.086H39.1346V152.567H47.6079V144.086Z" fill="white"/>
<path d="M47.6079 135.612H39.1346V144.085H47.6079V135.612Z" fill="white"/>
<path d="M47.6079 127.139H39.1346V135.612H47.6079V127.139Z" fill="white"/>
<path d="M47.6079 118.658H39.1346V127.139H47.6079V118.658Z" fill="white"/>
<path d="M47.6079 110.184H39.1346V118.658H47.6079V110.184Z" fill="white"/>
<path d="M47.6079 101.711H39.1346V110.184H47.6079V101.711Z" fill="white"/>
<path d="M47.6079 93.2378H39.1346V101.711H47.6079V93.2378Z" fill="white"/>
<path d="M47.6079 84.7567H39.1346V93.2379H47.6079V84.7567Z" fill="white"/>
<path d="M47.6079 76.2833H39.1346V84.7566H47.6079V76.2833Z" fill="white"/>
<path d="M47.6079 67.8101H39.1346V76.2833H47.6079V67.8101Z" fill="white"/>
<path d="M47.6079 59.3289H39.1346V67.8101H47.6079V59.3289Z" fill="white"/>
<path d="M47.6079 50.8556H39.1346V59.3289H47.6079V50.8556Z" fill="white"/>
<path d="M47.6079 42.3822H39.1346V50.8555H47.6079V42.3822Z" fill="white"/>
<path d="M47.6079 33.9011H39.1346V42.3823H47.6079V33.9011Z" fill="white"/>
<path d="M39.1346 144.086H30.6534V152.567H39.1346V144.086Z" fill="white"/>
<path d="M39.1346 135.612H30.6534V144.085H39.1346V135.612Z" fill="white"/>
<path d="M39.1346 127.139H30.6534V135.612H39.1346V127.139Z" fill="white"/>
<path d="M39.1346 118.658H30.6534V127.139H39.1346V118.658Z" fill="white"/>
<path d="M39.1346 110.184H30.6534V118.658H39.1346V110.184Z" fill="white"/>
<path d="M39.1346 101.711H30.6534V110.184H39.1346V101.711Z" fill="white"/>
<path d="M39.1346 93.2378H30.6534V101.711H39.1346V93.2378Z" fill="white"/>
<path d="M39.1346 84.7567H30.6534V93.2379H39.1346V84.7567Z" fill="white"/>
<path d="M39.1346 76.2833H30.6534V84.7566H39.1346V76.2833Z" fill="white"/>
<path d="M39.1346 67.8101H30.6534V76.2833H39.1346V67.8101Z" fill="white"/>
<path d="M39.1346 59.3289H30.6534V67.8101H39.1346V59.3289Z" fill="white"/>
<path d="M39.1346 50.8556H30.6534V59.3289H39.1346V50.8556Z" fill="white"/>
<path d="M39.1346 42.3822H30.6534V50.8555H39.1346V42.3822Z" fill="white"/>
<path d="M30.6534 135.612H22.1801V144.085H30.6534V135.612Z" fill="white"/>
<path d="M30.6534 127.139H22.1801V135.612H30.6534V127.139Z" fill="white"/>
<path d="M30.6534 118.658H22.1801V127.139H30.6534V118.658Z" fill="white"/>
<path d="M30.6534 110.184H22.1801V118.658H30.6534V110.184Z" fill="white"/>
<path d="M30.6534 101.711H22.1801V110.184H30.6534V101.711Z" fill="white"/>
<path d="M30.6534 93.2378H22.1801V101.711H30.6534V93.2378Z" fill="white"/>
<path d="M30.6534 84.7567H22.1801V93.2379H30.6534V84.7567Z" fill="white"/>
<path d="M30.6534 76.2833H22.1801V84.7566H30.6534V76.2833Z" fill="white"/>
<path d="M30.6534 67.8101H22.1801V76.2833H30.6534V67.8101Z" fill="white"/>
<path d="M30.6534 59.3289H22.1801V67.8101H30.6534V59.3289Z" fill="white"/>
<path d="M30.6534 50.8556H22.1801V59.3289H30.6534V50.8556Z" fill="white"/>
<path d="M22.1801 127.139H13.7068V135.612H22.1801V127.139Z" fill="white"/>
<path d="M22.1801 118.658H13.7068V127.139H22.1801V118.658Z" fill="white"/>
<path d="M22.1801 110.184H13.7068V118.658H22.1801V110.184Z" fill="white"/>
<path d="M22.1801 101.711H13.7068V110.184H22.1801V101.711Z" fill="white"/>
<path d="M22.1801 93.2378H13.7068V101.711H22.1801V93.2378Z" fill="white"/>
<path d="M22.1801 84.7567H13.7068V93.2379H22.1801V84.7567Z" fill="white"/>
<path d="M22.1801 76.2833H13.7068V84.7566H22.1801V76.2833Z" fill="white"/>
<path d="M22.1801 67.8101H13.7068V76.2833H22.1801V67.8101Z" fill="white"/>
<path d="M22.1801 59.3289H13.7068V67.8101H22.1801V59.3289Z" fill="white"/>
<path d="M13.7068 110.184H5.22559V118.658H13.7068V110.184Z" fill="white"/>
<path d="M13.7068 101.711H5.22559V110.184H13.7068V101.711Z" fill="white"/>
<path d="M13.7068 93.2378H5.22559V101.711H13.7068V93.2378Z" fill="white"/>
<path d="M13.7068 84.7567H5.22559V93.2379H13.7068V84.7567Z" fill="white"/>
<path d="M13.7068 76.2833H5.22559V84.7566H13.7068V76.2833Z" fill="white"/>
<path d="M115.023 108.115H118.023V111.115H115.023V108.115ZM118.023 105.115H115.023V84.1152H118.023V105.115ZM127.012 105.115H130.012V108.115H142.012V111.115H130.012V108.115H127.012V105.115H124.012V90.1152H127.012V87.1152H130.012V84.1152H142.012V87.1152H145.012V102.115H142.012V105.115H133.012V102.115H130.012V93.1152H133.012V90.1152H142.012V87.1152H130.012V90.1152H127.012V105.115ZM133.012 102.115H142.012V93.1152H133.012V102.115ZM148.023 93.1152V90.1152H151.023V84.1152H154.023V90.1152H160.023V84.1152H163.023V90.1152H166.023V93.1152H163.023V102.115H166.023V105.115H163.023V111.115H160.023V105.115H154.023V111.115H151.023V105.115H148.023V102.115H151.023V93.1152H148.023ZM160.023 93.1152H154.023V102.115H160.023V93.1152ZM175.012 114.115V111.115H172.012V108.115H175.012V105.115V102.115V99.1152H172.012V96.1152H169.012V93.1152V90.1152V87.1152H172.012V84.1152H175.012H178.012V81.1152H181.012V84.1152H184.012V87.1152H187.012V90.1152H184.012V87.1152H181.012V90.1152V93.1152V96.1152H184.012V99.1152H187.012V102.115V105.115V108.115H184.012V105.115V102.115V99.1152H181.012H178.012V102.115V105.115V108.115H181.012H184.012V111.115H181.012H178.012V114.115H175.012ZM172.012 108.115H169.012V105.115H172.012V108.115ZM175.012 96.1152H178.012V93.1152V90.1152V87.1152H175.012H172.012V90.1152V93.1152V96.1152H175.012ZM193 93.1152H190V87.1152H193V84.1152H199V87.1152H202V93.1152H205V90.1152H208V87.1152H211V90.1152H208V93.1152H205V96.1152H202V99.1152H208V102.115H211V108.115H208V111.115H202V108.115H199V102.115H196V105.115H193V108.115H190V105.115H193V102.115H196V99.1152H199V96.1152H193V93.1152ZM199 93.1152V96.1152H202V93.1152H199V87.1152H193V93.1152H199ZM202 102.115V108.115H208V102.115H202V99.1152H199V102.115H202ZM217.012 108.115H220.012V111.115H217.012V108.115ZM229 108.115H232V111.115H229V108.115ZM240.988 108.115H243.988V111.115H240.988V108.115Z" fill="#3C0C00"/>
</svg>
